<?xml version="1.0" encoding="UTF-8"?>
<svg xmlns="http://www.w3.org/2000/svg"
     xmlns:xlink="http://www.w3.org/1999/xlink"
     xmlns:gadfly="http://www.gadflyjl.org/ns"
     version="1.2"
     width="152.4mm" height="101.6mm" viewBox="0 0 152.4 101.6"
     stroke="none"
     fill="#000000"
     stroke-width="0.3"
     font-size="3.88"
>
<g class="plotroot xscalable yscalable" id="fig-a27c39a252a54104b7752ec3e74f98f8-element-1">
  <g font-size="3.88" font-family="'PT Sans','Helvetica Neue','Helvetica',sans-serif" fill="#564A55" stroke="none" id="fig-a27c39a252a54104b7752ec3e74f98f8-element-2">
    <text x="74.39" y="93.6" text-anchor="middle">x</text>
  </g>
  <g class="guide xlabels" font-size="2.82" font-family="'PT Sans Caption','Helvetica Neue','Helvetica',sans-serif" fill="#6C606B" id="fig-a27c39a252a54104b7752ec3e74f98f8-element-3">
    <text x="17.59" y="87.99" text-anchor="middle">-3</text>
    <text x="36.52" y="87.99" text-anchor="middle">-2</text>
    <text x="55.46" y="87.99" text-anchor="middle">-1</text>
    <text x="74.39" y="87.99" text-anchor="middle">0</text>
    <text x="93.32" y="87.99" text-anchor="middle">1</text>
    <text x="112.25" y="87.99" text-anchor="middle">2</text>
    <text x="131.18" y="87.99" text-anchor="middle">3</text>
  </g>
  <g class="guide colorkey" id="fig-a27c39a252a54104b7752ec3e74f98f8-element-4">
    <g font-size="2.82" font-family="'PT Sans','Helvetica Neue','Helvetica',sans-serif" fill="#4C404B" id="fig-a27c39a252a54104b7752ec3e74f98f8-element-5">
      <text x="137.5" y="65.5" dy="0.35em">100</text>
      <text x="137.5" y="59.24" dy="0.35em">200</text>
      <text x="137.5" y="52.97" dy="0.35em">300</text>
      <text x="137.5" y="71.7" dy="0.35em">1</text>
      <text x="137.5" y="40.45" dy="0.35em">500</text>
      <text x="137.5" y="46.71" dy="0.35em">400</text>
    </g>
    <g shape-rendering="crispEdges" stroke="none" id="fig-a27c39a252a54104b7752ec3e74f98f8-element-6">
      <rect x="135.18" y="70.92" width="1.31" height="0.78" fill="#004D84"/>
      <rect x="135.18" y="70.14" width="1.31" height="0.78" fill="#005B8D"/>
      <rect x="135.18" y="69.36" width="1.31" height="0.78" fill="#006995"/>
      <rect x="135.18" y="68.58" width="1.31" height="0.78" fill="#00769D"/>
      <rect x="135.18" y="67.79" width="1.31" height="0.78" fill="#0083A3"/>
      <rect x="135.18" y="67.01" width="1.31" height="0.78" fill="#278FA9"/>
      <rect x="135.18" y="66.23" width="1.31" height="0.78" fill="#409BAF"/>
      <rect x="135.18" y="65.45" width="1.31" height="0.78" fill="#55A7B5"/>
      <rect x="135.18" y="64.67" width="1.31" height="0.78" fill="#69B2BA"/>
      <rect x="135.18" y="63.89" width="1.31" height="0.78" fill="#7BBCC0"/>
      <rect x="135.18" y="63.11" width="1.31" height="0.78" fill="#8DC6C5"/>
      <rect x="135.18" y="62.33" width="1.31" height="0.78" fill="#9ED0CB"/>
      <rect x="135.18" y="61.54" width="1.31" height="0.78" fill="#A5CFC7"/>
      <rect x="135.18" y="60.76" width="1.31" height="0.78" fill="#ABCEC4"/>
      <rect x="135.18" y="59.98" width="1.31" height="0.78" fill="#B1CCC2"/>
      <rect x="135.18" y="59.2" width="1.31" height="0.78" fill="#B5CCC1"/>
      <rect x="135.18" y="58.42" width="1.31" height="0.78" fill="#B7CBBF"/>
      <rect x="135.18" y="57.64" width="1.31" height="0.78" fill="#B9CBBD"/>
      <rect x="135.18" y="56.86" width="1.31" height="0.78" fill="#BBCBBB"/>
      <rect x="135.18" y="56.07" width="1.31" height="0.78" fill="#BDCABA"/>
      <rect x="135.18" y="55.29" width="1.31" height="0.78" fill="#BFCAB8"/>
      <rect x="135.18" y="54.51" width="1.31" height="0.78" fill="#C2C9B7"/>
      <rect x="135.18" y="53.73" width="1.31" height="0.78" fill="#C4C9B6"/>
      <rect x="135.18" y="52.95" width="1.31" height="0.78" fill="#C6C8B5"/>
      <rect x="135.18" y="52.17" width="1.31" height="0.78" fill="#C9C7B4"/>
      <rect x="135.18" y="51.39" width="1.31" height="0.78" fill="#CCC7B2"/>
      <rect x="135.18" y="50.61" width="1.31" height="0.78" fill="#CFC6AE"/>
      <rect x="135.18" y="49.82" width="1.31" height="0.78" fill="#D4C5AA"/>
      <rect x="135.18" y="49.04" width="1.31" height="0.78" fill="#D8C3A6"/>
      <rect x="135.18" y="48.26" width="1.31" height="0.78" fill="#D3B79A"/>
      <rect x="135.18" y="47.48" width="1.31" height="0.78" fill="#CDAB8E"/>
      <rect x="135.18" y="46.7" width="1.31" height="0.78" fill="#C89E82"/>
      <rect x="135.18" y="45.92" width="1.31" height="0.78" fill="#C19177"/>
      <rect x="135.18" y="45.14" width="1.31" height="0.78" fill="#BA836C"/>
      <rect x="135.18" y="44.36" width="1.31" height="0.78" fill="#B27563"/>
      <rect x="135.18" y="43.57" width="1.31" height="0.78" fill="#AA665A"/>
      <rect x="135.18" y="42.79" width="1.31" height="0.78" fill="#A05752"/>
      <rect x="135.18" y="42.01" width="1.31" height="0.78" fill="#96484A"/>
      <rect x="135.18" y="41.23" width="1.31" height="0.78" fill="#8B3844"/>
      <rect x="135.18" y="40.45" width="1.31" height="0.78" fill="#7E273E"/>
      <g stroke="#FFFFFF" stroke-width="0.2" id="fig-a27c39a252a54104b7752ec3e74f98f8-element-7">
        <path d="M135.18,65.5 L 136.5 65.5" fill="#004D84"/>
        <path d="M135.18,59.24 L 136.5 59.24" fill="#005B8D"/>
        <path d="M135.18,52.97 L 136.5 52.97" fill="#006995"/>
        <path d="M135.18,71.7 L 136.5 71.7" fill="#00769D"/>
        <path d="M135.18,40.45 L 136.5 40.45" fill="#0083A3"/>
        <path d="M135.18,46.71 L 136.5 46.71" fill="#278FA9"/>
      </g>
    </g>
    <g fill="#362A35" font-size="3.88" font-family="'PT Sans','Helvetica Neue','Helvetica',sans-serif" stroke="none" id="fig-a27c39a252a54104b7752ec3e74f98f8-element-8">
      <text x="135.18" y="36.45">Iteration</text>
    </g>
  </g>
  <g clip-path="url(#fig-a27c39a252a54104b7752ec3e74f98f8-element-10)" id="fig-a27c39a252a54104b7752ec3e74f98f8-element-9">
    <g pointer-events="visible" opacity="1" fill="none" stroke="none" class="guide background" id="fig-a27c39a252a54104b7752ec3e74f98f8-element-11">
      <rect x="15.59" y="12.61" width="117.59" height="71.7"/>
    </g>
    <g class="guide ygridlines xfixed" stroke-dasharray="0.5,0.5" stroke-width="0.2" stroke="#D0D0E0" id="fig-a27c39a252a54104b7752ec3e74f98f8-element-12">
      <path d="M15.59,82.32 L 133.18 82.32"/>
      <path d="M15.59,65.39 L 133.18 65.39"/>
      <path d="M15.59,48.46 L 133.18 48.46"/>
      <path d="M15.59,31.54 L 133.18 31.54"/>
      <path d="M15.59,14.61 L 133.18 14.61"/>
    </g>
    <g class="guide xgridlines yfixed" stroke-dasharray="0.5,0.5" stroke-width="0.2" stroke="#D0D0E0" id="fig-a27c39a252a54104b7752ec3e74f98f8-element-13">
      <path d="M17.59,12.61 L 17.59 84.32"/>
      <path d="M36.52,12.61 L 36.52 84.32"/>
      <path d="M55.46,12.61 L 55.46 84.32"/>
      <path d="M74.39,12.61 L 74.39 84.32"/>
      <path d="M93.32,12.61 L 93.32 84.32"/>
      <path d="M112.25,12.61 L 112.25 84.32"/>
      <path d="M131.18,12.61 L 131.18 84.32"/>
    </g>
    <g class="plotpanel" id="fig-a27c39a252a54104b7752ec3e74f98f8-element-14">
      <g class="geometry" id="fig-a27c39a252a54104b7752ec3e74f98f8-element-15">
        <g stroke-width="0.3" id="fig-a27c39a252a54104b7752ec3e74f98f8-element-16">
          <circle cx="93.13" cy="40.44" r="0.9" stroke="#000337" fill="#004D84"/>
          <circle cx="76.83" cy="49.38" r="0.9" stroke="#000436" fill="#004E85"/>
          <circle cx="75.07" cy="49.3" r="0.9" stroke="#000436" fill="#004F86"/>
          <circle cx="80.25" cy="41.3" r="0.9" stroke="#000436" fill="#005186"/>
          <circle cx="83.1" cy="42.03" r="0.9" stroke="#000536" fill="#005287"/>
          <circle cx="43.2" cy="57.03" r="0.9" stroke="#000535" fill="#005388"/>
          <circle cx="101.84" cy="27.08" r="0.9" stroke="#000535" fill="#005488"/>
          <circle cx="66.86" cy="48.94" r="0.9" stroke="#000535" fill="#005589"/>
          <circle cx="77.42" cy="44.46" r="0.9" stroke="#000635" fill="#00568A"/>
          <circle cx="79.31" cy="43.79" r="0.9" stroke="#000634" fill="#00578A"/>
          <circle cx="89.58" cy="37.32" r="0.9" stroke="#000634" fill="#00588B"/>
          <circle cx="72.26" cy="48.4" r="0.9" stroke="#000734" fill="#00598C"/>
          <circle cx="72.26" cy="48.4" r="0.9" stroke="#000734" fill="#005A8D"/>
          <circle cx="94.19" cy="36.63" r="0.9" stroke="#000733" fill="#005B8D"/>
          <circle cx="64.79" cy="49.42" r="0.9" stroke="#000733" fill="#005C8E"/>
          <circle cx="90.28" cy="42.26" r="0.9" stroke="#000833" fill="#005D8E"/>
          <circle cx="78.8" cy="48.73" r="0.9" stroke="#000833" fill="#005E8F"/>
          <circle cx="36.61" cy="69.79" r="0.9" stroke="#000832" fill="#006090"/>
          <circle cx="93.5" cy="45.78" r="0.9" stroke="#000832" fill="#006190"/>
          <circle cx="68.11" cy="57.59" r="0.9" stroke="#000932" fill="#006291"/>
          <circle cx="61.96" cy="57.31" r="0.9" stroke="#000931" fill="#006392"/>
          <circle cx="46.04" cy="63.29" r="0.9" stroke="#000931" fill="#006492"/>
          <circle cx="46.04" cy="63.29" r="0.9" stroke="#000A31" fill="#006593"/>
          <circle cx="77.2" cy="44.42" r="0.9" stroke="#000C32" fill="#006694"/>
          <circle cx="77.2" cy="44.42" r="0.9" stroke="#000D32" fill="#006794"/>
          <circle cx="82.35" cy="46.44" r="0.9" stroke="#000F33" fill="#006895"/>
          <circle cx="25.2" cy="62.62" r="0.9" stroke="#001033" fill="#006995"/>
          <circle cx="25.2" cy="62.62" r="0.9" stroke="#001134" fill="#006A96"/>
          <circle cx="67.54" cy="51.84" r="0.9" stroke="#001234" fill="#006B97"/>
          <circle cx="74.81" cy="50.08" r="0.9" stroke="#001335" fill="#006C97"/>
          <circle cx="105.51" cy="38.92" r="0.9" stroke="#001435" fill="#006D98"/>
          <circle cx="105.51" cy="38.92" r="0.9" stroke="#001536" fill="#006E98"/>
          <circle cx="64.02" cy="50.63" r="0.9" stroke="#001636" fill="#006F99"/>
          <circle cx="71.89" cy="44.11" r="0.9" stroke="#001737" fill="#007099"/>
          <circle cx="68.04" cy="46.41" r="0.9" stroke="#001837" fill="#00719A"/>
          <circle cx="68.04" cy="46.41" r="0.9" stroke="#001938" fill="#00729B"/>
          <circle cx="67.34" cy="51.87" r="0.9" stroke="#001A38" fill="#00739B"/>
          <circle cx="68.43" cy="46.11" r="0.9" stroke="#001A39" fill="#00749C"/>
          <circle cx="63.05" cy="48.48" r="0.9" stroke="#001B39" fill="#00759C"/>
          <circle cx="56.34" cy="53.45" r="0.9" stroke="#001C3A" fill="#00769D"/>
          <circle cx="35.86" cy="63.27" r="0.9" stroke="#001D3A" fill="#00779D"/>
          <circle cx="35.86" cy="63.27" r="0.9" stroke="#001D3B" fill="#00799E"/>
          <circle cx="75.26" cy="47.72" r="0.9" stroke="#001E3B" fill="#007A9E"/>
          <circle cx="53.47" cy="59.9" r="0.9" stroke="#001F3C" fill="#007B9F"/>
          <circle cx="92.22" cy="39.38" r="0.9" stroke="#001F3C" fill="#007CA0"/>
          <circle cx="62.01" cy="55.95" r="0.9" stroke="#00203D" fill="#007DA0"/>
          <circle cx="62.01" cy="55.95" r="0.9" stroke="#00213D" fill="#007EA1"/>
          <circle cx="62.01" cy="55.95" r="0.9" stroke="#00213D" fill="#007FA1"/>
          <circle cx="62.01" cy="55.95" r="0.9" stroke="#00223E" fill="#0080A2"/>
          <circle cx="63.31" cy="56.92" r="0.9" stroke="#00233E" fill="#0081A2"/>
          <circle cx="63.31" cy="56.92" r="0.9" stroke="#00243F" fill="#0082A3"/>
          <circle cx="52.44" cy="59.53" r="0.9" stroke="#00243F" fill="#0083A3"/>
          <circle cx="103.1" cy="39.4" r="0.9" stroke="#002540" fill="#0084A4"/>
          <circle cx="103.1" cy="39.4" r="0.9" stroke="#002640" fill="#0085A4"/>
          <circle cx="63.44" cy="56.71" r="0.9" stroke="#002641" fill="#0486A5"/>
          <circle cx="80.93" cy="45.54" r="0.9" stroke="#002741" fill="#0A87A5"/>
          <circle cx="37.66" cy="63.36" r="0.9" stroke="#002841" fill="#0F88A6"/>
          <circle cx="81.07" cy="45.98" r="0.9" stroke="#002942" fill="#1389A6"/>
          <circle cx="89.54" cy="45.98" r="0.9" stroke="#002A42" fill="#1789A7"/>
          <circle cx="62.13" cy="55.91" r="0.9" stroke="#002A43" fill="#1A8AA7"/>
          <circle cx="101.73" cy="39.24" r="0.9" stroke="#002B43" fill="#1D8BA8"/>
          <circle cx="101.73" cy="39.24" r="0.9" stroke="#002C44" fill="#208CA8"/>
          <circle cx="101.73" cy="39.24" r="0.9" stroke="#002D44" fill="#228DA8"/>
          <circle cx="42.31" cy="62.34" r="0.9" stroke="#002E44" fill="#258EA9"/>
          <circle cx="50.71" cy="55.85" r="0.9" stroke="#002E45" fill="#278FA9"/>
          <circle cx="50.71" cy="55.85" r="0.9" stroke="#002F45" fill="#2990AA"/>
          <circle cx="60.42" cy="50.35" r="0.9" stroke="#003046" fill="#2C91AA"/>
          <circle cx="87.32" cy="41.32" r="0.9" stroke="#003146" fill="#2E92AB"/>
          <circle cx="58.99" cy="55.37" r="0.9" stroke="#003246" fill="#3093AB"/>
          <circle cx="58.99" cy="55.37" r="0.9" stroke="#003247" fill="#3294AC"/>
          <circle cx="58.99" cy="55.37" r="0.9" stroke="#003347" fill="#3495AC"/>
          <circle cx="70.11" cy="54.58" r="0.9" stroke="#003448" fill="#3696AD"/>
          <circle cx="70.11" cy="54.58" r="0.9" stroke="#003548" fill="#3897AD"/>
          <circle cx="87.5" cy="48.38" r="0.9" stroke="#003548" fill="#3A98AE"/>
          <circle cx="51.72" cy="62.85" r="0.9" stroke="#003649" fill="#3B99AE"/>
          <circle cx="95.93" cy="46.24" r="0.9" stroke="#003749" fill="#3D9AAE"/>
          <circle cx="91.84" cy="47.72" r="0.9" stroke="#00384A" fill="#3F9BAF"/>
          <circle cx="77.96" cy="52.08" r="0.9" stroke="#00394A" fill="#419CAF"/>
          <circle cx="88.68" cy="45.65" r="0.9" stroke="#00394A" fill="#429DB0"/>
          <circle cx="57.11" cy="55.56" r="0.9" stroke="#003A4B" fill="#449DB0"/>
          <circle cx="75.2" cy="50.18" r="0.9" stroke="#003B4B" fill="#469EB1"/>
          <circle cx="57.88" cy="59.76" r="0.9" stroke="#003C4C" fill="#489FB1"/>
          <circle cx="59.87" cy="57.5" r="0.9" stroke="#003C4C" fill="#49A0B2"/>
          <circle cx="81.84" cy="43.52" r="0.9" stroke="#003D4C" fill="#4BA1B2"/>
          <circle cx="71.46" cy="48.91" r="0.9" stroke="#003E4D" fill="#4DA2B2"/>
          <circle cx="44.83" cy="58.65" r="0.9" stroke="#003F4D" fill="#4EA3B3"/>
          <circle cx="57.57" cy="53.34" r="0.9" stroke="#00404E" fill="#50A4B3"/>
          <circle cx="72.17" cy="46.69" r="0.9" stroke="#00404E" fill="#51A5B4"/>
          <circle cx="38.47" cy="65.18" r="0.9" stroke="#00414E" fill="#53A6B4"/>
          <circle cx="107.03" cy="38.55" r="0.9" stroke="#00424F" fill="#54A6B5"/>
          <circle cx="111.13" cy="39.32" r="0.9" stroke="#00434F" fill="#56A7B5"/>
          <circle cx="78.13" cy="53.57" r="0.9" stroke="#00434F" fill="#58A8B5"/>
          <circle cx="114.76" cy="36.38" r="0.9" stroke="#004450" fill="#59A9B6"/>
          <circle cx="78.99" cy="53.02" r="0.9" stroke="#004550" fill="#5BAAB6"/>
          <circle cx="66.78" cy="56.33" r="0.9" stroke="#004651" fill="#5CABB7"/>
          <circle cx="88.37" cy="46.55" r="0.9" stroke="#004651" fill="#5EACB7"/>
          <circle cx="66.1" cy="53.76" r="0.9" stroke="#004751" fill="#5FADB8"/>
          <circle cx="80.75" cy="46.91" r="0.9" stroke="#004852" fill="#61ADB8"/>
          <circle cx="58.4" cy="55.44" r="0.9" stroke="#004952" fill="#62AEB8"/>
          <circle cx="73.38" cy="45.77" r="0.9" stroke="#004952" fill="#64AFB9"/>
          <circle cx="77.25" cy="40.32" r="0.9" stroke="#004A53" fill="#65B0B9"/>
          <circle cx="53.36" cy="52.59" r="0.9" stroke="#004B53" fill="#67B1BA"/>
          <circle cx="87.54" cy="42.51" r="0.9" stroke="#004C53" fill="#68B2BA"/>
          <circle cx="31.55" cy="64" r="0.9" stroke="#004C54" fill="#6AB3BA"/>
          <circle cx="93.5" cy="39.47" r="0.9" stroke="#004D54" fill="#6BB3BB"/>
          <circle cx="93.5" cy="39.47" r="0.9" stroke="#004E55" fill="#6DB4BB"/>
          <circle cx="63.85" cy="49.15" r="0.9" stroke="#004E55" fill="#6EB5BC"/>
          <circle cx="49.46" cy="55.3" r="0.9" stroke="#004F55" fill="#6FB6BC"/>
          <circle cx="47.08" cy="52.12" r="0.9" stroke="#005056" fill="#71B7BD"/>
          <circle cx="72.49" cy="44.93" r="0.9" stroke="#005156" fill="#72B8BD"/>
          <circle cx="90.81" cy="44.08" r="0.9" stroke="#005156" fill="#74B8BD"/>
          <circle cx="90.81" cy="44.08" r="0.9" stroke="#005257" fill="#75B9BE"/>
          <circle cx="90.81" cy="44.08" r="0.9" stroke="#005357" fill="#77BABE"/>
          <circle cx="106.69" cy="39.43" r="0.9" stroke="#005358" fill="#78BBBF"/>
          <circle cx="59.4" cy="61.6" r="0.9" stroke="#015458" fill="#79BCBF"/>
          <circle cx="93.24" cy="44.94" r="0.9" stroke="#055558" fill="#7BBCC0"/>
          <circle cx="82.89" cy="50.92" r="0.9" stroke="#085659" fill="#7CBDC0"/>
          <circle cx="112.81" cy="37.6" r="0.9" stroke="#0C5659" fill="#7EBEC0"/>
          <circle cx="112.81" cy="37.6" r="0.9" stroke="#0F5759" fill="#7FBFC1"/>
          <circle cx="79.06" cy="50.82" r="0.9" stroke="#12585A" fill="#80BFC1"/>
          <circle cx="86.14" cy="48.58" r="0.9" stroke="#14585A" fill="#82C0C2"/>
          <circle cx="75.74" cy="54.62" r="0.9" stroke="#16595B" fill="#83C1C2"/>
          <circle cx="65.79" cy="55.54" r="0.9" stroke="#195A5B" fill="#85C2C2"/>
          <circle cx="65.79" cy="55.54" r="0.9" stroke="#1B5A5B" fill="#86C3C3"/>
          <circle cx="79.05" cy="43.33" r="0.9" stroke="#1D5B5C" fill="#87C3C3"/>
          <circle cx="91" cy="41.31" r="0.9" stroke="#1E5C5C" fill="#89C4C4"/>
          <circle cx="78.1" cy="36.97" r="0.9" stroke="#205C5C" fill="#8AC5C4"/>
          <circle cx="40.24" cy="54.74" r="0.9" stroke="#225D5D" fill="#8BC6C5"/>
          <circle cx="95.89" cy="37.75" r="0.9" stroke="#245E5D" fill="#8DC6C5"/>
          <circle cx="77.78" cy="44.54" r="0.9" stroke="#255E5E" fill="#8EC7C6"/>
          <circle cx="70.64" cy="51.13" r="0.9" stroke="#275F5E" fill="#8FC8C6"/>
          <circle cx="70.64" cy="51.13" r="0.9" stroke="#29605E" fill="#91C9C6"/>
          <circle cx="41.54" cy="60.99" r="0.9" stroke="#2A605F" fill="#92C9C7"/>
          <circle cx="112.41" cy="32.98" r="0.9" stroke="#2C615F" fill="#93CAC7"/>
          <circle cx="90.6" cy="41.85" r="0.9" stroke="#2D625F" fill="#95CBC8"/>
          <circle cx="83.24" cy="37.86" r="0.9" stroke="#2F6260" fill="#96CCC8"/>
          <circle cx="71.13" cy="47.88" r="0.9" stroke="#306360" fill="#97CCC9"/>
          <circle cx="72.98" cy="46.97" r="0.9" stroke="#316461" fill="#99CDC9"/>
          <circle cx="72.98" cy="46.97" r="0.9" stroke="#336461" fill="#9ACEC9"/>
          <circle cx="98.02" cy="35.32" r="0.9" stroke="#346561" fill="#9BCECA"/>
          <circle cx="98.02" cy="35.32" r="0.9" stroke="#356562" fill="#9DCFCA"/>
          <circle cx="36.36" cy="64.37" r="0.9" stroke="#376662" fill="#9ED0CB"/>
          <circle cx="59.02" cy="53.79" r="0.9" stroke="#386662" fill="#9FD0CB"/>
          <circle cx="81.85" cy="46.83" r="0.9" stroke="#386662" fill="#9FD0CA"/>
          <circle cx="69.57" cy="50.58" r="0.9" stroke="#396662" fill="#A0D0CA"/>
          <circle cx="69.57" cy="50.58" r="0.9" stroke="#396661" fill="#A0D0CA"/>
          <circle cx="83.77" cy="44.42" r="0.9" stroke="#3A6661" fill="#A1D0C9"/>
          <circle cx="69.93" cy="50.58" r="0.9" stroke="#3B6661" fill="#A1CFC9"/>
          <circle cx="81.72" cy="46.16" r="0.9" stroke="#3B6660" fill="#A2CFC9"/>
          <circle cx="53.59" cy="56.33" r="0.9" stroke="#3C6660" fill="#A2CFC9"/>
          <circle cx="63.71" cy="53" r="0.9" stroke="#3C6660" fill="#A3CFC8"/>
          <circle cx="63.71" cy="53" r="0.9" stroke="#3D6660" fill="#A3CFC8"/>
          <circle cx="56.41" cy="57.82" r="0.9" stroke="#3E665F" fill="#A4CFC8"/>
          <circle cx="56.41" cy="57.82" r="0.9" stroke="#3E655F" fill="#A4CFC7"/>
          <circle cx="69.63" cy="52.98" r="0.9" stroke="#3F655F" fill="#A5CFC7"/>
          <circle cx="58.82" cy="57.16" r="0.9" stroke="#3F655F" fill="#A5CFC7"/>
          <circle cx="84.26" cy="46.16" r="0.9" stroke="#40655F" fill="#A6CFC7"/>
          <circle cx="49.07" cy="60.47" r="0.9" stroke="#40655E" fill="#A6CFC6"/>
          <circle cx="66.9" cy="54.56" r="0.9" stroke="#41655E" fill="#A7CEC6"/>
          <circle cx="92.77" cy="43.75" r="0.9" stroke="#41655E" fill="#A8CEC6"/>
          <circle cx="57.23" cy="55.72" r="0.9" stroke="#42655E" fill="#A8CEC6"/>
          <circle cx="117.81" cy="33.13" r="0.9" stroke="#42655E" fill="#A9CEC6"/>
          <circle cx="74.05" cy="55.29" r="0.9" stroke="#43655D" fill="#A9CEC5"/>
          <circle cx="86.12" cy="42.85" r="0.9" stroke="#43655D" fill="#AACEC5"/>
          <circle cx="78.73" cy="49.18" r="0.9" stroke="#44655D" fill="#AACEC5"/>
          <circle cx="71.24" cy="55" r="0.9" stroke="#44655D" fill="#AACEC5"/>
          <circle cx="66.66" cy="60.77" r="0.9" stroke="#45645D" fill="#ABCEC5"/>
          <circle cx="94.03" cy="50.8" r="0.9" stroke="#45645C" fill="#ABCEC4"/>
          <circle cx="79.07" cy="53.91" r="0.9" stroke="#46645C" fill="#ACCEC4"/>
          <circle cx="51.86" cy="59.19" r="0.9" stroke="#46645C" fill="#ACCDC4"/>
          <circle cx="51.86" cy="59.19" r="0.9" stroke="#47645C" fill="#ADCDC4"/>
          <circle cx="51.86" cy="59.19" r="0.9" stroke="#47645C" fill="#ADCDC4"/>
          <circle cx="84.63" cy="46.04" r="0.9" stroke="#48645C" fill="#AECDC3"/>
          <circle cx="74.39" cy="51.9" r="0.9" stroke="#48645C" fill="#AECDC3"/>
          <circle cx="77.73" cy="51.39" r="0.9" stroke="#49645B" fill="#AFCDC3"/>
          <circle cx="67.22" cy="56.7" r="0.9" stroke="#49645B" fill="#AFCDC3"/>
          <circle cx="76.69" cy="49.87" r="0.9" stroke="#4A645B" fill="#B0CDC3"/>
          <circle cx="76.69" cy="49.87" r="0.9" stroke="#4A645B" fill="#B0CDC3"/>
          <circle cx="45.06" cy="61.77" r="0.9" stroke="#4B645B" fill="#B1CDC3"/>
          <circle cx="67.7" cy="48.39" r="0.9" stroke="#4B635B" fill="#B1CCC2"/>
          <circle cx="51.1" cy="51.32" r="0.9" stroke="#4B635B" fill="#B2CCC2"/>
          <circle cx="51.1" cy="51.32" r="0.9" stroke="#4C635B" fill="#B2CCC2"/>
          <circle cx="76.83" cy="36.65" r="0.9" stroke="#4C635B" fill="#B2CCC2"/>
          <circle cx="76.83" cy="36.65" r="0.9" stroke="#4D635A" fill="#B3CCC2"/>
          <circle cx="76.83" cy="36.65" r="0.9" stroke="#4D635A" fill="#B3CCC2"/>
          <circle cx="76.83" cy="36.65" r="0.9" stroke="#4D635A" fill="#B4CCC2"/>
          <circle cx="43.72" cy="48.58" r="0.9" stroke="#4E635A" fill="#B4CCC2"/>
          <circle cx="75.48" cy="35.53" r="0.9" stroke="#4E635A" fill="#B5CCC2"/>
          <circle cx="41.09" cy="56.85" r="0.9" stroke="#4E635A" fill="#B5CCC1"/>
          <circle cx="98.64" cy="31.94" r="0.9" stroke="#4F635A" fill="#B5CCC1"/>
          <circle cx="64.08" cy="52.53" r="0.9" stroke="#4F635A" fill="#B5CCC1"/>
          <circle cx="117.21" cy="29.95" r="0.9" stroke="#4F635A" fill="#B5CCC1"/>
          <circle cx="77.17" cy="48.73" r="0.9" stroke="#4F6359" fill="#B5CCC1"/>
          <circle cx="84.81" cy="44.43" r="0.9" stroke="#4F6359" fill="#B5CCC1"/>
          <circle cx="18.36" cy="74.2" r="0.9" stroke="#4F6359" fill="#B5CCC1"/>
          <circle cx="110.5" cy="43.23" r="0.9" stroke="#4F6359" fill="#B6CCC0"/>
          <circle cx="84.65" cy="52.75" r="0.9" stroke="#4F6359" fill="#B6CCC0"/>
          <circle cx="92.54" cy="45.26" r="0.9" stroke="#4F6359" fill="#B6CBC0"/>
          <circle cx="103.08" cy="41.43" r="0.9" stroke="#506359" fill="#B6CBC0"/>
          <circle cx="71.72" cy="53.18" r="0.9" stroke="#506359" fill="#B6CBC0"/>
          <circle cx="70.3" cy="55.36" r="0.9" stroke="#506358" fill="#B6CBC0"/>
          <circle cx="89.88" cy="45.69" r="0.9" stroke="#506358" fill="#B6CBBF"/>
          <circle cx="99.69" cy="37.23" r="0.9" stroke="#506358" fill="#B7CBBF"/>
          <circle cx="70.96" cy="50.89" r="0.9" stroke="#506358" fill="#B7CBBF"/>
          <circle cx="82.54" cy="41.9" r="0.9" stroke="#506258" fill="#B7CBBF"/>
          <circle cx="71.82" cy="49.82" r="0.9" stroke="#516258" fill="#B7CBBF"/>
          <circle cx="80.92" cy="45.99" r="0.9" stroke="#516258" fill="#B7CBBF"/>
          <circle cx="91" cy="35.15" r="0.9" stroke="#516257" fill="#B7CBBF"/>
          <circle cx="51.52" cy="55.22" r="0.9" stroke="#516257" fill="#B7CBBE"/>
          <circle cx="51.52" cy="55.22" r="0.9" stroke="#516257" fill="#B8CBBE"/>
          <circle cx="81" cy="42.39" r="0.9" stroke="#516257" fill="#B8CBBE"/>
          <circle cx="56.44" cy="54.05" r="0.9" stroke="#516257" fill="#B8CBBE"/>
          <circle cx="56.44" cy="54.05" r="0.9" stroke="#516257" fill="#B8CBBE"/>
          <circle cx="56.44" cy="54.05" r="0.9" stroke="#526257" fill="#B8CBBE"/>
          <circle cx="56.44" cy="54.05" r="0.9" stroke="#526257" fill="#B8CBBE"/>
          <circle cx="65.68" cy="46.86" r="0.9" stroke="#526256" fill="#B9CBBD"/>
          <circle cx="51.35" cy="48.75" r="0.9" stroke="#526256" fill="#B9CBBD"/>
          <circle cx="39.51" cy="54.49" r="0.9" stroke="#526256" fill="#B9CBBD"/>
          <circle cx="61.23" cy="49.02" r="0.9" stroke="#526256" fill="#B9CBBD"/>
          <circle cx="79.02" cy="48.91" r="0.9" stroke="#526256" fill="#B9CBBD"/>
          <circle cx="108.53" cy="41.36" r="0.9" stroke="#536256" fill="#B9CBBD"/>
          <circle cx="71.9" cy="59.76" r="0.9" stroke="#536256" fill="#B9CBBD"/>
          <circle cx="116.14" cy="35.74" r="0.9" stroke="#536256" fill="#BACBBC"/>
          <circle cx="63.92" cy="62.11" r="0.9" stroke="#536255" fill="#BACBBC"/>
          <circle cx="91.63" cy="49.84" r="0.9" stroke="#536255" fill="#BACBBC"/>
          <circle cx="66.69" cy="54.73" r="0.9" stroke="#536255" fill="#BACBBC"/>
          <circle cx="48.42" cy="57.82" r="0.9" stroke="#536255" fill="#BACBBC"/>
          <circle cx="90.98" cy="36.63" r="0.9" stroke="#546255" fill="#BACBBC"/>
          <circle cx="35.36" cy="61.56" r="0.9" stroke="#546255" fill="#BBCBBC"/>
          <circle cx="35.36" cy="61.56" r="0.9" stroke="#546255" fill="#BBCBBC"/>
          <circle cx="99.69" cy="32.85" r="0.9" stroke="#546255" fill="#BBCBBB"/>
          <circle cx="69.3" cy="40.82" r="0.9" stroke="#546255" fill="#BBCBBB"/>
          <circle cx="76.3" cy="40.83" r="0.9" stroke="#546254" fill="#BBCBBB"/>
          <circle cx="71" cy="40.81" r="0.9" stroke="#556254" fill="#BBCABB"/>
          <circle cx="41.18" cy="58.56" r="0.9" stroke="#556254" fill="#BCCABB"/>
          <circle cx="82.65" cy="42.18" r="0.9" stroke="#556254" fill="#BCCABB"/>
          <circle cx="75.15" cy="38.93" r="0.9" stroke="#556254" fill="#BCCABB"/>
          <circle cx="29.78" cy="63.82" r="0.9" stroke="#556254" fill="#BCCABA"/>
          <circle cx="45.38" cy="60.39" r="0.9" stroke="#556254" fill="#BCCABA"/>
          <circle cx="65.22" cy="55.34" r="0.9" stroke="#556254" fill="#BCCABA"/>
          <circle cx="86.78" cy="40.53" r="0.9" stroke="#566254" fill="#BDCABA"/>
          <circle cx="59.65" cy="46.51" r="0.9" stroke="#566253" fill="#BDCABA"/>
          <circle cx="70.77" cy="46.5" r="0.9" stroke="#566253" fill="#BDCABA"/>
          <circle cx="104.02" cy="29.04" r="0.9" stroke="#566253" fill="#BDCABA"/>
          <circle cx="70.42" cy="42.88" r="0.9" stroke="#566153" fill="#BDCABA"/>
          <circle cx="61.7" cy="45.45" r="0.9" stroke="#566153" fill="#BDCABA"/>
          <circle cx="65.43" cy="46.78" r="0.9" stroke="#566153" fill="#BECAB9"/>
          <circle cx="65.43" cy="46.78" r="0.9" stroke="#576153" fill="#BECAB9"/>
          <circle cx="76.44" cy="37.8" r="0.9" stroke="#576153" fill="#BECAB9"/>
          <circle cx="69.35" cy="43.4" r="0.9" stroke="#576153" fill="#BECAB9"/>
          <circle cx="95.16" cy="35.58" r="0.9" stroke="#576153" fill="#BECAB9"/>
          <circle cx="47.77" cy="58.53" r="0.9" stroke="#576152" fill="#BFCAB9"/>
          <circle cx="85.29" cy="41.93" r="0.9" stroke="#576152" fill="#BFCAB9"/>
          <circle cx="59.84" cy="52" r="0.9" stroke="#586152" fill="#BFCAB9"/>
          <circle cx="63.92" cy="53.72" r="0.9" stroke="#586152" fill="#BFCAB9"/>
          <circle cx="90.29" cy="39.42" r="0.9" stroke="#586152" fill="#BFCAB8"/>
          <circle cx="58.74" cy="58.29" r="0.9" stroke="#586152" fill="#BFCAB8"/>
          <circle cx="83.49" cy="47.39" r="0.9" stroke="#586152" fill="#C0CAB8"/>
          <circle cx="70.24" cy="50.27" r="0.9" stroke="#586152" fill="#C0CAB8"/>
          <circle cx="58.51" cy="50.96" r="0.9" stroke="#596152" fill="#C0CAB8"/>
          <circle cx="62.25" cy="47.19" r="0.9" stroke="#596152" fill="#C0C9B8"/>
          <circle cx="78.23" cy="42.83" r="0.9" stroke="#596151" fill="#C0C9B8"/>
          <circle cx="83.33" cy="34.93" r="0.9" stroke="#596151" fill="#C1C9B8"/>
          <circle cx="52.98" cy="51.06" r="0.9" stroke="#596151" fill="#C1C9B8"/>
          <circle cx="68.97" cy="48.8" r="0.9" stroke="#596151" fill="#C1C9B7"/>
          <circle cx="98.61" cy="37.86" r="0.9" stroke="#596151" fill="#C1C9B7"/>
          <circle cx="98.61" cy="37.86" r="0.9" stroke="#5A6151" fill="#C1C9B7"/>
          <circle cx="70.16" cy="49" r="0.9" stroke="#5A6151" fill="#C1C9B7"/>
          <circle cx="57.44" cy="53.23" r="0.9" stroke="#5A6151" fill="#C2C9B7"/>
          <circle cx="94.63" cy="43.97" r="0.9" stroke="#5A6151" fill="#C2C9B7"/>
          <circle cx="62.94" cy="61.75" r="0.9" stroke="#5A6151" fill="#C2C9B7"/>
          <circle cx="100.23" cy="47.8" r="0.9" stroke="#5A6151" fill="#C2C9B7"/>
          <circle cx="68.3" cy="63.75" r="0.9" stroke="#5B6151" fill="#C2C9B7"/>
          <circle cx="112.2" cy="41.21" r="0.9" stroke="#5B6051" fill="#C3C9B7"/>
          <circle cx="80.49" cy="49.56" r="0.9" stroke="#5B6050" fill="#C3C9B7"/>
          <circle cx="120.59" cy="32.12" r="0.9" stroke="#5B6050" fill="#C3C9B6"/>
          <circle cx="47.2" cy="60.47" r="0.9" stroke="#5B6050" fill="#C3C9B6"/>
          <circle cx="83.26" cy="45.34" r="0.9" stroke="#5B6050" fill="#C3C9B6"/>
          <circle cx="50.1" cy="59.01" r="0.9" stroke="#5C6050" fill="#C3C9B6"/>
          <circle cx="80.28" cy="45.94" r="0.9" stroke="#5C6050" fill="#C4C9B6"/>
          <circle cx="25.47" cy="65.63" r="0.9" stroke="#5C6050" fill="#C4C9B6"/>
          <circle cx="113.61" cy="28.41" r="0.9" stroke="#5C6050" fill="#C4C9B6"/>
          <circle cx="95.3" cy="34.9" r="0.9" stroke="#5C6050" fill="#C4C9B6"/>
          <circle cx="76.23" cy="47.55" r="0.9" stroke="#5C6050" fill="#C4C8B6"/>
          <circle cx="68.6" cy="52.62" r="0.9" stroke="#5C6050" fill="#C5C8B6"/>
          <circle cx="68.6" cy="52.62" r="0.9" stroke="#5D6050" fill="#C5C8B6"/>
          <circle cx="75.15" cy="42.9" r="0.9" stroke="#5D6050" fill="#C5C8B6"/>
          <circle cx="58.64" cy="52.56" r="0.9" stroke="#5D6050" fill="#C5C8B6"/>
          <circle cx="86.46" cy="41.53" r="0.9" stroke="#5D6050" fill="#C5C8B6"/>
          <circle cx="86.46" cy="41.53" r="0.9" stroke="#5D604F" fill="#C5C8B5"/>
          <circle cx="53.28" cy="59.25" r="0.9" stroke="#5D604F" fill="#C6C8B5"/>
          <circle cx="49.22" cy="51.08" r="0.9" stroke="#5E604F" fill="#C6C8B5"/>
          <circle cx="31.69" cy="58.43" r="0.9" stroke="#5E604F" fill="#C6C8B5"/>
          <circle cx="31.69" cy="58.43" r="0.9" stroke="#5E604F" fill="#C6C8B5"/>
          <circle cx="31.69" cy="58.43" r="0.9" stroke="#5E604F" fill="#C6C8B5"/>
          <circle cx="31.69" cy="58.43" r="0.9" stroke="#5E604F" fill="#C7C8B5"/>
          <circle cx="76.86" cy="41.14" r="0.9" stroke="#5E604F" fill="#C7C8B5"/>
          <circle cx="86.02" cy="40.98" r="0.9" stroke="#5F604F" fill="#C7C8B5"/>
          <circle cx="51.62" cy="48.17" r="0.9" stroke="#5F5F4F" fill="#C7C8B5"/>
          <circle cx="51.62" cy="48.17" r="0.9" stroke="#5F5F4F" fill="#C7C8B5"/>
          <circle cx="44.32" cy="55.65" r="0.9" stroke="#5F5F4F" fill="#C7C8B5"/>
          <circle cx="91.34" cy="41.12" r="0.9" stroke="#5F5F4F" fill="#C8C8B5"/>
          <circle cx="90.26" cy="46.03" r="0.9" stroke="#5F5F4F" fill="#C8C8B5"/>
          <circle cx="76.26" cy="52.49" r="0.9" stroke="#5F5F4F" fill="#C8C8B5"/>
          <circle cx="76.26" cy="52.49" r="0.9" stroke="#605F4F" fill="#C8C7B5"/>
          <circle cx="60.52" cy="59.2" r="0.9" stroke="#605F4F" fill="#C8C7B5"/>
          <circle cx="92.92" cy="45.55" r="0.9" stroke="#605F4F" fill="#C9C7B5"/>
          <circle cx="85.67" cy="44.46" r="0.9" stroke="#605F4F" fill="#C9C7B4"/>
          <circle cx="65.12" cy="47.68" r="0.9" stroke="#605F4F" fill="#C9C7B4"/>
          <circle cx="81.24" cy="42.06" r="0.9" stroke="#605F4F" fill="#C9C7B4"/>
          <circle cx="81.3" cy="41.96" r="0.9" stroke="#615F4E" fill="#C9C7B4"/>
          <circle cx="77.87" cy="49.73" r="0.9" stroke="#615F4E" fill="#C9C7B4"/>
          <circle cx="77.87" cy="49.73" r="0.9" stroke="#615F4E" fill="#CAC7B4"/>
          <circle cx="77.87" cy="49.73" r="0.9" stroke="#615F4E" fill="#CAC7B4"/>
          <circle cx="72.52" cy="55.66" r="0.9" stroke="#615F4E" fill="#CAC7B4"/>
          <circle cx="54.83" cy="56.83" r="0.9" stroke="#615F4E" fill="#CAC7B3"/>
          <circle cx="81.8" cy="47.66" r="0.9" stroke="#625F4D" fill="#CBC7B3"/>
          <circle cx="64.02" cy="49.62" r="0.9" stroke="#625F4D" fill="#CBC7B3"/>
          <circle cx="95.04" cy="37.82" r="0.9" stroke="#625F4D" fill="#CBC7B2"/>
          <circle cx="79.92" cy="47.12" r="0.9" stroke="#625F4C" fill="#CBC7B2"/>
          <circle cx="68.55" cy="52.94" r="0.9" stroke="#625F4C" fill="#CCC7B2"/>
          <circle cx="79.17" cy="48.29" r="0.9" stroke="#635F4C" fill="#CCC7B1"/>
          <circle cx="59.34" cy="54.28" r="0.9" stroke="#635E4C" fill="#CCC7B1"/>
          <circle cx="96.52" cy="34.55" r="0.9" stroke="#635E4B" fill="#CCC7B1"/>
          <circle cx="40.05" cy="56.45" r="0.9" stroke="#635E4B" fill="#CDC6B0"/>
          <circle cx="72.57" cy="47.04" r="0.9" stroke="#645E4B" fill="#CDC6B0"/>
          <circle cx="70.72" cy="38.25" r="0.9" stroke="#645E4A" fill="#CDC6B0"/>
          <circle cx="70.72" cy="38.25" r="0.9" stroke="#645E4A" fill="#CDC6AF"/>
          <circle cx="63.78" cy="48.86" r="0.9" stroke="#645E4A" fill="#CEC6AF"/>
          <circle cx="63.78" cy="48.86" r="0.9" stroke="#645E4A" fill="#CEC6AF"/>
          <circle cx="53.28" cy="55.9" r="0.9" stroke="#655E49" fill="#CEC6AF"/>
          <circle cx="84.12" cy="43.75" r="0.9" stroke="#655E49" fill="#CFC6AE"/>
          <circle cx="81.55" cy="38.83" r="0.9" stroke="#655E49" fill="#CFC6AE"/>
          <circle cx="88.32" cy="35.95" r="0.9" stroke="#655E49" fill="#CFC6AE"/>
          <circle cx="99.64" cy="33.06" r="0.9" stroke="#665E48" fill="#D0C6AD"/>
          <circle cx="54.05" cy="52.54" r="0.9" stroke="#665E48" fill="#D0C6AD"/>
          <circle cx="81.23" cy="40.7" r="0.9" stroke="#665E48" fill="#D0C6AD"/>
          <circle cx="53.55" cy="55.21" r="0.9" stroke="#665E47" fill="#D1C6AC"/>
          <circle cx="75.21" cy="45.68" r="0.9" stroke="#675E47" fill="#D1C5AC"/>
          <circle cx="71.53" cy="47.7" r="0.9" stroke="#675D47" fill="#D1C5AC"/>
          <circle cx="87.86" cy="40.55" r="0.9" stroke="#675D47" fill="#D2C5AB"/>
          <circle cx="37.45" cy="62.01" r="0.9" stroke="#685D46" fill="#D2C5AB"/>
          <circle cx="80.83" cy="41.9" r="0.9" stroke="#685D46" fill="#D2C5AB"/>
          <circle cx="92.3" cy="42.36" r="0.9" stroke="#685D46" fill="#D3C5AB"/>
          <circle cx="57.88" cy="53.55" r="0.9" stroke="#685D46" fill="#D3C5AA"/>
          <circle cx="57.88" cy="53.55" r="0.9" stroke="#695D45" fill="#D3C5AA"/>
          <circle cx="80.93" cy="37.61" r="0.9" stroke="#695D45" fill="#D4C5AA"/>
          <circle cx="80.93" cy="37.61" r="0.9" stroke="#695D45" fill="#D4C5AA"/>
          <circle cx="71.79" cy="46.36" r="0.9" stroke="#6A5D45" fill="#D4C5A9"/>
          <circle cx="67.83" cy="45.9" r="0.9" stroke="#6A5D44" fill="#D5C4A9"/>
          <circle cx="62.95" cy="51.11" r="0.9" stroke="#6A5D44" fill="#D5C4A9"/>
          <circle cx="54.57" cy="58.92" r="0.9" stroke="#6A5C44" fill="#D6C4A8"/>
          <circle cx="84.96" cy="41.62" r="0.9" stroke="#6B5C44" fill="#D6C4A8"/>
          <circle cx="49.68" cy="55.75" r="0.9" stroke="#6B5C44" fill="#D6C4A8"/>
          <circle cx="101.95" cy="35.05" r="0.9" stroke="#6B5C43" fill="#D7C4A8"/>
          <circle cx="47.74" cy="61.08" r="0.9" stroke="#6C5C43" fill="#D7C4A7"/>
          <circle cx="47.74" cy="61.08" r="0.9" stroke="#6C5C43" fill="#D8C4A7"/>
          <circle cx="81.59" cy="48.92" r="0.9" stroke="#6C5C43" fill="#D8C4A7"/>
          <circle cx="110.86" cy="38.17" r="0.9" stroke="#6C5C42" fill="#D8C3A6"/>
          <circle cx="58.52" cy="60.08" r="0.9" stroke="#6C5B41" fill="#D8C2A5"/>
          <circle cx="89.05" cy="46.94" r="0.9" stroke="#6C5A41" fill="#D7C2A5"/>
          <circle cx="85.46" cy="46.83" r="0.9" stroke="#6B5940" fill="#D7C1A4"/>
          <circle cx="116.77" cy="30.79" r="0.9" stroke="#6B593F" fill="#D7C0A3"/>
          <circle cx="52.21" cy="60.74" r="0.9" stroke="#6B583E" fill="#D6BFA2"/>
          <circle cx="69.12" cy="50.34" r="0.9" stroke="#6A573D" fill="#D6BEA1"/>
          <circle cx="106.45" cy="34.3" r="0.9" stroke="#6A563C" fill="#D5BDA0"/>
          <circle cx="106.45" cy="34.3" r="0.9" stroke="#69553C" fill="#D5BC9F"/>
          <circle cx="70.7" cy="51.33" r="0.9" stroke="#69553B" fill="#D5BB9E"/>
          <circle cx="83.25" cy="46.02" r="0.9" stroke="#69543A" fill="#D4BA9D"/>
          <circle cx="47.94" cy="62.93" r="0.9" stroke="#685339" fill="#D4B99C"/>
          <circle cx="53.53" cy="55.02" r="0.9" stroke="#685238" fill="#D3B89B"/>
          <circle cx="81.2" cy="45.89" r="0.9" stroke="#675137" fill="#D3B79A"/>
          <circle cx="51.77" cy="60.8" r="0.9" stroke="#675137" fill="#D3B799"/>
          <circle cx="71.16" cy="46.91" r="0.9" stroke="#665036" fill="#D2B698"/>
          <circle cx="75.66" cy="46.68" r="0.9" stroke="#664F35" fill="#D2B597"/>
          <circle cx="75.66" cy="46.68" r="0.9" stroke="#664E34" fill="#D1B496"/>
          <circle cx="75.66" cy="46.68" r="0.9" stroke="#654D33" fill="#D1B395"/>
          <circle cx="100.37" cy="34.39" r="0.9" stroke="#654C32" fill="#D0B294"/>
          <circle cx="36.32" cy="65.39" r="0.9" stroke="#644C32" fill="#D0B193"/>
          <circle cx="79.58" cy="43.58" r="0.9" stroke="#644B31" fill="#D0B092"/>
          <circle cx="57.47" cy="52.39" r="0.9" stroke="#644A30" fill="#CFAF91"/>
          <circle cx="86.43" cy="40.28" r="0.9" stroke="#63492F" fill="#CFAE90"/>
          <circle cx="95.75" cy="43.09" r="0.9" stroke="#63482E" fill="#CEAD8F"/>
          <circle cx="78.42" cy="52.84" r="0.9" stroke="#62472E" fill="#CEAC8E"/>
          <circle cx="61.53" cy="55.51" r="0.9" stroke="#62472D" fill="#CDAB8D"/>
          <circle cx="102.63" cy="38.71" r="0.9" stroke="#61462C" fill="#CDAA8C"/>
          <circle cx="102.63" cy="38.71" r="0.9" stroke="#61452B" fill="#CCA98C"/>
          <circle cx="102.63" cy="38.71" r="0.9" stroke="#60442B" fill="#CCA88B"/>
          <circle cx="93.01" cy="42.27" r="0.9" stroke="#60432A" fill="#CCA78A"/>
          <circle cx="93.01" cy="42.27" r="0.9" stroke="#5F4229" fill="#CBA689"/>
          <circle cx="63.1" cy="59.83" r="0.9" stroke="#5F4128" fill="#CBA588"/>
          <circle cx="82.29" cy="51.48" r="0.9" stroke="#5F4027" fill="#CAA487"/>
          <circle cx="58.06" cy="62.27" r="0.9" stroke="#5E4027" fill="#CAA386"/>
          <circle cx="98.97" cy="46.26" r="0.9" stroke="#5E3F26" fill="#C9A285"/>
          <circle cx="98.97" cy="46.26" r="0.9" stroke="#5D3E25" fill="#C9A184"/>
          <circle cx="75.2" cy="58.16" r="0.9" stroke="#5D3D24" fill="#C8A083"/>
          <circle cx="89.08" cy="51.14" r="0.9" stroke="#5C3C24" fill="#C89F82"/>
          <circle cx="81.71" cy="49.01" r="0.9" stroke="#5C3B23" fill="#C79E82"/>
          <circle cx="88.76" cy="45.59" r="0.9" stroke="#5B3A22" fill="#C79D81"/>
          <circle cx="59.74" cy="56.48" r="0.9" stroke="#5B3921" fill="#C69C80"/>
          <circle cx="120.53" cy="28.87" r="0.9" stroke="#5A3821" fill="#C69B7F"/>
          <circle cx="32.58" cy="67.36" r="0.9" stroke="#5A3820" fill="#C59A7E"/>
          <circle cx="69.06" cy="50.8" r="0.9" stroke="#59371F" fill="#C5997D"/>
          <circle cx="70.56" cy="49.01" r="0.9" stroke="#59361F" fill="#C4987C"/>
          <circle cx="55.45" cy="54.39" r="0.9" stroke="#58351E" fill="#C4977B"/>
          <circle cx="82.29" cy="37.99" r="0.9" stroke="#58341D" fill="#C3967B"/>
          <circle cx="47.14" cy="53.22" r="0.9" stroke="#57331C" fill="#C3957A"/>
          <circle cx="77.48" cy="44.19" r="0.9" stroke="#57321C" fill="#C29379"/>
          <circle cx="63.38" cy="54.6" r="0.9" stroke="#56311B" fill="#C29278"/>
          <circle cx="63.38" cy="54.6" r="0.9" stroke="#56301A" fill="#C19177"/>
          <circle cx="87.48" cy="43.81" r="0.9" stroke="#552F1A" fill="#C19076"/>
          <circle cx="87.48" cy="43.81" r="0.9" stroke="#542E19" fill="#C08F75"/>
          <circle cx="87.48" cy="43.81" r="0.9" stroke="#542D18" fill="#C08E75"/>
          <circle cx="72.65" cy="54.96" r="0.9" stroke="#532D18" fill="#BF8D74"/>
          <circle cx="84.53" cy="48.27" r="0.9" stroke="#532C17" fill="#BF8C73"/>
          <circle cx="45.86" cy="61.23" r="0.9" stroke="#522B16" fill="#BE8B72"/>
          <circle cx="83.24" cy="49" r="0.9" stroke="#522A16" fill="#BE8A71"/>
          <circle cx="102.73" cy="43.62" r="0.9" stroke="#512915" fill="#BD8970"/>
          <circle cx="67.35" cy="55.28" r="0.9" stroke="#512814" fill="#BC8870"/>
          <circle cx="67.35" cy="55.28" r="0.9" stroke="#502714" fill="#BC876F"/>
          <circle cx="45.27" cy="67.45" r="0.9" stroke="#4F2613" fill="#BB856E"/>
          <circle cx="92.22" cy="43.75" r="0.9" stroke="#4F2513" fill="#BB846D"/>
          <circle cx="72.24" cy="52.72" r="0.9" stroke="#4E2412" fill="#BA836C"/>
          <circle cx="104.61" cy="37.98" r="0.9" stroke="#4E2311" fill="#BA826C"/>
          <circle cx="75.52" cy="48.43" r="0.9" stroke="#4D2211" fill="#B9816B"/>
          <circle cx="75.52" cy="48.43" r="0.9" stroke="#4C2110" fill="#B8806A"/>
          <circle cx="74.99" cy="45.7" r="0.9" stroke="#4C200F" fill="#B87F69"/>
          <circle cx="44.35" cy="54.52" r="0.9" stroke="#4B1F0F" fill="#B77E69"/>
          <circle cx="78.65" cy="39.97" r="0.9" stroke="#4B1E0E" fill="#B77D68"/>
          <circle cx="78.65" cy="39.97" r="0.9" stroke="#4A1D0D" fill="#B67B67"/>
          <circle cx="48.46" cy="53.19" r="0.9" stroke="#4A1C0C" fill="#B57A66"/>
          <circle cx="67.38" cy="46.71" r="0.9" stroke="#491B0B" fill="#B57966"/>
          <circle cx="67.35" cy="47.65" r="0.9" stroke="#481A0A" fill="#B47865"/>
          <circle cx="40.6" cy="59.41" r="0.9" stroke="#481909" fill="#B47764"/>
          <circle cx="88.05" cy="39.05" r="0.9" stroke="#471808" fill="#B37663"/>
          <circle cx="75.11" cy="49.77" r="0.9" stroke="#471707" fill="#B27563"/>
          <circle cx="67.47" cy="51.9" r="0.9" stroke="#461506" fill="#B27462"/>
          <circle cx="78.95" cy="47.12" r="0.9" stroke="#451405" fill="#B17261"/>
          <circle cx="107.22" cy="37.44" r="0.9" stroke="#451304" fill="#B07161"/>
          <circle cx="85.8" cy="48.8" r="0.9" stroke="#441203" fill="#B07060"/>
          <circle cx="85.8" cy="48.8" r="0.9" stroke="#431102" fill="#AF6F5F"/>
          <circle cx="85.8" cy="48.8" r="0.9" stroke="#431001" fill="#AE6E5E"/>
          <circle cx="87.89" cy="41.74" r="0.9" stroke="#420E00" fill="#AE6D5E"/>
          <circle cx="73.43" cy="44.6" r="0.9" stroke="#420D00" fill="#AD6C5D"/>
          <circle cx="68.42" cy="45.65" r="0.9" stroke="#410C00" fill="#AC6A5C"/>
          <circle cx="46.92" cy="57.22" r="0.9" stroke="#400A00" fill="#AC695C"/>
          <circle cx="87.99" cy="33.08" r="0.9" stroke="#400900" fill="#AB685B"/>
          <circle cx="87.99" cy="33.08" r="0.9" stroke="#3F0800" fill="#AA675A"/>
          <circle cx="50.33" cy="51.07" r="0.9" stroke="#3F0600" fill="#AA665A"/>
          <circle cx="85.39" cy="39.43" r="0.9" stroke="#3E0500" fill="#A96559"/>
          <circle cx="58.52" cy="49.58" r="0.9" stroke="#3D0400" fill="#A86358"/>
          <circle cx="58.3" cy="53.28" r="0.9" stroke="#3D0300" fill="#A76258"/>
          <circle cx="76.51" cy="50.22" r="0.9" stroke="#3C0200" fill="#A76157"/>
          <circle cx="78.54" cy="50.61" r="0.9" stroke="#3B0100" fill="#A66056"/>
          <circle cx="98.15" cy="42.1" r="0.9" stroke="#3B0000" fill="#A55F56"/>
          <circle cx="71.63" cy="50.52" r="0.9" stroke="#3A0000" fill="#A45E55"/>
          <circle cx="76.97" cy="43.33" r="0.9" stroke="#3A0000" fill="#A45C54"/>
          <circle cx="69.95" cy="47.14" r="0.9" stroke="#390000" fill="#A35B54"/>
          <circle cx="73.53" cy="44.98" r="0.9" stroke="#380000" fill="#A25A53"/>
          <circle cx="74.71" cy="42.99" r="0.9" stroke="#380000" fill="#A15953"/>
          <circle cx="56.27" cy="49.95" r="0.9" stroke="#370000" fill="#A15852"/>
          <circle cx="85.85" cy="44.89" r="0.9" stroke="#370000" fill="#A05751"/>
          <circle cx="58.85" cy="51.76" r="0.9" stroke="#360000" fill="#9F5551"/>
          <circle cx="91.22" cy="36.43" r="0.9" stroke="#360000" fill="#9E5450"/>
          <circle cx="77.92" cy="41.74" r="0.9" stroke="#350000" fill="#9E5350"/>
          <circle cx="72.43" cy="48.06" r="0.9" stroke="#350000" fill="#9D524F"/>
          <circle cx="65.99" cy="53.28" r="0.9" stroke="#340000" fill="#9C514E"/>
          <circle cx="91.26" cy="38.5" r="0.9" stroke="#340000" fill="#9B4F4E"/>
          <circle cx="67.24" cy="50.1" r="0.9" stroke="#340000" fill="#9A4E4D"/>
          <circle cx="67.24" cy="50.1" r="0.9" stroke="#330000" fill="#9A4D4D"/>
          <circle cx="67.24" cy="50.1" r="0.9" stroke="#330000" fill="#994C4C"/>
          <circle cx="67.24" cy="50.1" r="0.9" stroke="#320000" fill="#984A4C"/>
          <circle cx="62.92" cy="51.7" r="0.9" stroke="#320000" fill="#97494B"/>
          <circle cx="71.58" cy="47.61" r="0.9" stroke="#320000" fill="#96484B"/>
          <circle cx="89.6" cy="36.94" r="0.9" stroke="#320000" fill="#95474A"/>
          <circle cx="61.16" cy="47.53" r="0.9" stroke="#310000" fill="#944649"/>
          <circle cx="44" cy="54.05" r="0.9" stroke="#320000" fill="#944449"/>
          <circle cx="69.08" cy="44.28" r="0.9" stroke="#320000" fill="#934348"/>
          <circle cx="69.08" cy="44.28" r="0.9" stroke="#320000" fill="#924248"/>
          <circle cx="59.88" cy="48.65" r="0.9" stroke="#320000" fill="#914147"/>
          <circle cx="103.12" cy="30.6" r="0.9" stroke="#320000" fill="#903F47"/>
          <circle cx="71.51" cy="48.99" r="0.9" stroke="#320000" fill="#8F3E46"/>
          <circle cx="38.68" cy="55.27" r="0.9" stroke="#320000" fill="#8E3D46"/>
          <circle cx="77.06" cy="39.41" r="0.9" stroke="#320000" fill="#8D3C45"/>
          <circle cx="24.76" cy="63.28" r="0.9" stroke="#320000" fill="#8D3A45"/>
          <circle cx="78.99" cy="37.64" r="0.9" stroke="#320000" fill="#8C3944"/>
          <circle cx="30.79" cy="65.68" r="0.9" stroke="#330000" fill="#8B3844"/>
          <circle cx="109.32" cy="35.45" r="0.9" stroke="#330000" fill="#8A3743"/>
          <circle cx="64.15" cy="51.19" r="0.9" stroke="#330000" fill="#893543"/>
          <circle cx="69.33" cy="50.57" r="0.9" stroke="#330000" fill="#883442"/>
          <circle cx="92.63" cy="37.09" r="0.9" stroke="#330000" fill="#873342"/>
          <circle cx="92.63" cy="37.09" r="0.9" stroke="#330000" fill="#863241"/>
          <circle cx="77.03" cy="41.79" r="0.9" stroke="#330000" fill="#853041"/>
          <circle cx="64.26" cy="53.01" r="0.9" stroke="#330000" fill="#842F40"/>
          <circle cx="66.54" cy="48.83" r="0.9" stroke="#330000" fill="#832E40"/>
          <circle cx="101.12" cy="37.44" r="0.9" stroke="#330000" fill="#822C3F"/>
          <circle cx="63.06" cy="57.85" r="0.9" stroke="#330000" fill="#812B3F"/>
          <circle cx="63.06" cy="57.85" r="0.9" stroke="#330000" fill="#802A3E"/>
          <circle cx="83.46" cy="46.23" r="0.9" stroke="#330000" fill="#7F283E"/>
          <circle cx="83.46" cy="46.23" r="0.9" stroke="#340000" fill="#7E273E"/>
        </g>
      </g>
    </g>
  </g>
  <g class="guide ylabels" font-size="2.82" font-family="'PT Sans Caption','Helvetica Neue','Helvetica',sans-serif" fill="#6C606B" id="fig-a27c39a252a54104b7752ec3e74f98f8-element-17">
    <text x="14.59" y="82.32" text-anchor="end" dy="0.35em">-4</text>
    <text x="14.59" y="65.39" text-anchor="end" dy="0.35em">-2</text>
    <text x="14.59" y="48.46" text-anchor="end" dy="0.35em">0</text>
    <text x="14.59" y="31.54" text-anchor="end" dy="0.35em">2</text>
    <text x="14.59" y="14.61" text-anchor="end" dy="0.35em">4</text>
  </g>
  <g font-size="3.88" font-family="'PT Sans','Helvetica Neue','Helvetica',sans-serif" fill="#564A55" stroke="none" id="fig-a27c39a252a54104b7752ec3e74f98f8-element-18">
    <text x="8.81" y="48.46" text-anchor="end" dy="0.35em">y</text>
  </g>
  <g font-size="3.88" font-family="'PT Sans','Helvetica Neue','Helvetica',sans-serif" fill="#564A55" stroke="none" id="fig-a27c39a252a54104b7752ec3e74f98f8-element-19">
    <text x="74.39" y="10.61" text-anchor="middle">HMC (ϵ = 0.1, L = 25)</text>
  </g>
</g>
<defs>
<clipPath id="fig-a27c39a252a54104b7752ec3e74f98f8-element-10">
  <path d="M15.59,12.61 L 133.18 12.61 133.18 84.32 15.59 84.32" />
</clipPath
></defs>
</svg>
