<?xml version="1.0" encoding="UTF-8"?>
<svg xmlns="http://www.w3.org/2000/svg"
     xmlns:xlink="http://www.w3.org/1999/xlink"
     xmlns:gadfly="http://www.gadflyjl.org/ns"
     version="1.2"
     width="152.4mm" height="101.6mm" viewBox="0 0 152.4 101.6"
     stroke="none"
     fill="#000000"
     stroke-width="0.3"
     font-size="3.88"
>
<g class="plotroot xscalable yscalable" id="fig-a27c39a252a54104b7752ec3e74f98f8-element-1">
  <g font-size="3.88" font-family="'PT Sans','Helvetica Neue','Helvetica',sans-serif" fill="#564A55" stroke="none" id="fig-a27c39a252a54104b7752ec3e74f98f8-element-2">
    <text x="74.39" y="93.6" text-anchor="middle">x</text>
  </g>
  <g class="guide xlabels" font-size="2.82" font-family="'PT Sans Caption','Helvetica Neue','Helvetica',sans-serif" fill="#6C606B" id="fig-a27c39a252a54104b7752ec3e74f98f8-element-3">
    <text x="17.59" y="87.99" text-anchor="middle">-3</text>
    <text x="40.31" y="87.99" text-anchor="middle">-2</text>
    <text x="63.03" y="87.99" text-anchor="middle">-1</text>
    <text x="85.75" y="87.99" text-anchor="middle">0</text>
    <text x="108.46" y="87.99" text-anchor="middle">1</text>
    <text x="131.18" y="87.99" text-anchor="middle">2</text>
  </g>
  <g class="guide colorkey" id="fig-a27c39a252a54104b7752ec3e74f98f8-element-4">
    <g font-size="2.82" font-family="'PT Sans','Helvetica Neue','Helvetica',sans-serif" fill="#4C404B" id="fig-a27c39a252a54104b7752ec3e74f98f8-element-5">
      <text x="137.5" y="65.5" dy="0.35em">100</text>
      <text x="137.5" y="59.24" dy="0.35em">200</text>
      <text x="137.5" y="52.97" dy="0.35em">300</text>
      <text x="137.5" y="71.7" dy="0.35em">1</text>
      <text x="137.5" y="40.45" dy="0.35em">500</text>
      <text x="137.5" y="46.71" dy="0.35em">400</text>
    </g>
    <g shape-rendering="crispEdges" stroke="none" id="fig-a27c39a252a54104b7752ec3e74f98f8-element-6">
      <rect x="135.18" y="70.92" width="1.31" height="0.78" fill="#004D84"/>
      <rect x="135.18" y="70.14" width="1.31" height="0.78" fill="#005B8D"/>
      <rect x="135.18" y="69.36" width="1.31" height="0.78" fill="#006995"/>
      <rect x="135.18" y="68.58" width="1.31" height="0.78" fill="#00769D"/>
      <rect x="135.18" y="67.79" width="1.31" height="0.78" fill="#0083A3"/>
      <rect x="135.18" y="67.01" width="1.31" height="0.78" fill="#278FA9"/>
      <rect x="135.18" y="66.23" width="1.31" height="0.78" fill="#409BAF"/>
      <rect x="135.18" y="65.45" width="1.31" height="0.78" fill="#55A7B5"/>
      <rect x="135.18" y="64.67" width="1.31" height="0.78" fill="#69B2BA"/>
      <rect x="135.18" y="63.89" width="1.31" height="0.78" fill="#7BBCC0"/>
      <rect x="135.18" y="63.11" width="1.31" height="0.78" fill="#8DC6C5"/>
      <rect x="135.18" y="62.33" width="1.31" height="0.78" fill="#9ED0CB"/>
      <rect x="135.18" y="61.54" width="1.31" height="0.78" fill="#A5CFC7"/>
      <rect x="135.18" y="60.76" width="1.31" height="0.78" fill="#ABCEC4"/>
      <rect x="135.18" y="59.98" width="1.31" height="0.78" fill="#B1CCC2"/>
      <rect x="135.18" y="59.2" width="1.31" height="0.78" fill="#B5CCC1"/>
      <rect x="135.18" y="58.42" width="1.31" height="0.78" fill="#B7CBBF"/>
      <rect x="135.18" y="57.64" width="1.31" height="0.78" fill="#B9CBBD"/>
      <rect x="135.18" y="56.86" width="1.31" height="0.78" fill="#BBCBBB"/>
      <rect x="135.18" y="56.07" width="1.31" height="0.78" fill="#BDCABA"/>
      <rect x="135.18" y="55.29" width="1.31" height="0.78" fill="#BFCAB8"/>
      <rect x="135.18" y="54.51" width="1.31" height="0.78" fill="#C2C9B7"/>
      <rect x="135.18" y="53.73" width="1.31" height="0.78" fill="#C4C9B6"/>
      <rect x="135.18" y="52.95" width="1.31" height="0.78" fill="#C6C8B5"/>
      <rect x="135.18" y="52.17" width="1.31" height="0.78" fill="#C9C7B4"/>
      <rect x="135.18" y="51.39" width="1.31" height="0.78" fill="#CCC7B2"/>
      <rect x="135.18" y="50.61" width="1.31" height="0.78" fill="#CFC6AE"/>
      <rect x="135.18" y="49.82" width="1.31" height="0.78" fill="#D4C5AA"/>
      <rect x="135.18" y="49.04" width="1.31" height="0.78" fill="#D8C3A6"/>
      <rect x="135.18" y="48.26" width="1.31" height="0.78" fill="#D3B79A"/>
      <rect x="135.18" y="47.48" width="1.31" height="0.78" fill="#CDAB8E"/>
      <rect x="135.18" y="46.7" width="1.31" height="0.78" fill="#C89E82"/>
      <rect x="135.18" y="45.92" width="1.31" height="0.78" fill="#C19177"/>
      <rect x="135.18" y="45.14" width="1.31" height="0.78" fill="#BA836C"/>
      <rect x="135.18" y="44.36" width="1.31" height="0.78" fill="#B27563"/>
      <rect x="135.18" y="43.57" width="1.31" height="0.78" fill="#AA665A"/>
      <rect x="135.18" y="42.79" width="1.31" height="0.78" fill="#A05752"/>
      <rect x="135.18" y="42.01" width="1.31" height="0.78" fill="#96484A"/>
      <rect x="135.18" y="41.23" width="1.31" height="0.78" fill="#8B3844"/>
      <rect x="135.18" y="40.45" width="1.31" height="0.78" fill="#7E273E"/>
      <g stroke="#FFFFFF" stroke-width="0.2" id="fig-a27c39a252a54104b7752ec3e74f98f8-element-7">
        <path d="M135.18,65.5 L 136.5 65.5" fill="#004D84"/>
        <path d="M135.18,59.24 L 136.5 59.24" fill="#005B8D"/>
        <path d="M135.18,52.97 L 136.5 52.97" fill="#006995"/>
        <path d="M135.18,71.7 L 136.5 71.7" fill="#00769D"/>
        <path d="M135.18,40.45 L 136.5 40.45" fill="#0083A3"/>
        <path d="M135.18,46.71 L 136.5 46.71" fill="#278FA9"/>
      </g>
    </g>
    <g fill="#362A35" font-size="3.88" font-family="'PT Sans','Helvetica Neue','Helvetica',sans-serif" stroke="none" id="fig-a27c39a252a54104b7752ec3e74f98f8-element-8">
      <text x="135.18" y="36.45">Iteration</text>
    </g>
  </g>
  <g clip-path="url(#fig-a27c39a252a54104b7752ec3e74f98f8-element-10)" id="fig-a27c39a252a54104b7752ec3e74f98f8-element-9">
    <g pointer-events="visible" opacity="1" fill="none" stroke="none" class="guide background" id="fig-a27c39a252a54104b7752ec3e74f98f8-element-11">
      <rect x="15.59" y="12.61" width="117.59" height="71.7"/>
    </g>
    <g class="guide ygridlines xfixed" stroke-dasharray="0.5,0.5" stroke-width="0.2" stroke="#D0D0E0" id="fig-a27c39a252a54104b7752ec3e74f98f8-element-12">
      <path d="M15.59,82.32 L 133.18 82.32"/>
      <path d="M15.59,68.77 L 133.18 68.77"/>
      <path d="M15.59,55.23 L 133.18 55.23"/>
      <path d="M15.59,41.69 L 133.18 41.69"/>
      <path d="M15.59,28.15 L 133.18 28.15"/>
      <path d="M15.59,14.61 L 133.18 14.61"/>
    </g>
    <g class="guide xgridlines yfixed" stroke-dasharray="0.5,0.5" stroke-width="0.2" stroke="#D0D0E0" id="fig-a27c39a252a54104b7752ec3e74f98f8-element-13">
      <path d="M17.59,12.61 L 17.59 84.32"/>
      <path d="M40.31,12.61 L 40.31 84.32"/>
      <path d="M63.03,12.61 L 63.03 84.32"/>
      <path d="M85.75,12.61 L 85.75 84.32"/>
      <path d="M108.46,12.61 L 108.46 84.32"/>
      <path d="M131.18,12.61 L 131.18 84.32"/>
    </g>
    <g class="plotpanel" id="fig-a27c39a252a54104b7752ec3e74f98f8-element-14">
      <g class="geometry" id="fig-a27c39a252a54104b7752ec3e74f98f8-element-15">
        <g stroke-width="0.3" id="fig-a27c39a252a54104b7752ec3e74f98f8-element-16">
          <circle cx="89.6" cy="38.92" r="0.9" stroke="#000337" fill="#004D84"/>
          <circle cx="88.92" cy="37.07" r="0.9" stroke="#000436" fill="#004E85"/>
          <circle cx="89.52" cy="37.69" r="0.9" stroke="#000436" fill="#004F86"/>
          <circle cx="98.26" cy="40.03" r="0.9" stroke="#000436" fill="#005186"/>
          <circle cx="99.68" cy="36.97" r="0.9" stroke="#000536" fill="#005287"/>
          <circle cx="97.8" cy="42.11" r="0.9" stroke="#000535" fill="#005388"/>
          <circle cx="109.33" cy="40.7" r="0.9" stroke="#000535" fill="#005488"/>
          <circle cx="104.26" cy="36.12" r="0.9" stroke="#000535" fill="#005589"/>
          <circle cx="104.88" cy="35.46" r="0.9" stroke="#000635" fill="#00568A"/>
          <circle cx="106.62" cy="34.19" r="0.9" stroke="#000634" fill="#00578A"/>
          <circle cx="113.61" cy="32.54" r="0.9" stroke="#000634" fill="#00588B"/>
          <circle cx="110.73" cy="29.94" r="0.9" stroke="#000734" fill="#00598C"/>
          <circle cx="110.73" cy="29.94" r="0.9" stroke="#000734" fill="#005A8D"/>
          <circle cx="117.72" cy="28.24" r="0.9" stroke="#000733" fill="#005B8D"/>
          <circle cx="117.87" cy="28.67" r="0.9" stroke="#000733" fill="#005C8E"/>
          <circle cx="115.75" cy="24.31" r="0.9" stroke="#000833" fill="#005D8E"/>
          <circle cx="114.88" cy="22.69" r="0.9" stroke="#000833" fill="#005E8F"/>
          <circle cx="101.74" cy="27.16" r="0.9" stroke="#000832" fill="#006090"/>
          <circle cx="99.36" cy="26.1" r="0.9" stroke="#000832" fill="#006190"/>
          <circle cx="95.73" cy="27.03" r="0.9" stroke="#000932" fill="#006291"/>
          <circle cx="93.73" cy="31.72" r="0.9" stroke="#000931" fill="#006392"/>
          <circle cx="86.42" cy="37.41" r="0.9" stroke="#000931" fill="#006492"/>
          <circle cx="86.42" cy="37.41" r="0.9" stroke="#000A31" fill="#006593"/>
          <circle cx="91.18" cy="41.15" r="0.9" stroke="#000C32" fill="#006694"/>
          <circle cx="91.18" cy="41.15" r="0.9" stroke="#000D32" fill="#006794"/>
          <circle cx="88.47" cy="37.4" r="0.9" stroke="#000F33" fill="#006895"/>
          <circle cx="89.91" cy="49.04" r="0.9" stroke="#001033" fill="#006995"/>
          <circle cx="89.91" cy="49.04" r="0.9" stroke="#001134" fill="#006A96"/>
          <circle cx="77.14" cy="46.58" r="0.9" stroke="#001234" fill="#006B97"/>
          <circle cx="74.71" cy="45.97" r="0.9" stroke="#001335" fill="#006C97"/>
          <circle cx="77.81" cy="40.5" r="0.9" stroke="#001435" fill="#006D98"/>
          <circle cx="77.81" cy="40.5" r="0.9" stroke="#001536" fill="#006E98"/>
          <circle cx="85.2" cy="44.85" r="0.9" stroke="#001636" fill="#006F99"/>
          <circle cx="89.22" cy="46.79" r="0.9" stroke="#001737" fill="#007099"/>
          <circle cx="89.11" cy="46.63" r="0.9" stroke="#001837" fill="#00719A"/>
          <circle cx="89.11" cy="46.63" r="0.9" stroke="#001938" fill="#00729B"/>
          <circle cx="81.94" cy="44.4" r="0.9" stroke="#001A38" fill="#00739B"/>
          <circle cx="87.25" cy="48.17" r="0.9" stroke="#001A39" fill="#00749C"/>
          <circle cx="86.34" cy="49.13" r="0.9" stroke="#001B39" fill="#00759C"/>
          <circle cx="80.74" cy="50.16" r="0.9" stroke="#001C3A" fill="#00769D"/>
          <circle cx="70.93" cy="55.2" r="0.9" stroke="#001D3A" fill="#00779D"/>
          <circle cx="70.93" cy="55.2" r="0.9" stroke="#001D3B" fill="#00799E"/>
          <circle cx="66.83" cy="54.88" r="0.9" stroke="#001E3B" fill="#007A9E"/>
          <circle cx="58.98" cy="56.11" r="0.9" stroke="#001F3C" fill="#007B9F"/>
          <circle cx="65.56" cy="56.08" r="0.9" stroke="#001F3C" fill="#007CA0"/>
          <circle cx="60.37" cy="55.04" r="0.9" stroke="#00203D" fill="#007DA0"/>
          <circle cx="60.37" cy="55.04" r="0.9" stroke="#00213D" fill="#007EA1"/>
          <circle cx="60.37" cy="55.04" r="0.9" stroke="#00213D" fill="#007FA1"/>
          <circle cx="60.37" cy="55.04" r="0.9" stroke="#00223E" fill="#0080A2"/>
          <circle cx="54.32" cy="56.25" r="0.9" stroke="#00233E" fill="#0081A2"/>
          <circle cx="54.32" cy="56.25" r="0.9" stroke="#00243F" fill="#0082A3"/>
          <circle cx="50.56" cy="61.1" r="0.9" stroke="#00243F" fill="#0083A3"/>
          <circle cx="52.32" cy="56.53" r="0.9" stroke="#002540" fill="#0084A4"/>
          <circle cx="52.32" cy="56.53" r="0.9" stroke="#002640" fill="#0085A4"/>
          <circle cx="51.23" cy="57.39" r="0.9" stroke="#002641" fill="#0486A5"/>
          <circle cx="55.84" cy="58.87" r="0.9" stroke="#002741" fill="#0A87A5"/>
          <circle cx="50.46" cy="64.23" r="0.9" stroke="#002841" fill="#0F88A6"/>
          <circle cx="48.08" cy="63.16" r="0.9" stroke="#002942" fill="#1389A6"/>
          <circle cx="47.27" cy="58.56" r="0.9" stroke="#002A42" fill="#1789A7"/>
          <circle cx="47.49" cy="61.18" r="0.9" stroke="#002A43" fill="#1A8AA7"/>
          <circle cx="51.47" cy="57.33" r="0.9" stroke="#002B43" fill="#1D8BA8"/>
          <circle cx="51.47" cy="57.33" r="0.9" stroke="#002C44" fill="#208CA8"/>
          <circle cx="51.47" cy="57.33" r="0.9" stroke="#002D44" fill="#228DA8"/>
          <circle cx="50.04" cy="62.67" r="0.9" stroke="#002E44" fill="#258EA9"/>
          <circle cx="47.1" cy="68.28" r="0.9" stroke="#002E45" fill="#278FA9"/>
          <circle cx="47.1" cy="68.28" r="0.9" stroke="#002F45" fill="#2990AA"/>
          <circle cx="46.02" cy="70.89" r="0.9" stroke="#003046" fill="#2C91AA"/>
          <circle cx="46.55" cy="67.02" r="0.9" stroke="#003146" fill="#2E92AB"/>
          <circle cx="43.18" cy="67.28" r="0.9" stroke="#003246" fill="#3093AB"/>
          <circle cx="43.18" cy="67.28" r="0.9" stroke="#003247" fill="#3294AC"/>
          <circle cx="43.18" cy="67.28" r="0.9" stroke="#003347" fill="#3495AC"/>
          <circle cx="36.06" cy="65.87" r="0.9" stroke="#003448" fill="#3696AD"/>
          <circle cx="36.06" cy="65.87" r="0.9" stroke="#003548" fill="#3897AD"/>
          <circle cx="35.65" cy="63.58" r="0.9" stroke="#003548" fill="#3A98AE"/>
          <circle cx="31.77" cy="67.42" r="0.9" stroke="#003649" fill="#3B99AE"/>
          <circle cx="30.06" cy="63.92" r="0.9" stroke="#003749" fill="#3D9AAE"/>
          <circle cx="33.9" cy="61.55" r="0.9" stroke="#00384A" fill="#3F9BAF"/>
          <circle cx="36.46" cy="62.06" r="0.9" stroke="#00394A" fill="#419CAF"/>
          <circle cx="41.11" cy="61.3" r="0.9" stroke="#00394A" fill="#429DB0"/>
          <circle cx="43.35" cy="65.6" r="0.9" stroke="#003A4B" fill="#449DB0"/>
          <circle cx="39.88" cy="64.43" r="0.9" stroke="#003B4B" fill="#469EB1"/>
          <circle cx="33.66" cy="65.75" r="0.9" stroke="#003C4C" fill="#489FB1"/>
          <circle cx="30.48" cy="69.38" r="0.9" stroke="#003C4C" fill="#49A0B2"/>
          <circle cx="37.05" cy="71.07" r="0.9" stroke="#003D4C" fill="#4BA1B2"/>
          <circle cx="37.59" cy="70.18" r="0.9" stroke="#003E4D" fill="#4DA2B2"/>
          <circle cx="34.9" cy="74.98" r="0.9" stroke="#003F4D" fill="#4EA3B3"/>
          <circle cx="30.79" cy="77.36" r="0.9" stroke="#00404E" fill="#50A4B3"/>
          <circle cx="31.48" cy="77.46" r="0.9" stroke="#00404E" fill="#51A5B4"/>
          <circle cx="20.43" cy="79.76" r="0.9" stroke="#00414E" fill="#53A6B4"/>
          <circle cx="20.87" cy="74.04" r="0.9" stroke="#00424F" fill="#54A6B5"/>
          <circle cx="27.09" cy="66.41" r="0.9" stroke="#00434F" fill="#56A7B5"/>
          <circle cx="29.02" cy="65.31" r="0.9" stroke="#00434F" fill="#58A8B5"/>
          <circle cx="37.95" cy="60.61" r="0.9" stroke="#004450" fill="#59A9B6"/>
          <circle cx="39.23" cy="58.64" r="0.9" stroke="#004550" fill="#5BAAB6"/>
          <circle cx="38.91" cy="61.38" r="0.9" stroke="#004651" fill="#5CABB7"/>
          <circle cx="40.95" cy="60.25" r="0.9" stroke="#004651" fill="#5EACB7"/>
          <circle cx="42.93" cy="62.7" r="0.9" stroke="#004751" fill="#5FADB8"/>
          <circle cx="44.58" cy="62.33" r="0.9" stroke="#004852" fill="#61ADB8"/>
          <circle cx="43.72" cy="65.01" r="0.9" stroke="#004952" fill="#62AEB8"/>
          <circle cx="47.56" cy="67.03" r="0.9" stroke="#004952" fill="#64AFB9"/>
          <circle cx="55.53" cy="67.82" r="0.9" stroke="#004A53" fill="#65B0B9"/>
          <circle cx="52.25" cy="68.45" r="0.9" stroke="#004B53" fill="#67B1BA"/>
          <circle cx="49.59" cy="63.6" r="0.9" stroke="#004C53" fill="#68B2BA"/>
          <circle cx="46.07" cy="70.43" r="0.9" stroke="#004C54" fill="#6AB3BA"/>
          <circle cx="45.48" cy="66.84" r="0.9" stroke="#004D54" fill="#6BB3BB"/>
          <circle cx="45.48" cy="66.84" r="0.9" stroke="#004E55" fill="#6DB4BB"/>
          <circle cx="50.09" cy="68.84" r="0.9" stroke="#004E55" fill="#6EB5BC"/>
          <circle cx="46.29" cy="71.79" r="0.9" stroke="#004F55" fill="#6FB6BC"/>
          <circle cx="46.63" cy="77.58" r="0.9" stroke="#005056" fill="#71B7BD"/>
          <circle cx="42.84" cy="74.88" r="0.9" stroke="#005156" fill="#72B8BD"/>
          <circle cx="38.81" cy="67.59" r="0.9" stroke="#005156" fill="#74B8BD"/>
          <circle cx="38.81" cy="67.59" r="0.9" stroke="#005257" fill="#75B9BE"/>
          <circle cx="38.81" cy="67.59" r="0.9" stroke="#005357" fill="#77BABE"/>
          <circle cx="43.32" cy="61.04" r="0.9" stroke="#005358" fill="#78BBBF"/>
          <circle cx="38.83" cy="61.63" r="0.9" stroke="#015458" fill="#79BCBF"/>
          <circle cx="42.27" cy="60.92" r="0.9" stroke="#055558" fill="#7BBCC0"/>
          <circle cx="42.27" cy="58.66" r="0.9" stroke="#085659" fill="#7CBDC0"/>
          <circle cx="49.78" cy="53.6" r="0.9" stroke="#0C5659" fill="#7EBEC0"/>
          <circle cx="49.78" cy="53.6" r="0.9" stroke="#0F5759" fill="#7FBFC1"/>
          <circle cx="54.03" cy="53.13" r="0.9" stroke="#12585A" fill="#80BFC1"/>
          <circle cx="54.59" cy="51.37" r="0.9" stroke="#14585A" fill="#82C0C2"/>
          <circle cx="52.17" cy="50.7" r="0.9" stroke="#16595B" fill="#83C1C2"/>
          <circle cx="53.01" cy="54.57" r="0.9" stroke="#195A5B" fill="#85C2C2"/>
          <circle cx="53.01" cy="54.57" r="0.9" stroke="#1B5A5B" fill="#86C3C3"/>
          <circle cx="61.65" cy="57.9" r="0.9" stroke="#1D5B5C" fill="#87C3C3"/>
          <circle cx="63.21" cy="53.15" r="0.9" stroke="#1E5C5C" fill="#89C4C4"/>
          <circle cx="79.64" cy="57.13" r="0.9" stroke="#205C5C" fill="#8AC5C4"/>
          <circle cx="75.32" cy="59.72" r="0.9" stroke="#225D5D" fill="#8BC6C5"/>
          <circle cx="71.21" cy="52.48" r="0.9" stroke="#245E5D" fill="#8DC6C5"/>
          <circle cx="75.9" cy="51.44" r="0.9" stroke="#255E5E" fill="#8EC7C6"/>
          <circle cx="71.69" cy="49.52" r="0.9" stroke="#275F5E" fill="#8FC8C6"/>
          <circle cx="71.69" cy="49.52" r="0.9" stroke="#29605E" fill="#91C9C6"/>
          <circle cx="67.91" cy="55.79" r="0.9" stroke="#2A605F" fill="#92C9C7"/>
          <circle cx="70.62" cy="49.36" r="0.9" stroke="#2C615F" fill="#93CAC7"/>
          <circle cx="77.68" cy="46.09" r="0.9" stroke="#2D625F" fill="#95CBC8"/>
          <circle cx="90.73" cy="47.96" r="0.9" stroke="#2F6260" fill="#96CCC8"/>
          <circle cx="86.94" cy="44.61" r="0.9" stroke="#306360" fill="#97CCC9"/>
          <circle cx="87.28" cy="44.59" r="0.9" stroke="#316461" fill="#99CDC9"/>
          <circle cx="87.28" cy="44.59" r="0.9" stroke="#336461" fill="#9ACEC9"/>
          <circle cx="94.08" cy="41.19" r="0.9" stroke="#346561" fill="#9BCECA"/>
          <circle cx="94.08" cy="41.19" r="0.9" stroke="#356562" fill="#9DCFCA"/>
          <circle cx="85.64" cy="44.32" r="0.9" stroke="#376662" fill="#9ED0CB"/>
          <circle cx="80.5" cy="47.93" r="0.9" stroke="#386662" fill="#9FD0CB"/>
          <circle cx="77.35" cy="45.44" r="0.9" stroke="#386662" fill="#9FD0CA"/>
          <circle cx="78.43" cy="46.81" r="0.9" stroke="#396662" fill="#A0D0CA"/>
          <circle cx="78.43" cy="46.81" r="0.9" stroke="#396661" fill="#A0D0CA"/>
          <circle cx="80.09" cy="45.47" r="0.9" stroke="#3A6661" fill="#A1D0C9"/>
          <circle cx="79.68" cy="45.63" r="0.9" stroke="#3B6661" fill="#A1CFC9"/>
          <circle cx="79.9" cy="44.27" r="0.9" stroke="#3B6660" fill="#A2CFC9"/>
          <circle cx="78.53" cy="48.17" r="0.9" stroke="#3C6660" fill="#A2CFC9"/>
          <circle cx="73.72" cy="49.53" r="0.9" stroke="#3C6660" fill="#A3CFC8"/>
          <circle cx="73.72" cy="49.53" r="0.9" stroke="#3D6660" fill="#A3CFC8"/>
          <circle cx="66.94" cy="51.45" r="0.9" stroke="#3E665F" fill="#A4CFC8"/>
          <circle cx="66.94" cy="51.45" r="0.9" stroke="#3E655F" fill="#A4CFC7"/>
          <circle cx="62.87" cy="52.27" r="0.9" stroke="#3F655F" fill="#A5CFC7"/>
          <circle cx="59.18" cy="55.09" r="0.9" stroke="#3F655F" fill="#A5CFC7"/>
          <circle cx="59.63" cy="54.17" r="0.9" stroke="#40655F" fill="#A6CFC7"/>
          <circle cx="55.96" cy="58.12" r="0.9" stroke="#40655E" fill="#A6CFC6"/>
          <circle cx="49.93" cy="58.94" r="0.9" stroke="#41655E" fill="#A7CEC6"/>
          <circle cx="52.13" cy="56.42" r="0.9" stroke="#41655E" fill="#A8CEC6"/>
          <circle cx="53.93" cy="60.36" r="0.9" stroke="#42655E" fill="#A8CEC6"/>
          <circle cx="57.46" cy="52.39" r="0.9" stroke="#42655E" fill="#A9CEC6"/>
          <circle cx="55.5" cy="49.8" r="0.9" stroke="#43655D" fill="#A9CEC5"/>
          <circle cx="65.7" cy="52.69" r="0.9" stroke="#43655D" fill="#AACEC5"/>
          <circle cx="63.97" cy="49.91" r="0.9" stroke="#44655D" fill="#AACEC5"/>
          <circle cx="59.47" cy="49.21" r="0.9" stroke="#44655D" fill="#AACEC5"/>
          <circle cx="50.68" cy="49.16" r="0.9" stroke="#45645D" fill="#ABCEC5"/>
          <circle cx="48.53" cy="46.79" r="0.9" stroke="#45645C" fill="#ABCEC4"/>
          <circle cx="51.96" cy="48.83" r="0.9" stroke="#46645C" fill="#ACCEC4"/>
          <circle cx="54.22" cy="56.44" r="0.9" stroke="#46645C" fill="#ACCDC4"/>
          <circle cx="54.22" cy="56.44" r="0.9" stroke="#47645C" fill="#ADCDC4"/>
          <circle cx="54.22" cy="56.44" r="0.9" stroke="#47645C" fill="#ADCDC4"/>
          <circle cx="53.63" cy="55.2" r="0.9" stroke="#48645C" fill="#AECDC3"/>
          <circle cx="52.46" cy="54.38" r="0.9" stroke="#48645C" fill="#AECDC3"/>
          <circle cx="51.25" cy="53.84" r="0.9" stroke="#49645B" fill="#AFCDC3"/>
          <circle cx="47.92" cy="54.97" r="0.9" stroke="#49645B" fill="#AFCDC3"/>
          <circle cx="50.33" cy="56.92" r="0.9" stroke="#4A645B" fill="#B0CDC3"/>
          <circle cx="50.33" cy="56.92" r="0.9" stroke="#4A645B" fill="#B0CDC3"/>
          <circle cx="46.63" cy="62.3" r="0.9" stroke="#4B645B" fill="#B1CDC3"/>
          <circle cx="48.5" cy="65.91" r="0.9" stroke="#4B635B" fill="#B1CCC2"/>
          <circle cx="51.07" cy="71.01" r="0.9" stroke="#4B635B" fill="#B2CCC2"/>
          <circle cx="51.07" cy="71.01" r="0.9" stroke="#4C635B" fill="#B2CCC2"/>
          <circle cx="58.51" cy="71.77" r="0.9" stroke="#4C635B" fill="#B2CCC2"/>
          <circle cx="58.51" cy="71.77" r="0.9" stroke="#4D635A" fill="#B3CCC2"/>
          <circle cx="58.51" cy="71.77" r="0.9" stroke="#4D635A" fill="#B3CCC2"/>
          <circle cx="58.51" cy="71.77" r="0.9" stroke="#4D635A" fill="#B4CCC2"/>
          <circle cx="60.72" cy="75.41" r="0.9" stroke="#4E635A" fill="#B4CCC2"/>
          <circle cx="63.59" cy="73.36" r="0.9" stroke="#4E635A" fill="#B5CCC2"/>
          <circle cx="53.29" cy="72.44" r="0.9" stroke="#4E635A" fill="#B5CCC1"/>
          <circle cx="58.63" cy="68.37" r="0.9" stroke="#4F635A" fill="#B5CCC1"/>
          <circle cx="53.35" cy="64.72" r="0.9" stroke="#4F635A" fill="#B5CCC1"/>
          <circle cx="61.44" cy="57.93" r="0.9" stroke="#4F635A" fill="#B5CCC1"/>
          <circle cx="63.59" cy="55.01" r="0.9" stroke="#4F6359" fill="#B5CCC1"/>
          <circle cx="66.91" cy="53.75" r="0.9" stroke="#4F6359" fill="#B5CCC1"/>
          <circle cx="54.38" cy="60.82" r="0.9" stroke="#4F6359" fill="#B5CCC1"/>
          <circle cx="44.94" cy="52.46" r="0.9" stroke="#4F6359" fill="#B6CCC0"/>
          <circle cx="48.41" cy="51.92" r="0.9" stroke="#4F6359" fill="#B6CCC0"/>
          <circle cx="55.61" cy="52.12" r="0.9" stroke="#4F6359" fill="#B6CBC0"/>
          <circle cx="60.76" cy="47.54" r="0.9" stroke="#506359" fill="#B6CBC0"/>
          <circle cx="63.27" cy="48.73" r="0.9" stroke="#506359" fill="#B6CBC0"/>
          <circle cx="59.05" cy="49.09" r="0.9" stroke="#506358" fill="#B6CBC0"/>
          <circle cx="62.1" cy="48.28" r="0.9" stroke="#506358" fill="#B6CBBF"/>
          <circle cx="73.49" cy="46.87" r="0.9" stroke="#506358" fill="#B7CBBF"/>
          <circle cx="73.67" cy="45.97" r="0.9" stroke="#506358" fill="#B7CBBF"/>
          <circle cx="80.62" cy="47.11" r="0.9" stroke="#506258" fill="#B7CBBF"/>
          <circle cx="77.78" cy="45.13" r="0.9" stroke="#516258" fill="#B7CBBF"/>
          <circle cx="78.95" cy="44.24" r="0.9" stroke="#516258" fill="#B7CBBF"/>
          <circle cx="92.05" cy="45.03" r="0.9" stroke="#516257" fill="#B7CBBF"/>
          <circle cx="87.04" cy="45.45" r="0.9" stroke="#516257" fill="#B7CBBE"/>
          <circle cx="87.04" cy="45.45" r="0.9" stroke="#516257" fill="#B8CBBE"/>
          <circle cx="88.05" cy="44.73" r="0.9" stroke="#516257" fill="#B8CBBE"/>
          <circle cx="84.67" cy="46.09" r="0.9" stroke="#516257" fill="#B8CBBE"/>
          <circle cx="84.67" cy="46.09" r="0.9" stroke="#516257" fill="#B8CBBE"/>
          <circle cx="84.67" cy="46.09" r="0.9" stroke="#526257" fill="#B8CBBE"/>
          <circle cx="84.67" cy="46.09" r="0.9" stroke="#526257" fill="#B8CBBE"/>
          <circle cx="86.7" cy="49.14" r="0.9" stroke="#526256" fill="#B9CBBD"/>
          <circle cx="89.32" cy="54.06" r="0.9" stroke="#526256" fill="#B9CBBD"/>
          <circle cx="83.21" cy="57.88" r="0.9" stroke="#526256" fill="#B9CBBD"/>
          <circle cx="75.94" cy="57.16" r="0.9" stroke="#526256" fill="#B9CBBD"/>
          <circle cx="67.47" cy="51.82" r="0.9" stroke="#526256" fill="#B9CBBD"/>
          <circle cx="66.82" cy="44" r="0.9" stroke="#536256" fill="#B9CBBD"/>
          <circle cx="62.29" cy="42.91" r="0.9" stroke="#536256" fill="#B9CBBD"/>
          <circle cx="73.58" cy="40.77" r="0.9" stroke="#536256" fill="#BACBBC"/>
          <circle cx="67.42" cy="39.85" r="0.9" stroke="#536255" fill="#BACBBC"/>
          <circle cx="67.07" cy="39.16" r="0.9" stroke="#536255" fill="#BACBBC"/>
          <circle cx="71.65" cy="44.18" r="0.9" stroke="#536255" fill="#BACBBC"/>
          <circle cx="71.39" cy="51.2" r="0.9" stroke="#536255" fill="#BACBBC"/>
          <circle cx="77.97" cy="50.72" r="0.9" stroke="#546255" fill="#BACBBC"/>
          <circle cx="72.15" cy="54.75" r="0.9" stroke="#546255" fill="#BBCBBC"/>
          <circle cx="72.15" cy="54.75" r="0.9" stroke="#546255" fill="#BBCBBC"/>
          <circle cx="77.57" cy="52.01" r="0.9" stroke="#546255" fill="#BBCBBB"/>
          <circle cx="87.9" cy="53.84" r="0.9" stroke="#546255" fill="#BBCBBB"/>
          <circle cx="87.91" cy="50.55" r="0.9" stroke="#546254" fill="#BBCBBB"/>
          <circle cx="93.36" cy="51" r="0.9" stroke="#556254" fill="#BBCABB"/>
          <circle cx="82.97" cy="51.9" r="0.9" stroke="#556254" fill="#BCCABB"/>
          <circle cx="81.53" cy="49.98" r="0.9" stroke="#556254" fill="#BCCABB"/>
          <circle cx="92.35" cy="52.29" r="0.9" stroke="#556254" fill="#BCCABB"/>
          <circle cx="79.29" cy="54.42" r="0.9" stroke="#556254" fill="#BCCABA"/>
          <circle cx="66.44" cy="57.34" r="0.9" stroke="#556254" fill="#BCCABA"/>
          <circle cx="57.56" cy="57.2" r="0.9" stroke="#556254" fill="#BCCABA"/>
          <circle cx="65.98" cy="58.47" r="0.9" stroke="#566254" fill="#BDCABA"/>
          <circle cx="73.09" cy="62.44" r="0.9" stroke="#566253" fill="#BDCABA"/>
          <circle cx="68.12" cy="59.3" r="0.9" stroke="#566253" fill="#BDCABA"/>
          <circle cx="79.94" cy="55.72" r="0.9" stroke="#566253" fill="#BDCABA"/>
          <circle cx="85.17" cy="54.43" r="0.9" stroke="#566153" fill="#BDCABA"/>
          <circle cx="86.71" cy="55.61" r="0.9" stroke="#566153" fill="#BDCABA"/>
          <circle cx="83.06" cy="54.16" r="0.9" stroke="#566153" fill="#BECAB9"/>
          <circle cx="83.06" cy="54.16" r="0.9" stroke="#576153" fill="#BECAB9"/>
          <circle cx="90.7" cy="55.09" r="0.9" stroke="#576153" fill="#BECAB9"/>
          <circle cx="90.07" cy="52.63" r="0.9" stroke="#576153" fill="#BECAB9"/>
          <circle cx="92.09" cy="46.58" r="0.9" stroke="#576153" fill="#BECAB9"/>
          <circle cx="85.87" cy="47.67" r="0.9" stroke="#576152" fill="#BFCAB9"/>
          <circle cx="86.76" cy="46.53" r="0.9" stroke="#576152" fill="#BFCAB9"/>
          <circle cx="86.26" cy="48.25" r="0.9" stroke="#586152" fill="#BFCAB9"/>
          <circle cx="78.91" cy="47.73" r="0.9" stroke="#586152" fill="#BFCAB9"/>
          <circle cx="84.93" cy="47.03" r="0.9" stroke="#586152" fill="#BFCAB8"/>
          <circle cx="76.36" cy="45.59" r="0.9" stroke="#586152" fill="#BFCAB8"/>
          <circle cx="75.89" cy="45.06" r="0.9" stroke="#586152" fill="#C0CAB8"/>
          <circle cx="78.46" cy="47.1" r="0.9" stroke="#586152" fill="#C0CAB8"/>
          <circle cx="80.84" cy="51.64" r="0.9" stroke="#596152" fill="#C0CAB8"/>
          <circle cx="81.85" cy="54.16" r="0.9" stroke="#596152" fill="#C0C9B8"/>
          <circle cx="80.91" cy="51.44" r="0.9" stroke="#596151" fill="#C0C9B8"/>
          <circle cx="92.62" cy="52.12" r="0.9" stroke="#596151" fill="#C1C9B8"/>
          <circle cx="88.54" cy="51.78" r="0.9" stroke="#596151" fill="#C1C9B8"/>
          <circle cx="81.78" cy="49.54" r="0.9" stroke="#596151" fill="#C1C9B7"/>
          <circle cx="84.51" cy="44.61" r="0.9" stroke="#596151" fill="#C1C9B7"/>
          <circle cx="84.51" cy="44.61" r="0.9" stroke="#5A6151" fill="#C1C9B7"/>
          <circle cx="86.98" cy="44.85" r="0.9" stroke="#5A6151" fill="#C1C9B7"/>
          <circle cx="85.1" cy="47.73" r="0.9" stroke="#5A6151" fill="#C2C9B7"/>
          <circle cx="79.48" cy="41.18" r="0.9" stroke="#5A6151" fill="#C2C9B7"/>
          <circle cx="71.1" cy="40.62" r="0.9" stroke="#5A6151" fill="#C2C9B7"/>
          <circle cx="69.13" cy="37.18" r="0.9" stroke="#5A6151" fill="#C2C9B7"/>
          <circle cx="62.67" cy="37.72" r="0.9" stroke="#5B6151" fill="#C2C9B7"/>
          <circle cx="70.12" cy="36.12" r="0.9" stroke="#5B6051" fill="#C3C9B7"/>
          <circle cx="78.46" cy="38.36" r="0.9" stroke="#5B6050" fill="#C3C9B7"/>
          <circle cx="87.66" cy="32.24" r="0.9" stroke="#5B6050" fill="#C3C9B6"/>
          <circle cx="89.01" cy="37.39" r="0.9" stroke="#5B6050" fill="#C3C9B6"/>
          <circle cx="88.17" cy="36.97" r="0.9" stroke="#5B6050" fill="#C3C9B6"/>
          <circle cx="84.56" cy="40.91" r="0.9" stroke="#5C6050" fill="#C3C9B6"/>
          <circle cx="84.08" cy="40.95" r="0.9" stroke="#5C6050" fill="#C4C9B6"/>
          <circle cx="79.94" cy="50.1" r="0.9" stroke="#5C6050" fill="#C4C9B6"/>
          <circle cx="85.05" cy="44.79" r="0.9" stroke="#5C6050" fill="#C4C9B6"/>
          <circle cx="96.07" cy="40.85" r="0.9" stroke="#5C6050" fill="#C4C9B6"/>
          <circle cx="93.87" cy="37.07" r="0.9" stroke="#5C6050" fill="#C4C8B6"/>
          <circle cx="90.24" cy="37" r="0.9" stroke="#5C6050" fill="#C5C8B6"/>
          <circle cx="90.24" cy="37" r="0.9" stroke="#5D6050" fill="#C5C8B6"/>
          <circle cx="98.66" cy="40.93" r="0.9" stroke="#5D6050" fill="#C5C8B6"/>
          <circle cx="93.95" cy="41.19" r="0.9" stroke="#5D6050" fill="#C5C8B6"/>
          <circle cx="94.84" cy="38.99" r="0.9" stroke="#5D6050" fill="#C5C8B6"/>
          <circle cx="94.84" cy="38.99" r="0.9" stroke="#5D604F" fill="#C5C8B5"/>
          <circle cx="87.18" cy="39.72" r="0.9" stroke="#5D604F" fill="#C6C8B5"/>
          <circle cx="93.06" cy="49.38" r="0.9" stroke="#5E604F" fill="#C6C8B5"/>
          <circle cx="85.7" cy="55.17" r="0.9" stroke="#5E604F" fill="#C6C8B5"/>
          <circle cx="85.7" cy="55.17" r="0.9" stroke="#5E604F" fill="#C6C8B5"/>
          <circle cx="85.7" cy="55.17" r="0.9" stroke="#5E604F" fill="#C6C8B5"/>
          <circle cx="85.7" cy="55.17" r="0.9" stroke="#5E604F" fill="#C7C8B5"/>
          <circle cx="83.22" cy="53.44" r="0.9" stroke="#5E604F" fill="#C7C8B5"/>
          <circle cx="83.16" cy="48.5" r="0.9" stroke="#5F604F" fill="#C7C8B5"/>
          <circle cx="90.79" cy="54.82" r="0.9" stroke="#5F5F4F" fill="#C7C8B5"/>
          <circle cx="90.79" cy="54.82" r="0.9" stroke="#5F5F4F" fill="#C7C8B5"/>
          <circle cx="80.65" cy="55.88" r="0.9" stroke="#5F5F4F" fill="#C7C8B5"/>
          <circle cx="76.07" cy="50.08" r="0.9" stroke="#5F5F4F" fill="#C8C8B5"/>
          <circle cx="74.49" cy="44.61" r="0.9" stroke="#5F5F4F" fill="#C8C8B5"/>
          <circle cx="73.6" cy="44.05" r="0.9" stroke="#5F5F4F" fill="#C8C8B5"/>
          <circle cx="73.6" cy="44.05" r="0.9" stroke="#605F4F" fill="#C8C7B5"/>
          <circle cx="68.87" cy="46.59" r="0.9" stroke="#605F4F" fill="#C8C7B5"/>
          <circle cx="69.31" cy="44.64" r="0.9" stroke="#605F4F" fill="#C9C7B5"/>
          <circle cx="77.08" cy="45.25" r="0.9" stroke="#605F4F" fill="#C9C7B4"/>
          <circle cx="83.68" cy="49.26" r="0.9" stroke="#605F4F" fill="#C9C7B4"/>
          <circle cx="84.66" cy="47.06" r="0.9" stroke="#605F4F" fill="#C9C7B4"/>
          <circle cx="88.26" cy="45.29" r="0.9" stroke="#615F4E" fill="#C9C7B4"/>
          <circle cx="82.27" cy="40.74" r="0.9" stroke="#615F4E" fill="#C9C7B4"/>
          <circle cx="82.27" cy="40.74" r="0.9" stroke="#615F4E" fill="#CAC7B4"/>
          <circle cx="82.27" cy="40.74" r="0.9" stroke="#615F4E" fill="#CAC7B4"/>
          <circle cx="75.92" cy="39.39" r="0.9" stroke="#615F4E" fill="#CAC7B4"/>
          <circle cx="77.96" cy="46.56" r="0.9" stroke="#615F4E" fill="#CAC7B3"/>
          <circle cx="74.7" cy="44.71" r="0.9" stroke="#625F4D" fill="#CBC7B3"/>
          <circle cx="80.21" cy="49.25" r="0.9" stroke="#625F4D" fill="#CBC7B3"/>
          <circle cx="83.1" cy="45.14" r="0.9" stroke="#625F4D" fill="#CBC7B2"/>
          <circle cx="82.91" cy="41.99" r="0.9" stroke="#625F4C" fill="#CBC7B2"/>
          <circle cx="80.45" cy="42.34" r="0.9" stroke="#625F4C" fill="#CCC7B2"/>
          <circle cx="80.31" cy="42.11" r="0.9" stroke="#635F4C" fill="#CCC7B1"/>
          <circle cx="80.38" cy="45.77" r="0.9" stroke="#635E4C" fill="#CCC7B1"/>
          <circle cx="89.35" cy="44.74" r="0.9" stroke="#635E4B" fill="#CCC7B1"/>
          <circle cx="89.2" cy="49.72" r="0.9" stroke="#635E4B" fill="#CDC6B0"/>
          <circle cx="82.48" cy="47.51" r="0.9" stroke="#645E4B" fill="#CDC6B0"/>
          <circle cx="95.75" cy="52.58" r="0.9" stroke="#645E4A" fill="#CDC6B0"/>
          <circle cx="95.75" cy="52.58" r="0.9" stroke="#645E4A" fill="#CDC6AF"/>
          <circle cx="87.51" cy="48.41" r="0.9" stroke="#645E4A" fill="#CEC6AF"/>
          <circle cx="87.51" cy="48.41" r="0.9" stroke="#645E4A" fill="#CEC6AF"/>
          <circle cx="80.28" cy="49.68" r="0.9" stroke="#655E49" fill="#CEC6AF"/>
          <circle cx="79.59" cy="47.78" r="0.9" stroke="#655E49" fill="#CFC6AE"/>
          <circle cx="90.36" cy="49.25" r="0.9" stroke="#655E49" fill="#CFC6AE"/>
          <circle cx="96.38" cy="45.81" r="0.9" stroke="#655E49" fill="#CFC6AE"/>
          <circle cx="102.49" cy="39.55" r="0.9" stroke="#665E48" fill="#D0C6AD"/>
          <circle cx="101.94" cy="41.12" r="0.9" stroke="#665E48" fill="#D0C6AD"/>
          <circle cx="103.37" cy="39.98" r="0.9" stroke="#665E48" fill="#D0C6AD"/>
          <circle cx="97.48" cy="40.68" r="0.9" stroke="#665E47" fill="#D1C6AC"/>
          <circle cx="96.69" cy="40.81" r="0.9" stroke="#675E47" fill="#D1C5AC"/>
          <circle cx="96.16" cy="40.5" r="0.9" stroke="#675D47" fill="#D1C5AC"/>
          <circle cx="99.32" cy="38.25" r="0.9" stroke="#675D47" fill="#D2C5AB"/>
          <circle cx="93.49" cy="43.03" r="0.9" stroke="#685D46" fill="#D2C5AB"/>
          <circle cx="94.43" cy="43.41" r="0.9" stroke="#685D46" fill="#D2C5AB"/>
          <circle cx="92.5" cy="37.11" r="0.9" stroke="#685D46" fill="#D3C5AB"/>
          <circle cx="94.53" cy="41.06" r="0.9" stroke="#685D46" fill="#D3C5AA"/>
          <circle cx="94.53" cy="41.06" r="0.9" stroke="#695D45" fill="#D3C5AA"/>
          <circle cx="103.41" cy="43.31" r="0.9" stroke="#695D45" fill="#D4C5AA"/>
          <circle cx="103.41" cy="43.31" r="0.9" stroke="#695D45" fill="#D4C5AA"/>
          <circle cx="99.75" cy="39.76" r="0.9" stroke="#6A5D45" fill="#D4C5A9"/>
          <circle cx="102.09" cy="41.36" r="0.9" stroke="#6A5D44" fill="#D5C4A9"/>
          <circle cx="96.68" cy="40.74" r="0.9" stroke="#6A5D44" fill="#D5C4A9"/>
          <circle cx="86.3" cy="41.35" r="0.9" stroke="#6A5C44" fill="#D6C4A8"/>
          <circle cx="91.63" cy="42.69" r="0.9" stroke="#6B5C44" fill="#D6C4A8"/>
          <circle cx="89.51" cy="46.1" r="0.9" stroke="#6B5C44" fill="#D6C4A8"/>
          <circle cx="91.94" cy="41.19" r="0.9" stroke="#6B5C43" fill="#D7C4A8"/>
          <circle cx="85.28" cy="42.58" r="0.9" stroke="#6C5C43" fill="#D7C4A7"/>
          <circle cx="85.28" cy="42.58" r="0.9" stroke="#6C5C43" fill="#D8C4A7"/>
          <circle cx="80.57" cy="41.1" r="0.9" stroke="#6C5C43" fill="#D8C4A7"/>
          <circle cx="84.64" cy="35" r="0.9" stroke="#6C5C42" fill="#D8C3A6"/>
          <circle cx="82.79" cy="37.42" r="0.9" stroke="#6C5B41" fill="#D8C2A5"/>
          <circle cx="82.51" cy="36.47" r="0.9" stroke="#6C5A41" fill="#D7C2A5"/>
          <circle cx="86.36" cy="36.06" r="0.9" stroke="#6B5940" fill="#D7C1A4"/>
          <circle cx="98.42" cy="31.43" r="0.9" stroke="#6B593F" fill="#D7C0A3"/>
          <circle cx="93.94" cy="32.66" r="0.9" stroke="#6B583E" fill="#D6BFA2"/>
          <circle cx="94.11" cy="36.3" r="0.9" stroke="#6A573D" fill="#D6BEA1"/>
          <circle cx="100.48" cy="31.83" r="0.9" stroke="#6A563C" fill="#D5BDA0"/>
          <circle cx="100.48" cy="31.83" r="0.9" stroke="#69553C" fill="#D5BC9F"/>
          <circle cx="100.09" cy="30.77" r="0.9" stroke="#69553B" fill="#D5BB9E"/>
          <circle cx="100.78" cy="29.95" r="0.9" stroke="#69543A" fill="#D4BA9D"/>
          <circle cx="92.85" cy="33.14" r="0.9" stroke="#685339" fill="#D4B99C"/>
          <circle cx="92.55" cy="40.45" r="0.9" stroke="#685238" fill="#D3B89B"/>
          <circle cx="89.43" cy="38.36" r="0.9" stroke="#675137" fill="#D3B79A"/>
          <circle cx="82" cy="40.47" r="0.9" stroke="#675137" fill="#D3B799"/>
          <circle cx="86.12" cy="44.88" r="0.9" stroke="#665036" fill="#D2B698"/>
          <circle cx="85.1" cy="43.48" r="0.9" stroke="#664F35" fill="#D2B597"/>
          <circle cx="85.1" cy="43.48" r="0.9" stroke="#664E34" fill="#D1B496"/>
          <circle cx="85.1" cy="43.48" r="0.9" stroke="#654D33" fill="#D1B395"/>
          <circle cx="93.5" cy="40.29" r="0.9" stroke="#654C32" fill="#D0B294"/>
          <circle cx="84.06" cy="42.98" r="0.9" stroke="#644C32" fill="#D0B193"/>
          <circle cx="86.2" cy="45.02" r="0.9" stroke="#644B31" fill="#D0B092"/>
          <circle cx="85.18" cy="47.27" r="0.9" stroke="#644A30" fill="#CFAF91"/>
          <circle cx="87.24" cy="45.22" r="0.9" stroke="#63492F" fill="#CFAE90"/>
          <circle cx="84.45" cy="37.69" r="0.9" stroke="#63482E" fill="#CEAD8F"/>
          <circle cx="82.16" cy="35.84" r="0.9" stroke="#62472E" fill="#CEAC8E"/>
          <circle cx="83.55" cy="40.92" r="0.9" stroke="#62472D" fill="#CDAB8D"/>
          <circle cx="86.58" cy="36.94" r="0.9" stroke="#61462C" fill="#CDAA8C"/>
          <circle cx="86.58" cy="36.94" r="0.9" stroke="#61452B" fill="#CCA98C"/>
          <circle cx="86.58" cy="36.94" r="0.9" stroke="#60442B" fill="#CCA88B"/>
          <circle cx="92.6" cy="34.13" r="0.9" stroke="#60432A" fill="#CCA78A"/>
          <circle cx="92.6" cy="34.13" r="0.9" stroke="#5F4229" fill="#CBA689"/>
          <circle cx="84.46" cy="33.26" r="0.9" stroke="#5F4128" fill="#CBA588"/>
          <circle cx="82.58" cy="33.58" r="0.9" stroke="#5F4027" fill="#CAA487"/>
          <circle cx="76.74" cy="36.69" r="0.9" stroke="#5E4027" fill="#CAA386"/>
          <circle cx="75.71" cy="33.87" r="0.9" stroke="#5E3F26" fill="#C9A285"/>
          <circle cx="75.71" cy="33.87" r="0.9" stroke="#5D3E25" fill="#C9A184"/>
          <circle cx="72.37" cy="33.62" r="0.9" stroke="#5D3D24" fill="#C8A083"/>
          <circle cx="73.13" cy="33.7" r="0.9" stroke="#5C3C24" fill="#C89F82"/>
          <circle cx="79.89" cy="36.55" r="0.9" stroke="#5C3B23" fill="#C79E82"/>
          <circle cx="82.93" cy="35.27" r="0.9" stroke="#5B3A22" fill="#C79D81"/>
          <circle cx="82.26" cy="38.63" r="0.9" stroke="#5B3921" fill="#C69C80"/>
          <circle cx="92.37" cy="33.52" r="0.9" stroke="#5A3821" fill="#C69B7F"/>
          <circle cx="86.66" cy="38.37" r="0.9" stroke="#5A3820" fill="#C59A7E"/>
          <circle cx="83.16" cy="41.17" r="0.9" stroke="#59371F" fill="#C5997D"/>
          <circle cx="83.76" cy="42.63" r="0.9" stroke="#59361F" fill="#C4987C"/>
          <circle cx="81.75" cy="46.05" r="0.9" stroke="#58351E" fill="#C4977B"/>
          <circle cx="89.76" cy="47.66" r="0.9" stroke="#58341D" fill="#C3967B"/>
          <circle cx="87.67" cy="50.34" r="0.9" stroke="#57331C" fill="#C3957A"/>
          <circle cx="83.49" cy="47.49" r="0.9" stroke="#57321C" fill="#C29379"/>
          <circle cx="76.68" cy="46.22" r="0.9" stroke="#56311B" fill="#C29278"/>
          <circle cx="76.68" cy="46.22" r="0.9" stroke="#56301A" fill="#C19177"/>
          <circle cx="78.55" cy="44.9" r="0.9" stroke="#552F1A" fill="#C19076"/>
          <circle cx="78.55" cy="44.9" r="0.9" stroke="#542E19" fill="#C08F75"/>
          <circle cx="78.55" cy="44.9" r="0.9" stroke="#542D18" fill="#C08E75"/>
          <circle cx="72.31" cy="42.36" r="0.9" stroke="#532D18" fill="#BF8D74"/>
          <circle cx="74.17" cy="42.51" r="0.9" stroke="#532C17" fill="#BF8C73"/>
          <circle cx="72.56" cy="48.9" r="0.9" stroke="#522B16" fill="#BE8B72"/>
          <circle cx="66.8" cy="46.42" r="0.9" stroke="#522A16" fill="#BE8A71"/>
          <circle cx="67.8" cy="41.01" r="0.9" stroke="#512915" fill="#BD8970"/>
          <circle cx="70.83" cy="44.17" r="0.9" stroke="#512814" fill="#BC8870"/>
          <circle cx="70.83" cy="44.17" r="0.9" stroke="#502714" fill="#BC876F"/>
          <circle cx="59.25" cy="47.86" r="0.9" stroke="#4F2613" fill="#BB856E"/>
          <circle cx="63.25" cy="48.8" r="0.9" stroke="#4F2513" fill="#BB846D"/>
          <circle cx="63.09" cy="48.83" r="0.9" stroke="#4E2412" fill="#BA836C"/>
          <circle cx="69.51" cy="45.34" r="0.9" stroke="#4E2311" fill="#BA826C"/>
          <circle cx="74.53" cy="45.79" r="0.9" stroke="#4D2211" fill="#B9816B"/>
          <circle cx="74.53" cy="45.79" r="0.9" stroke="#4C2110" fill="#B8806A"/>
          <circle cx="79.06" cy="47.32" r="0.9" stroke="#4C200F" fill="#B87F69"/>
          <circle cx="80.28" cy="53.63" r="0.9" stroke="#4B1F0F" fill="#B77E69"/>
          <circle cx="81.6" cy="52.68" r="0.9" stroke="#4B1E0E" fill="#B77D68"/>
          <circle cx="81.6" cy="52.68" r="0.9" stroke="#4A1D0D" fill="#B67B67"/>
          <circle cx="79.21" cy="55.15" r="0.9" stroke="#4A1C0C" fill="#B57A66"/>
          <circle cx="76.16" cy="54.91" r="0.9" stroke="#491B0B" fill="#B57966"/>
          <circle cx="74.95" cy="54.71" r="0.9" stroke="#481A0A" fill="#B47865"/>
          <circle cx="68.67" cy="58.9" r="0.9" stroke="#481909" fill="#B47764"/>
          <circle cx="70.33" cy="56.95" r="0.9" stroke="#471808" fill="#B37663"/>
          <circle cx="66.1" cy="52.92" r="0.9" stroke="#471707" fill="#B27563"/>
          <circle cx="65.76" cy="54.42" r="0.9" stroke="#461506" fill="#B27462"/>
          <circle cx="65.92" cy="53.63" r="0.9" stroke="#451405" fill="#B17261"/>
          <circle cx="69.68" cy="47.2" r="0.9" stroke="#451304" fill="#B07161"/>
          <circle cx="70.66" cy="43.75" r="0.9" stroke="#441203" fill="#B07060"/>
          <circle cx="70.66" cy="43.75" r="0.9" stroke="#431102" fill="#AF6F5F"/>
          <circle cx="70.66" cy="43.75" r="0.9" stroke="#431001" fill="#AE6E5E"/>
          <circle cx="80.89" cy="45.29" r="0.9" stroke="#420E00" fill="#AE6D5E"/>
          <circle cx="86.98" cy="46.6" r="0.9" stroke="#420D00" fill="#AD6C5D"/>
          <circle cx="89.03" cy="47.4" r="0.9" stroke="#410C00" fill="#AC6A5C"/>
          <circle cx="81.83" cy="49.54" r="0.9" stroke="#400A00" fill="#AC695C"/>
          <circle cx="92.66" cy="51.05" r="0.9" stroke="#400900" fill="#AB685B"/>
          <circle cx="92.66" cy="51.05" r="0.9" stroke="#3F0800" fill="#AA675A"/>
          <circle cx="90.19" cy="51.71" r="0.9" stroke="#3F0600" fill="#AA665A"/>
          <circle cx="88.81" cy="47.63" r="0.9" stroke="#3E0500" fill="#A96559"/>
          <circle cx="89.92" cy="49.52" r="0.9" stroke="#3D0400" fill="#A86358"/>
          <circle cx="82.39" cy="49.39" r="0.9" stroke="#3D0300" fill="#A76258"/>
          <circle cx="75.57" cy="46.48" r="0.9" stroke="#3C0200" fill="#A76157"/>
          <circle cx="73.62" cy="45.29" r="0.9" stroke="#3B0100" fill="#A66056"/>
          <circle cx="77.33" cy="42.09" r="0.9" stroke="#3B0000" fill="#A55F56"/>
          <circle cx="81.22" cy="43.81" r="0.9" stroke="#3A0000" fill="#A45E55"/>
          <circle cx="87.95" cy="46.08" r="0.9" stroke="#3A0000" fill="#A45C54"/>
          <circle cx="87.81" cy="45.59" r="0.9" stroke="#390000" fill="#A35B54"/>
          <circle cx="89.4" cy="45.59" r="0.9" stroke="#380000" fill="#A25A53"/>
          <circle cx="92.96" cy="45.67" r="0.9" stroke="#380000" fill="#A15953"/>
          <circle cx="92.62" cy="47.93" r="0.9" stroke="#370000" fill="#A15852"/>
          <circle cx="85.33" cy="41.72" r="0.9" stroke="#370000" fill="#A05751"/>
          <circle cx="88.83" cy="46.19" r="0.9" stroke="#360000" fill="#9F5551"/>
          <circle cx="94.25" cy="44.24" r="0.9" stroke="#360000" fill="#9E5450"/>
          <circle cx="98.71" cy="42.62" r="0.9" stroke="#350000" fill="#9E5350"/>
          <circle cx="94.95" cy="39.9" r="0.9" stroke="#350000" fill="#9D524F"/>
          <circle cx="89.8" cy="39.65" r="0.9" stroke="#340000" fill="#9C514E"/>
          <circle cx="97.24" cy="39.51" r="0.9" stroke="#340000" fill="#9B4F4E"/>
          <circle cx="96.21" cy="38.99" r="0.9" stroke="#340000" fill="#9A4E4D"/>
          <circle cx="96.21" cy="38.99" r="0.9" stroke="#330000" fill="#9A4D4D"/>
          <circle cx="96.21" cy="38.99" r="0.9" stroke="#330000" fill="#994C4C"/>
          <circle cx="96.21" cy="38.99" r="0.9" stroke="#320000" fill="#984A4C"/>
          <circle cx="93.85" cy="40.76" r="0.9" stroke="#320000" fill="#97494B"/>
          <circle cx="93.26" cy="41.38" r="0.9" stroke="#320000" fill="#96484B"/>
          <circle cx="100.86" cy="40.36" r="0.9" stroke="#320000" fill="#95474A"/>
          <circle cx="103.38" cy="41.94" r="0.9" stroke="#310000" fill="#944649"/>
          <circle cx="99.52" cy="46.2" r="0.9" stroke="#320000" fill="#944449"/>
          <circle cx="97.27" cy="46.07" r="0.9" stroke="#320000" fill="#934348"/>
          <circle cx="97.27" cy="46.07" r="0.9" stroke="#320000" fill="#924248"/>
          <circle cx="95.56" cy="47" r="0.9" stroke="#320000" fill="#914147"/>
          <circle cx="101.73" cy="41.78" r="0.9" stroke="#320000" fill="#903F47"/>
          <circle cx="98.67" cy="37.93" r="0.9" stroke="#320000" fill="#8F3E46"/>
          <circle cx="101.6" cy="47.08" r="0.9" stroke="#320000" fill="#8E3D46"/>
          <circle cx="101.44" cy="45.92" r="0.9" stroke="#320000" fill="#8D3C45"/>
          <circle cx="92.21" cy="51.04" r="0.9" stroke="#320000" fill="#8D3A45"/>
          <circle cx="94.59" cy="51.69" r="0.9" stroke="#320000" fill="#8C3944"/>
          <circle cx="79.04" cy="52.55" r="0.9" stroke="#330000" fill="#8B3844"/>
          <circle cx="78.15" cy="46.18" r="0.9" stroke="#330000" fill="#8A3743"/>
          <circle cx="82.89" cy="48.55" r="0.9" stroke="#330000" fill="#893543"/>
          <circle cx="79.23" cy="48.22" r="0.9" stroke="#330000" fill="#883442"/>
          <circle cx="87.28" cy="47.19" r="0.9" stroke="#330000" fill="#873342"/>
          <circle cx="87.28" cy="47.19" r="0.9" stroke="#330000" fill="#863241"/>
          <circle cx="93.4" cy="46.58" r="0.9" stroke="#330000" fill="#853041"/>
          <circle cx="85.6" cy="44.03" r="0.9" stroke="#330000" fill="#842F40"/>
          <circle cx="87.22" cy="46.96" r="0.9" stroke="#330000" fill="#832E40"/>
          <circle cx="88.38" cy="40.81" r="0.9" stroke="#330000" fill="#822C3F"/>
          <circle cx="82.18" cy="39.58" r="0.9" stroke="#330000" fill="#812B3F"/>
          <circle cx="82.18" cy="39.58" r="0.9" stroke="#330000" fill="#802A3E"/>
          <circle cx="85" cy="40.6" r="0.9" stroke="#330000" fill="#7F283E"/>
          <circle cx="85" cy="40.6" r="0.9" stroke="#340000" fill="#7E273E"/>
        </g>
      </g>
    </g>
  </g>
  <g class="guide ylabels" font-size="2.82" font-family="'PT Sans Caption','Helvetica Neue','Helvetica',sans-serif" fill="#6C606B" id="fig-a27c39a252a54104b7752ec3e74f98f8-element-17">
    <text x="14.59" y="82.32" text-anchor="end" dy="0.35em">-3</text>
    <text x="14.59" y="68.77" text-anchor="end" dy="0.35em">-2</text>
    <text x="14.59" y="55.23" text-anchor="end" dy="0.35em">-1</text>
    <text x="14.59" y="41.69" text-anchor="end" dy="0.35em">0</text>
    <text x="14.59" y="28.15" text-anchor="end" dy="0.35em">1</text>
    <text x="14.59" y="14.61" text-anchor="end" dy="0.35em">2</text>
  </g>
  <g font-size="3.88" font-family="'PT Sans','Helvetica Neue','Helvetica',sans-serif" fill="#564A55" stroke="none" id="fig-a27c39a252a54104b7752ec3e74f98f8-element-18">
    <text x="8.81" y="48.46" text-anchor="end" dy="0.35em">y</text>
  </g>
  <g font-size="3.88" font-family="'PT Sans','Helvetica Neue','Helvetica',sans-serif" fill="#564A55" stroke="none" id="fig-a27c39a252a54104b7752ec3e74f98f8-element-19">
    <text x="74.39" y="10.61" text-anchor="middle">HMC (ϵ = 0.05, L = 5)</text>
  </g>
</g>
<defs>
<clipPath id="fig-a27c39a252a54104b7752ec3e74f98f8-element-10">
  <path d="M15.59,12.61 L 133.18 12.61 133.18 84.32 15.59 84.32" />
</clipPath
></defs>
</svg>
