<?xml version="1.0" encoding="UTF-8"?>
<svg xmlns="http://www.w3.org/2000/svg"
     xmlns:xlink="http://www.w3.org/1999/xlink"
     xmlns:gadfly="http://www.gadflyjl.org/ns"
     version="1.2"
     width="152.4mm" height="101.6mm" viewBox="0 0 152.4 101.6"
     stroke="none"
     fill="#000000"
     stroke-width="0.3"
     font-size="3.88"
>
<g class="plotroot xscalable yscalable" id="fig-e2b3033a11bb41389f48edadab3a145e-element-1">
  <g font-size="3.88" font-family="'PT Sans','Helvetica Neue','Helvetica',sans-serif" fill="#564A55" stroke="none" id="fig-e2b3033a11bb41389f48edadab3a145e-element-2">
    <text x="75.56" y="93.6" text-anchor="middle">x</text>
  </g>
  <g class="guide xlabels" font-size="2.82" font-family="'PT Sans Caption','Helvetica Neue','Helvetica',sans-serif" fill="#6C606B" id="fig-e2b3033a11bb41389f48edadab3a145e-element-3">
    <text x="19.94" y="87.99" text-anchor="middle">-3</text>
    <text x="47.75" y="87.99" text-anchor="middle">-2</text>
    <text x="75.56" y="87.99" text-anchor="middle">-1</text>
    <text x="103.37" y="87.99" text-anchor="middle">0</text>
    <text x="131.18" y="87.99" text-anchor="middle">1</text>
  </g>
  <g class="guide colorkey" id="fig-e2b3033a11bb41389f48edadab3a145e-element-4">
    <g font-size="2.82" font-family="'PT Sans','Helvetica Neue','Helvetica',sans-serif" fill="#4C404B" id="fig-e2b3033a11bb41389f48edadab3a145e-element-5">
      <text x="137.5" y="40.45" dy="0.35em">500</text>
      <text x="137.5" y="59.24" dy="0.35em">200</text>
      <text x="137.5" y="46.71" dy="0.35em">400</text>
      <text x="137.5" y="52.97" dy="0.35em">300</text>
      <text x="137.5" y="71.7" dy="0.35em">1</text>
      <text x="137.5" y="65.5" dy="0.35em">100</text>
    </g>
    <g shape-rendering="crispEdges" stroke="none" id="fig-e2b3033a11bb41389f48edadab3a145e-element-6">
      <rect x="135.18" y="70.92" width="1.31" height="0.78" fill="#004D84"/>
      <rect x="135.18" y="70.14" width="1.31" height="0.78" fill="#005B8D"/>
      <rect x="135.18" y="69.36" width="1.31" height="0.78" fill="#006995"/>
      <rect x="135.18" y="68.58" width="1.31" height="0.78" fill="#00769D"/>
      <rect x="135.18" y="67.79" width="1.31" height="0.78" fill="#0083A3"/>
      <rect x="135.18" y="67.01" width="1.31" height="0.78" fill="#278FA9"/>
      <rect x="135.18" y="66.23" width="1.31" height="0.78" fill="#409BAF"/>
      <rect x="135.18" y="65.45" width="1.31" height="0.78" fill="#55A7B5"/>
      <rect x="135.18" y="64.67" width="1.31" height="0.78" fill="#69B2BA"/>
      <rect x="135.18" y="63.89" width="1.31" height="0.78" fill="#7BBCC0"/>
      <rect x="135.18" y="63.11" width="1.31" height="0.78" fill="#8DC6C5"/>
      <rect x="135.18" y="62.33" width="1.31" height="0.78" fill="#9ED0CB"/>
      <rect x="135.18" y="61.54" width="1.31" height="0.78" fill="#A5CFC7"/>
      <rect x="135.18" y="60.76" width="1.31" height="0.78" fill="#ABCEC4"/>
      <rect x="135.18" y="59.98" width="1.31" height="0.78" fill="#B1CCC2"/>
      <rect x="135.18" y="59.2" width="1.31" height="0.78" fill="#B5CCC1"/>
      <rect x="135.18" y="58.42" width="1.31" height="0.78" fill="#B7CBBF"/>
      <rect x="135.18" y="57.64" width="1.31" height="0.78" fill="#B9CBBD"/>
      <rect x="135.18" y="56.86" width="1.31" height="0.78" fill="#BBCBBB"/>
      <rect x="135.18" y="56.07" width="1.31" height="0.78" fill="#BDCABA"/>
      <rect x="135.18" y="55.29" width="1.31" height="0.78" fill="#BFCAB8"/>
      <rect x="135.18" y="54.51" width="1.31" height="0.78" fill="#C2C9B7"/>
      <rect x="135.18" y="53.73" width="1.31" height="0.78" fill="#C4C9B6"/>
      <rect x="135.18" y="52.95" width="1.31" height="0.78" fill="#C6C8B5"/>
      <rect x="135.18" y="52.17" width="1.31" height="0.78" fill="#C9C7B4"/>
      <rect x="135.18" y="51.39" width="1.31" height="0.78" fill="#CCC7B2"/>
      <rect x="135.18" y="50.61" width="1.31" height="0.78" fill="#CFC6AE"/>
      <rect x="135.18" y="49.82" width="1.31" height="0.78" fill="#D4C5AA"/>
      <rect x="135.18" y="49.04" width="1.31" height="0.78" fill="#D8C3A6"/>
      <rect x="135.18" y="48.26" width="1.31" height="0.78" fill="#D3B79A"/>
      <rect x="135.18" y="47.48" width="1.31" height="0.78" fill="#CDAB8E"/>
      <rect x="135.18" y="46.7" width="1.31" height="0.78" fill="#C89E82"/>
      <rect x="135.18" y="45.92" width="1.31" height="0.78" fill="#C19177"/>
      <rect x="135.18" y="45.14" width="1.31" height="0.78" fill="#BA836C"/>
      <rect x="135.18" y="44.36" width="1.31" height="0.78" fill="#B27563"/>
      <rect x="135.18" y="43.57" width="1.31" height="0.78" fill="#AA665A"/>
      <rect x="135.18" y="42.79" width="1.31" height="0.78" fill="#A05752"/>
      <rect x="135.18" y="42.01" width="1.31" height="0.78" fill="#96484A"/>
      <rect x="135.18" y="41.23" width="1.31" height="0.78" fill="#8B3844"/>
      <rect x="135.18" y="40.45" width="1.31" height="0.78" fill="#7E273E"/>
      <g stroke="#FFFFFF" stroke-width="0.2" id="fig-e2b3033a11bb41389f48edadab3a145e-element-7">
        <path d="M135.18,40.45 L 136.5 40.45" fill="#004D84"/>
        <path d="M135.18,59.24 L 136.5 59.24" fill="#005B8D"/>
        <path d="M135.18,46.71 L 136.5 46.71" fill="#006995"/>
        <path d="M135.18,52.97 L 136.5 52.97" fill="#00769D"/>
        <path d="M135.18,71.7 L 136.5 71.7" fill="#0083A3"/>
        <path d="M135.18,65.5 L 136.5 65.5" fill="#278FA9"/>
      </g>
    </g>
    <g fill="#362A35" font-size="3.88" font-family="'PT Sans','Helvetica Neue','Helvetica',sans-serif" stroke="none" id="fig-e2b3033a11bb41389f48edadab3a145e-element-8">
      <text x="135.18" y="36.45">Iteration</text>
    </g>
  </g>
  <g clip-path="url(#fig-e2b3033a11bb41389f48edadab3a145e-element-10)" id="fig-e2b3033a11bb41389f48edadab3a145e-element-9">
    <g pointer-events="visible" opacity="1" fill="none" stroke="none" class="guide background" id="fig-e2b3033a11bb41389f48edadab3a145e-element-11">
      <rect x="17.94" y="12.61" width="115.24" height="71.7"/>
    </g>
    <g class="guide ygridlines xfixed" stroke-dasharray="0.5,0.5" stroke-width="0.2" stroke="#D0D0E0" id="fig-e2b3033a11bb41389f48edadab3a145e-element-12">
      <path d="M17.94,82.32 L 133.18 82.32"/>
      <path d="M17.94,68.77 L 133.18 68.77"/>
      <path d="M17.94,55.23 L 133.18 55.23"/>
      <path d="M17.94,41.69 L 133.18 41.69"/>
      <path d="M17.94,28.15 L 133.18 28.15"/>
      <path d="M17.94,14.61 L 133.18 14.61"/>
    </g>
    <g class="guide xgridlines yfixed" stroke-dasharray="0.5,0.5" stroke-width="0.2" stroke="#D0D0E0" id="fig-e2b3033a11bb41389f48edadab3a145e-element-13">
      <path d="M19.94,12.61 L 19.94 84.32"/>
      <path d="M47.75,12.61 L 47.75 84.32"/>
      <path d="M75.56,12.61 L 75.56 84.32"/>
      <path d="M103.37,12.61 L 103.37 84.32"/>
      <path d="M131.18,12.61 L 131.18 84.32"/>
    </g>
    <g class="plotpanel" id="fig-e2b3033a11bb41389f48edadab3a145e-element-14">
      <g class="geometry" id="fig-e2b3033a11bb41389f48edadab3a145e-element-15">
        <g stroke-width="0.3" id="fig-e2b3033a11bb41389f48edadab3a145e-element-16">
          <circle cx="105.26" cy="25.91" r="0.9" fill="#004D84" stroke="#000337"/>
          <circle cx="104.89" cy="24.32" r="0.9" fill="#004E85" stroke="#000436"/>
          <circle cx="105.07" cy="24.62" r="0.9" fill="#004F86" stroke="#000436"/>
          <circle cx="109.44" cy="26.48" r="0.9" fill="#005186" stroke="#000436"/>
          <circle cx="110.55" cy="24.28" r="0.9" fill="#005287" stroke="#000536"/>
          <circle cx="110.03" cy="28.64" r="0.9" fill="#005388" stroke="#000535"/>
          <circle cx="116.36" cy="28.04" r="0.9" fill="#005488" stroke="#000535"/>
          <circle cx="114.69" cy="24.95" r="0.9" fill="#005589" stroke="#000535"/>
          <circle cx="115.46" cy="24.65" r="0.9" fill="#00568A" stroke="#000635"/>
          <circle cx="116.78" cy="23.83" r="0.9" fill="#00578A" stroke="#000634"/>
          <circle cx="120.74" cy="22.73" r="0.9" fill="#00588B" stroke="#000634"/>
          <circle cx="119.91" cy="20.85" r="0.9" fill="#00598C" stroke="#000734"/>
          <circle cx="119.91" cy="20.85" r="0.9" fill="#005A8D" stroke="#000734"/>
          <circle cx="123.8" cy="19.55" r="0.9" fill="#005B8D" stroke="#000733"/>
          <circle cx="124.49" cy="20.04" r="0.9" fill="#005C8E" stroke="#000733"/>
          <circle cx="123.97" cy="16.6" r="0.9" fill="#005D8E" stroke="#000833"/>
          <circle cx="123.78" cy="15.03" r="0.9" fill="#005E8F" stroke="#000833"/>
          <circle cx="117.4" cy="18.21" r="0.9" fill="#006090" stroke="#000832"/>
          <circle cx="116.03" cy="16.82" r="0.9" fill="#006190" stroke="#000832"/>
          <circle cx="113.89" cy="16.91" r="0.9" fill="#006291" stroke="#000932"/>
          <circle cx="112.55" cy="20.04" r="0.9" fill="#006392" stroke="#000931"/>
          <circle cx="108.73" cy="24.21" r="0.9" fill="#006492" stroke="#000931"/>
          <circle cx="103.29" cy="25.49" r="0.9" fill="#006593" stroke="#000A31"/>
          <circle cx="105.53" cy="28.33" r="0.9" fill="#006694" stroke="#000C32"/>
          <circle cx="105.96" cy="29.23" r="0.9" fill="#006794" stroke="#000D32"/>
          <circle cx="104.73" cy="26.26" r="0.9" fill="#006895" stroke="#000F33"/>
          <circle cx="105.54" cy="35.65" r="0.9" fill="#006995" stroke="#001033"/>
          <circle cx="105.87" cy="29.95" r="0.9" fill="#006A96" stroke="#001134"/>
          <circle cx="100" cy="28.44" r="0.9" fill="#006B97" stroke="#001234"/>
          <circle cx="98.68" cy="27.97" r="0.9" fill="#006C97" stroke="#001335"/>
          <circle cx="99.9" cy="23.43" r="0.9" fill="#006D98" stroke="#001435"/>
          <circle cx="106.34" cy="23.65" r="0.9" fill="#006E98" stroke="#001536"/>
          <circle cx="109.73" cy="26.96" r="0.9" fill="#006F99" stroke="#001636"/>
          <circle cx="111.95" cy="28.81" r="0.9" fill="#007099" stroke="#001737"/>
          <circle cx="112.35" cy="29.15" r="0.9" fill="#00719A" stroke="#001837"/>
          <circle cx="112.35" cy="29.15" r="0.9" fill="#00729B" stroke="#001938"/>
          <circle cx="109.13" cy="27.71" r="0.9" fill="#00739B" stroke="#001A38"/>
          <circle cx="111.87" cy="30.93" r="0.9" fill="#00749C" stroke="#001A39"/>
          <circle cx="111.87" cy="32.22" r="0.9" fill="#00759C" stroke="#001B39"/>
          <circle cx="109.53" cy="33.55" r="0.9" fill="#00769D" stroke="#001C3A"/>
          <circle cx="104.97" cy="38.02" r="0.9" fill="#00779D" stroke="#001D3A"/>
          <circle cx="105.14" cy="37.7" r="0.9" fill="#00799E" stroke="#001D3B"/>
          <circle cx="103.22" cy="37.85" r="0.9" fill="#007A9E" stroke="#001E3B"/>
          <circle cx="99.24" cy="39.07" r="0.9" fill="#007B9F" stroke="#001F3C"/>
          <circle cx="102.24" cy="39.23" r="0.9" fill="#007CA0" stroke="#001F3C"/>
          <circle cx="99.57" cy="38.65" r="0.9" fill="#007DA0" stroke="#00203D"/>
          <circle cx="93.83" cy="37.98" r="0.9" fill="#007EA1" stroke="#00213D"/>
          <circle cx="103.28" cy="36.26" r="0.9" fill="#007FA1" stroke="#00213D"/>
          <circle cx="103.69" cy="35.16" r="0.9" fill="#0080A2" stroke="#00223E"/>
          <circle cx="100.35" cy="36.18" r="0.9" fill="#0081A2" stroke="#00233E"/>
          <circle cx="97.62" cy="38.24" r="0.9" fill="#0082A3" stroke="#00243F"/>
          <circle cx="95.31" cy="42.15" r="0.9" fill="#0083A3" stroke="#00243F"/>
          <circle cx="95.71" cy="38.59" r="0.9" fill="#0084A4" stroke="#002540"/>
          <circle cx="93.81" cy="40.26" r="0.9" fill="#0085A4" stroke="#002640"/>
          <circle cx="92.69" cy="40.87" r="0.9" fill="#0486A5" stroke="#002641"/>
          <circle cx="94.46" cy="42.08" r="0.9" fill="#0A87A5" stroke="#002741"/>
          <circle cx="91.56" cy="46.63" r="0.9" fill="#0F88A6" stroke="#002841"/>
          <circle cx="90.13" cy="46.12" r="0.9" fill="#1389A6" stroke="#002942"/>
          <circle cx="89.25" cy="42.57" r="0.9" fill="#1789A7" stroke="#002A42"/>
          <circle cx="88.73" cy="44.62" r="0.9" fill="#1A8AA7" stroke="#002A43"/>
          <circle cx="90.14" cy="41.58" r="0.9" fill="#1D8BA8" stroke="#002B43"/>
          <circle cx="93.4" cy="38.79" r="0.9" fill="#208CA8" stroke="#002C44"/>
          <circle cx="90.71" cy="33.68" r="0.9" fill="#228DA8" stroke="#002D44"/>
          <circle cx="89.79" cy="29.31" r="0.9" fill="#258EA9" stroke="#002E44"/>
          <circle cx="85.35" cy="32" r="0.9" fill="#278FA9" stroke="#002E45"/>
          <circle cx="80.36" cy="35.1" r="0.9" fill="#2990AA" stroke="#002F45"/>
          <circle cx="74.49" cy="31.8" r="0.9" fill="#2C91AA" stroke="#003046"/>
          <circle cx="71.7" cy="33.17" r="0.9" fill="#2E92AB" stroke="#003146"/>
          <circle cx="74.23" cy="31.21" r="0.9" fill="#3093AB" stroke="#003246"/>
          <circle cx="73.57" cy="34.01" r="0.9" fill="#3294AC" stroke="#003247"/>
          <circle cx="70.33" cy="30.73" r="0.9" fill="#3495AC" stroke="#003347"/>
          <circle cx="69.35" cy="34.18" r="0.9" fill="#3696AD" stroke="#003448"/>
          <circle cx="69.35" cy="34.18" r="0.9" fill="#3897AD" stroke="#003548"/>
          <circle cx="67.07" cy="33.72" r="0.9" fill="#3A98AE" stroke="#003548"/>
          <circle cx="67.07" cy="33.72" r="0.9" fill="#3B99AE" stroke="#003649"/>
          <circle cx="64.29" cy="36.69" r="0.9" fill="#3D9AAE" stroke="#003749"/>
          <circle cx="62.52" cy="33.78" r="0.9" fill="#3F9BAF" stroke="#00384A"/>
          <circle cx="63.29" cy="31.55" r="0.9" fill="#419CAF" stroke="#00394A"/>
          <circle cx="63.5" cy="31.65" r="0.9" fill="#429DB0" stroke="#00394A"/>
          <circle cx="64.88" cy="30.84" r="0.9" fill="#449DB0" stroke="#003A4B"/>
          <circle cx="65.3" cy="34.28" r="0.9" fill="#469EB1" stroke="#003B4B"/>
          <circle cx="63.09" cy="33.53" r="0.9" fill="#489FB1" stroke="#003C4C"/>
          <circle cx="59.32" cy="34.6" r="0.9" fill="#49A0B2" stroke="#003C4C"/>
          <circle cx="56.93" cy="37.49" r="0.9" fill="#4BA1B2" stroke="#003D4C"/>
          <circle cx="59.5" cy="39.04" r="0.9" fill="#4DA2B2" stroke="#003E4D"/>
          <circle cx="59.35" cy="38.74" r="0.9" fill="#4EA3B3" stroke="#003F4D"/>
          <circle cx="57.67" cy="43.05" r="0.9" fill="#50A4B3" stroke="#00404E"/>
          <circle cx="55.38" cy="45.6" r="0.9" fill="#51A5B4" stroke="#00404E"/>
          <circle cx="55.44" cy="46.35" r="0.9" fill="#53A6B4" stroke="#00414E"/>
          <circle cx="55.44" cy="46.35" r="0.9" fill="#54A6B5" stroke="#00424F"/>
          <circle cx="55.44" cy="46.35" r="0.9" fill="#56A7B5" stroke="#00434F"/>
          <circle cx="57.5" cy="40.23" r="0.9" fill="#58A8B5" stroke="#00434F"/>
          <circle cx="57.35" cy="39.1" r="0.9" fill="#59A9B6" stroke="#004450"/>
          <circle cx="60.68" cy="35.08" r="0.9" fill="#5BAAB6" stroke="#004550"/>
          <circle cx="60.32" cy="33.18" r="0.9" fill="#5CABB7" stroke="#004651"/>
          <circle cx="59.17" cy="35.06" r="0.9" fill="#5EACB7" stroke="#004651"/>
          <circle cx="59.3" cy="33.96" r="0.9" fill="#5FADB8" stroke="#004751"/>
          <circle cx="59.48" cy="35.79" r="0.9" fill="#61ADB8" stroke="#004852"/>
          <circle cx="59.68" cy="35.53" r="0.9" fill="#62AEB8" stroke="#004952"/>
          <circle cx="58.72" cy="37.79" r="0.9" fill="#64AFB9" stroke="#004952"/>
          <circle cx="60.23" cy="39.72" r="0.9" fill="#65B0B9" stroke="#004A53"/>
          <circle cx="64.08" cy="40.97" r="0.9" fill="#67B1BA" stroke="#004B53"/>
          <circle cx="62.66" cy="42.27" r="0.9" fill="#68B2BA" stroke="#004C53"/>
          <circle cx="61.35" cy="39.02" r="0.9" fill="#6AB3BA" stroke="#004C54"/>
          <circle cx="59.41" cy="44.92" r="0.9" fill="#6BB3BB" stroke="#004D54"/>
          <circle cx="59.01" cy="42.65" r="0.9" fill="#6DB4BB" stroke="#004E55"/>
          <circle cx="58.45" cy="46.66" r="0.9" fill="#6EB5BC" stroke="#004E55"/>
          <circle cx="60.54" cy="48.77" r="0.9" fill="#6FB6BC" stroke="#004F55"/>
          <circle cx="58.72" cy="51.87" r="0.9" fill="#71B7BD" stroke="#005056"/>
          <circle cx="59.05" cy="57.43" r="0.9" fill="#72B8BD" stroke="#005156"/>
          <circle cx="57.5" cy="56.39" r="0.9" fill="#74B8BD" stroke="#005156"/>
          <circle cx="57.5" cy="56.39" r="0.9" fill="#75B9BE" stroke="#005257"/>
          <circle cx="60.44" cy="57.93" r="0.9" fill="#77BABE" stroke="#005357"/>
          <circle cx="64.77" cy="53.16" r="0.9" fill="#78BBBF" stroke="#005358"/>
          <circle cx="66.4" cy="48.06" r="0.9" fill="#79BCBF" stroke="#015458"/>
          <circle cx="66.4" cy="48.06" r="0.9" fill="#7BBCC0" stroke="#055558"/>
          <circle cx="67.25" cy="47.34" r="0.9" fill="#7CBDC0" stroke="#085659"/>
          <circle cx="66.44" cy="45.36" r="0.9" fill="#7EBEC0" stroke="#0C5659"/>
          <circle cx="69.23" cy="41" r="0.9" fill="#7FBFC1" stroke="#0F5759"/>
          <circle cx="72.35" cy="40.03" r="0.9" fill="#80BFC1" stroke="#12585A"/>
          <circle cx="73.62" cy="39.31" r="0.9" fill="#82C0C2" stroke="#14585A"/>
          <circle cx="73.16" cy="37.6" r="0.9" fill="#83C1C2" stroke="#16595B"/>
          <circle cx="73.16" cy="37.6" r="0.9" fill="#85C2C2" stroke="#195A5B"/>
          <circle cx="72.72" cy="40.3" r="0.9" fill="#86C3C3" stroke="#1B5A5B"/>
          <circle cx="77.18" cy="41.57" r="0.9" fill="#87C3C3" stroke="#1D5B5C"/>
          <circle cx="80.93" cy="44.21" r="0.9" fill="#89C4C4" stroke="#1E5C5C"/>
          <circle cx="81.53" cy="40.65" r="0.9" fill="#8AC5C4" stroke="#205C5C"/>
          <circle cx="89.57" cy="44.15" r="0.9" fill="#8BC6C5" stroke="#225D5D"/>
          <circle cx="88.08" cy="47.12" r="0.9" fill="#8DC6C5" stroke="#245E5D"/>
          <circle cx="86.48" cy="42.05" r="0.9" fill="#8EC7C6" stroke="#255E5E"/>
          <circle cx="88.82" cy="41.51" r="0.9" fill="#8FC8C6" stroke="#275F5E"/>
          <circle cx="86.81" cy="40.24" r="0.9" fill="#91C9C6" stroke="#29605E"/>
          <circle cx="80.33" cy="43.28" r="0.9" fill="#92C9C7" stroke="#2A605F"/>
          <circle cx="80.33" cy="43.28" r="0.9" fill="#93CAC7" stroke="#2C615F"/>
          <circle cx="81.62" cy="38.41" r="0.9" fill="#95CBC8" stroke="#2D625F"/>
          <circle cx="84.91" cy="35.82" r="0.9" fill="#96CCC8" stroke="#2F6260"/>
          <circle cx="91.42" cy="37.54" r="0.9" fill="#97CCC9" stroke="#306360"/>
          <circle cx="90.04" cy="35.36" r="0.9" fill="#99CDC9" stroke="#316461"/>
          <circle cx="90.43" cy="35.59" r="0.9" fill="#9ACEC9" stroke="#336461"/>
          <circle cx="89.17" cy="38.02" r="0.9" fill="#9BCECA" stroke="#346561"/>
          <circle cx="92.77" cy="35.56" r="0.9" fill="#9DCFCA" stroke="#356562"/>
          <circle cx="89.62" cy="40.11" r="0.9" fill="#9ED0CB" stroke="#376662"/>
          <circle cx="85.76" cy="42.84" r="0.9" fill="#9FD0CB" stroke="#386662"/>
          <circle cx="83.39" cy="45.94" r="0.9" fill="#9FD0CA" stroke="#386662"/>
          <circle cx="81.89" cy="44.12" r="0.9" fill="#A0D0CA" stroke="#396662"/>
          <circle cx="82.32" cy="45.24" r="0.9" fill="#A0D0CA" stroke="#396661"/>
          <circle cx="86.95" cy="40.91" r="0.9" fill="#A1D0C9" stroke="#3A6661"/>
          <circle cx="87.74" cy="39.94" r="0.9" fill="#A1CFC9" stroke="#3B6661"/>
          <circle cx="87.51" cy="40.14" r="0.9" fill="#A2CFC9" stroke="#3B6660"/>
          <circle cx="87.56" cy="39.1" r="0.9" fill="#A2CFC9" stroke="#3C6660"/>
          <circle cx="86.85" cy="42.28" r="0.9" fill="#A3CFC8" stroke="#3C6660"/>
          <circle cx="84.51" cy="43.56" r="0.9" fill="#A3CFC8" stroke="#3D6660"/>
          <circle cx="86.52" cy="47.83" r="0.9" fill="#A4CFC8" stroke="#3E665F"/>
          <circle cx="83.08" cy="49.48" r="0.9" fill="#A4CFC7" stroke="#3E655F"/>
          <circle cx="83.08" cy="49.48" r="0.9" fill="#A5CFC7" stroke="#3F655F"/>
          <circle cx="80.8" cy="50.16" r="0.9" fill="#A5CFC7" stroke="#3F655F"/>
          <circle cx="80.8" cy="50.16" r="0.9" fill="#A6CFC7" stroke="#40655F"/>
          <circle cx="80.64" cy="49.46" r="0.9" fill="#A6CFC6" stroke="#40655E"/>
          <circle cx="78.46" cy="52.66" r="0.9" fill="#A7CEC6" stroke="#41655E"/>
          <circle cx="75.1" cy="53.42" r="0.9" fill="#A8CEC6" stroke="#41655E"/>
          <circle cx="75.62" cy="51.38" r="0.9" fill="#A8CEC6" stroke="#42655E"/>
          <circle cx="76" cy="54.55" r="0.9" fill="#A9CEC6" stroke="#42655E"/>
          <circle cx="77.34" cy="48.27" r="0.9" fill="#A9CEC5" stroke="#43655D"/>
          <circle cx="75.7" cy="45.91" r="0.9" fill="#AACEC5" stroke="#43655D"/>
          <circle cx="80.05" cy="47.95" r="0.9" fill="#AACEC5" stroke="#44655D"/>
          <circle cx="78.9" cy="45.74" r="0.9" fill="#AACEC5" stroke="#44655D"/>
          <circle cx="76.16" cy="44.96" r="0.9" fill="#ABCEC5" stroke="#45645D"/>
          <circle cx="71.03" cy="44.46" r="0.9" fill="#ABCEC4" stroke="#45645C"/>
          <circle cx="68.81" cy="41.83" r="0.9" fill="#ACCEC4" stroke="#46645C"/>
          <circle cx="69.26" cy="42.63" r="0.9" fill="#ACCDC4" stroke="#46645C"/>
          <circle cx="69.49" cy="48.28" r="0.9" fill="#ADCDC4" stroke="#47645C"/>
          <circle cx="70.9" cy="53.64" r="0.9" fill="#ADCDC4" stroke="#47645C"/>
          <circle cx="72.2" cy="51.72" r="0.9" fill="#AECDC3" stroke="#48645C"/>
          <circle cx="71.37" cy="50.67" r="0.9" fill="#AECDC3" stroke="#48645C"/>
          <circle cx="70.16" cy="49.85" r="0.9" fill="#AFCDC3" stroke="#49645B"/>
          <circle cx="68.84" cy="49.16" r="0.9" fill="#AFCDC3" stroke="#49645B"/>
          <circle cx="66.4" cy="49.74" r="0.9" fill="#B0CDC3" stroke="#4A645B"/>
          <circle cx="66.78" cy="51.03" r="0.9" fill="#B0CDC3" stroke="#4A645B"/>
          <circle cx="66.78" cy="51.03" r="0.9" fill="#B1CDC3" stroke="#4B645B"/>
          <circle cx="64.37" cy="55.29" r="0.9" fill="#B1CCC2" stroke="#4B635B"/>
          <circle cx="64.89" cy="58.41" r="0.9" fill="#B2CCC2" stroke="#4B635B"/>
          <circle cx="66.08" cy="63.09" r="0.9" fill="#B2CCC2" stroke="#4C635B"/>
          <circle cx="64.73" cy="63.25" r="0.9" fill="#B2CCC2" stroke="#4C635B"/>
          <circle cx="68.7" cy="64.86" r="0.9" fill="#B3CCC2" stroke="#4D635A"/>
          <circle cx="74.79" cy="63.82" r="0.9" fill="#B3CCC2" stroke="#4D635A"/>
          <circle cx="74.79" cy="63.82" r="0.9" fill="#B4CCC2" stroke="#4D635A"/>
          <circle cx="78.02" cy="62.86" r="0.9" fill="#B4CCC2" stroke="#4E635A"/>
          <circle cx="79.78" cy="67.09" r="0.9" fill="#B5CCC2" stroke="#4E635A"/>
          <circle cx="82.08" cy="66.98" r="0.9" fill="#B5CCC1" stroke="#4E635A"/>
          <circle cx="77.76" cy="67.6" r="0.9" fill="#B5CCC1" stroke="#4F635A"/>
          <circle cx="80.77" cy="65.39" r="0.9" fill="#B5CCC1" stroke="#4F635A"/>
          <circle cx="78.43" cy="63.3" r="0.9" fill="#B5CCC1" stroke="#4F635A"/>
          <circle cx="82.32" cy="58.33" r="0.9" fill="#B5CCC1" stroke="#4F6359"/>
          <circle cx="83.24" cy="56.28" r="0.9" fill="#B5CCC1" stroke="#4F6359"/>
          <circle cx="84.7" cy="55.47" r="0.9" fill="#B5CCC1" stroke="#4F6359"/>
          <circle cx="78.41" cy="61.37" r="0.9" fill="#B6CCC0" stroke="#4F6359"/>
          <circle cx="73.26" cy="54.68" r="0.9" fill="#B6CCC0" stroke="#4F6359"/>
          <circle cx="73.85" cy="53.64" r="0.9" fill="#B6CBC0" stroke="#4F6359"/>
          <circle cx="76.46" cy="53.34" r="0.9" fill="#B6CBC0" stroke="#506359"/>
          <circle cx="78.27" cy="49.34" r="0.9" fill="#B6CBC0" stroke="#506359"/>
          <circle cx="78.81" cy="49.92" r="0.9" fill="#B6CBC0" stroke="#506358"/>
          <circle cx="76.13" cy="49.9" r="0.9" fill="#B6CBBF" stroke="#506358"/>
          <circle cx="76.92" cy="48.89" r="0.9" fill="#B7CBBF" stroke="#506358"/>
          <circle cx="81.99" cy="47.51" r="0.9" fill="#B7CBBF" stroke="#506358"/>
          <circle cx="81.83" cy="46.72" r="0.9" fill="#B7CBBF" stroke="#506258"/>
          <circle cx="85.08" cy="47.63" r="0.9" fill="#B7CBBF" stroke="#516258"/>
          <circle cx="83.71" cy="46.18" r="0.9" fill="#B7CBBF" stroke="#516258"/>
          <circle cx="84.14" cy="45.43" r="0.9" fill="#B7CBBF" stroke="#516257"/>
          <circle cx="90.6" cy="46.18" r="0.9" fill="#B7CBBE" stroke="#516257"/>
          <circle cx="88.56" cy="46.92" r="0.9" fill="#B8CBBE" stroke="#516257"/>
          <circle cx="92.68" cy="40.22" r="0.9" fill="#B8CBBE" stroke="#516257"/>
          <circle cx="93.45" cy="39.94" r="0.9" fill="#B8CBBE" stroke="#516257"/>
          <circle cx="92.05" cy="41.32" r="0.9" fill="#B8CBBE" stroke="#516257"/>
          <circle cx="88.74" cy="39.87" r="0.9" fill="#B8CBBE" stroke="#526257"/>
          <circle cx="89.65" cy="35.67" r="0.9" fill="#B8CBBE" stroke="#526257"/>
          <circle cx="92.34" cy="39.3" r="0.9" fill="#B9CBBD" stroke="#526256"/>
          <circle cx="93.64" cy="42.11" r="0.9" fill="#B9CBBD" stroke="#526256"/>
          <circle cx="95.53" cy="46.75" r="0.9" fill="#B9CBBD" stroke="#526256"/>
          <circle cx="93.41" cy="50.83" r="0.9" fill="#B9CBBD" stroke="#526256"/>
          <circle cx="90.57" cy="51.22" r="0.9" fill="#B9CBBD" stroke="#526256"/>
          <circle cx="86.68" cy="47.49" r="0.9" fill="#B9CBBD" stroke="#536256"/>
          <circle cx="87.85" cy="46.7" r="0.9" fill="#B9CBBD" stroke="#536256"/>
          <circle cx="94.37" cy="44.46" r="0.9" fill="#BACBBC" stroke="#536256"/>
          <circle cx="95.84" cy="43.1" r="0.9" fill="#BACBBC" stroke="#536255"/>
          <circle cx="98.25" cy="42.58" r="0.9" fill="#BACBBC" stroke="#536255"/>
          <circle cx="99.59" cy="41.86" r="0.9" fill="#BACBBC" stroke="#536255"/>
          <circle cx="100.95" cy="44.78" r="0.9" fill="#BACBBC" stroke="#536255"/>
          <circle cx="97.49" cy="45.05" r="0.9" fill="#BACBBC" stroke="#546255"/>
          <circle cx="91.88" cy="46.21" r="0.9" fill="#BBCBBC" stroke="#546255"/>
          <circle cx="92.01" cy="46.53" r="0.9" fill="#BBCBBC" stroke="#546255"/>
          <circle cx="88.29" cy="46.72" r="0.9" fill="#BBCBBB" stroke="#546255"/>
          <circle cx="90.51" cy="43.98" r="0.9" fill="#BBCBBB" stroke="#546255"/>
          <circle cx="92.29" cy="49.64" r="0.9" fill="#BBCBBB" stroke="#546254"/>
          <circle cx="90.16" cy="48.34" r="0.9" fill="#BBCABB" stroke="#556254"/>
          <circle cx="91.97" cy="46.02" r="0.9" fill="#BCCABB" stroke="#556254"/>
          <circle cx="90.81" cy="50.48" r="0.9" fill="#BCCABB" stroke="#556254"/>
          <circle cx="89.22" cy="49.9" r="0.9" fill="#BCCABB" stroke="#556254"/>
          <circle cx="90.21" cy="47.97" r="0.9" fill="#BCCABA" stroke="#556254"/>
          <circle cx="87.68" cy="49.58" r="0.9" fill="#BCCABA" stroke="#556254"/>
          <circle cx="85.02" cy="49.11" r="0.9" fill="#BCCABA" stroke="#556254"/>
          <circle cx="82" cy="53.07" r="0.9" fill="#BDCABA" stroke="#566254"/>
          <circle cx="81.75" cy="55.93" r="0.9" fill="#BDCABA" stroke="#566253"/>
          <circle cx="80.43" cy="56.57" r="0.9" fill="#BDCABA" stroke="#566253"/>
          <circle cx="76.46" cy="59.17" r="0.9" fill="#BDCABA" stroke="#566253"/>
          <circle cx="78.1" cy="60.63" r="0.9" fill="#BDCABA" stroke="#566153"/>
          <circle cx="80.33" cy="60.58" r="0.9" fill="#BDCABA" stroke="#566153"/>
          <circle cx="80.54" cy="58.73" r="0.9" fill="#BECAB9" stroke="#566153"/>
          <circle cx="78.61" cy="64.44" r="0.9" fill="#BECAB9" stroke="#576153"/>
          <circle cx="78.83" cy="62.13" r="0.9" fill="#BECAB9" stroke="#576153"/>
          <circle cx="82.32" cy="56.29" r="0.9" fill="#BECAB9" stroke="#576153"/>
          <circle cx="80.62" cy="57.08" r="0.9" fill="#BECAB9" stroke="#576153"/>
          <circle cx="81.56" cy="58.63" r="0.9" fill="#BFCAB9" stroke="#576152"/>
          <circle cx="85.7" cy="62.38" r="0.9" fill="#BFCAB9" stroke="#576152"/>
          <circle cx="84.27" cy="60.24" r="0.9" fill="#BFCAB9" stroke="#586152"/>
          <circle cx="84.78" cy="60.14" r="0.9" fill="#BFCAB9" stroke="#586152"/>
          <circle cx="82.94" cy="59.18" r="0.9" fill="#BFCAB8" stroke="#586152"/>
          <circle cx="83.34" cy="59.16" r="0.9" fill="#BFCAB8" stroke="#586152"/>
          <circle cx="86.42" cy="58.85" r="0.9" fill="#C0CAB8" stroke="#586152"/>
          <circle cx="82.36" cy="57.91" r="0.9" fill="#C0CAB8" stroke="#586152"/>
          <circle cx="81.93" cy="57.43" r="0.9" fill="#C0CAB8" stroke="#596152"/>
          <circle cx="83.03" cy="59.04" r="0.9" fill="#C0C9B8" stroke="#596152"/>
          <circle cx="84.31" cy="62.94" r="0.9" fill="#C0C9B8" stroke="#596151"/>
          <circle cx="85.24" cy="65.57" r="0.9" fill="#C1C9B8" stroke="#596151"/>
          <circle cx="85.28" cy="64.07" r="0.9" fill="#C1C9B8" stroke="#596151"/>
          <circle cx="91.56" cy="65.29" r="0.9" fill="#C1C9B7" stroke="#596151"/>
          <circle cx="90.4" cy="65.94" r="0.9" fill="#C1C9B7" stroke="#596151"/>
          <circle cx="87.67" cy="64.83" r="0.9" fill="#C1C9B7" stroke="#5A6151"/>
          <circle cx="89.24" cy="61.22" r="0.9" fill="#C1C9B7" stroke="#5A6151"/>
          <circle cx="86.44" cy="59.76" r="0.9" fill="#C2C9B7" stroke="#5A6151"/>
          <circle cx="87.81" cy="60.16" r="0.9" fill="#C2C9B7" stroke="#5A6151"/>
          <circle cx="87.81" cy="60.16" r="0.9" fill="#C2C9B7" stroke="#5A6151"/>
          <circle cx="85.18" cy="55.11" r="0.9" fill="#C2C9B7" stroke="#5A6151"/>
          <circle cx="80.64" cy="54.31" r="0.9" fill="#C2C9B7" stroke="#5B6151"/>
          <circle cx="78.89" cy="50.88" r="0.9" fill="#C3C9B7" stroke="#5B6051"/>
          <circle cx="74.66" cy="50.37" r="0.9" fill="#C3C9B7" stroke="#5B6050"/>
          <circle cx="77.14" cy="48.07" r="0.9" fill="#C3C9B6" stroke="#5B6050"/>
          <circle cx="80.37" cy="49.07" r="0.9" fill="#C3C9B6" stroke="#5B6050"/>
          <circle cx="84.38" cy="43.65" r="0.9" fill="#C3C9B6" stroke="#5B6050"/>
          <circle cx="84.69" cy="47.3" r="0.9" fill="#C3C9B6" stroke="#5C6050"/>
          <circle cx="84.15" cy="46.74" r="0.9" fill="#C4C9B6" stroke="#5C6050"/>
          <circle cx="82.23" cy="49.7" r="0.9" fill="#C4C9B6" stroke="#5C6050"/>
          <circle cx="81.89" cy="49.63" r="0.9" fill="#C4C9B6" stroke="#5C6050"/>
          <circle cx="79.87" cy="57" r="0.9" fill="#C4C9B6" stroke="#5C6050"/>
          <circle cx="82.58" cy="53.09" r="0.9" fill="#C4C8B6" stroke="#5C6050"/>
          <circle cx="88.21" cy="50.17" r="0.9" fill="#C5C8B6" stroke="#5C6050"/>
          <circle cx="87.43" cy="47.32" r="0.9" fill="#C5C8B6" stroke="#5D6050"/>
          <circle cx="85.68" cy="47.18" r="0.9" fill="#C5C8B6" stroke="#5D6050"/>
          <circle cx="80.89" cy="42.92" r="0.9" fill="#C5C8B6" stroke="#5D6050"/>
          <circle cx="85.13" cy="46.07" r="0.9" fill="#C5C8B6" stroke="#5D6050"/>
          <circle cx="83.28" cy="46.61" r="0.9" fill="#C5C8B5" stroke="#5D604F"/>
          <circle cx="84.01" cy="45.06" r="0.9" fill="#C6C8B5" stroke="#5D604F"/>
          <circle cx="83.45" cy="44.53" r="0.9" fill="#C6C8B5" stroke="#5E604F"/>
          <circle cx="79.84" cy="45.17" r="0.9" fill="#C6C8B5" stroke="#5E604F"/>
          <circle cx="82.93" cy="53.09" r="0.9" fill="#C6C8B5" stroke="#5E604F"/>
          <circle cx="80.11" cy="58.57" r="0.9" fill="#C6C8B5" stroke="#5E604F"/>
          <circle cx="80.11" cy="58.57" r="0.9" fill="#C7C8B5" stroke="#5E604F"/>
          <circle cx="76.04" cy="59.61" r="0.9" fill="#C7C8B5" stroke="#5E604F"/>
          <circle cx="70.95" cy="58.37" r="0.9" fill="#C7C8B5" stroke="#5F604F"/>
          <circle cx="70.45" cy="57.88" r="0.9" fill="#C7C8B5" stroke="#5F5F4F"/>
          <circle cx="70.91" cy="54.56" r="0.9" fill="#C7C8B5" stroke="#5F5F4F"/>
          <circle cx="75.16" cy="60.24" r="0.9" fill="#C7C8B5" stroke="#5F5F4F"/>
          <circle cx="78.63" cy="62.26" r="0.9" fill="#C8C8B5" stroke="#5F5F4F"/>
          <circle cx="74.54" cy="64.12" r="0.9" fill="#C8C8B5" stroke="#5F5F4F"/>
          <circle cx="72.73" cy="60.13" r="0.9" fill="#C8C8B5" stroke="#5F5F4F"/>
          <circle cx="71.9" cy="55.88" r="0.9" fill="#C8C7B5" stroke="#605F4F"/>
          <circle cx="71.12" cy="55.23" r="0.9" fill="#C8C7B5" stroke="#605F4F"/>
          <circle cx="67.69" cy="59.35" r="0.9" fill="#C9C7B5" stroke="#605F4F"/>
          <circle cx="64.97" cy="61.15" r="0.9" fill="#C9C7B4" stroke="#605F4F"/>
          <circle cx="64.71" cy="59.32" r="0.9" fill="#C9C7B4" stroke="#605F4F"/>
          <circle cx="68.09" cy="59.56" r="0.9" fill="#C9C7B4" stroke="#605F4F"/>
          <circle cx="71.32" cy="62.89" r="0.9" fill="#C9C7B4" stroke="#615F4E"/>
          <circle cx="72.12" cy="61.56" r="0.9" fill="#C9C7B4" stroke="#615F4E"/>
          <circle cx="74.17" cy="60.49" r="0.9" fill="#CAC7B4" stroke="#615F4E"/>
          <circle cx="71.39" cy="57.01" r="0.9" fill="#CAC7B4" stroke="#615F4E"/>
          <circle cx="66.66" cy="57.63" r="0.9" fill="#CAC7B4" stroke="#615F4E"/>
          <circle cx="69.38" cy="63.4" r="0.9" fill="#CAC7B3" stroke="#615F4E"/>
          <circle cx="65.95" cy="62.04" r="0.9" fill="#CBC7B3" stroke="#625F4D"/>
          <circle cx="66.55" cy="67.47" r="0.9" fill="#CBC7B3" stroke="#625F4D"/>
          <circle cx="64.82" cy="65.99" r="0.9" fill="#CBC7B2" stroke="#625F4D"/>
          <circle cx="67.38" cy="69.62" r="0.9" fill="#CBC7B2" stroke="#625F4C"/>
          <circle cx="68.96" cy="66.63" r="0.9" fill="#CCC7B2" stroke="#625F4C"/>
          <circle cx="68.89" cy="64.18" r="0.9" fill="#CCC7B1" stroke="#635F4C"/>
          <circle cx="67.55" cy="64.37" r="0.9" fill="#CCC7B1" stroke="#635E4C"/>
          <circle cx="67.28" cy="64.04" r="0.9" fill="#CCC7B1" stroke="#635E4B"/>
          <circle cx="67.18" cy="66.9" r="0.9" fill="#CDC6B0" stroke="#635E4B"/>
          <circle cx="71.68" cy="66.25" r="0.9" fill="#CDC6B0" stroke="#645E4B"/>
          <circle cx="72.03" cy="70.7" r="0.9" fill="#CDC6B0" stroke="#645E4A"/>
          <circle cx="69.23" cy="69.49" r="0.9" fill="#CDC6AF" stroke="#645E4A"/>
          <circle cx="76.21" cy="74.11" r="0.9" fill="#CEC6AF" stroke="#645E4A"/>
          <circle cx="76.21" cy="74.11" r="0.9" fill="#CEC6AF" stroke="#645E4A"/>
          <circle cx="73.05" cy="71.7" r="0.9" fill="#CEC6AF" stroke="#655E49"/>
          <circle cx="73.05" cy="71.7" r="0.9" fill="#CFC6AE" stroke="#655E49"/>
          <circle cx="69.91" cy="73.21" r="0.9" fill="#CFC6AE" stroke="#655E49"/>
          <circle cx="69.75" cy="72.01" r="0.9" fill="#CFC6AE" stroke="#655E49"/>
          <circle cx="69.75" cy="72.01" r="0.9" fill="#D0C6AD" stroke="#665E48"/>
          <circle cx="73.37" cy="69.94" r="0.9" fill="#D0C6AD" stroke="#665E48"/>
          <circle cx="77.03" cy="65.52" r="0.9" fill="#D0C6AD" stroke="#665E48"/>
          <circle cx="77.38" cy="67.22" r="0.9" fill="#D1C6AC" stroke="#665E47"/>
          <circle cx="78.75" cy="66.81" r="0.9" fill="#D1C5AC" stroke="#675E47"/>
          <circle cx="76.47" cy="67.8" r="0.9" fill="#D1C5AC" stroke="#675D47"/>
          <circle cx="76.52" cy="68.22" r="0.9" fill="#D2C5AB" stroke="#675D47"/>
          <circle cx="76.67" cy="68.27" r="0.9" fill="#D2C5AB" stroke="#685D46"/>
          <circle cx="78.6" cy="66.72" r="0.9" fill="#D2C5AB" stroke="#685D46"/>
          <circle cx="76.15" cy="70.81" r="0.9" fill="#D3C5AB" stroke="#685D46"/>
          <circle cx="77.04" cy="71.49" r="0.9" fill="#D3C5AA" stroke="#685D46"/>
          <circle cx="76.43" cy="66.7" r="0.9" fill="#D3C5AA" stroke="#695D45"/>
          <circle cx="77.55" cy="69.88" r="0.9" fill="#D4C5AA" stroke="#695D45"/>
          <circle cx="73" cy="67" r="0.9" fill="#D4C5AA" stroke="#695D45"/>
          <circle cx="77.86" cy="69.2" r="0.9" fill="#D4C5A9" stroke="#6A5D45"/>
          <circle cx="79.87" cy="71.76" r="0.9" fill="#D5C4A9" stroke="#6A5D44"/>
          <circle cx="78.82" cy="69.52" r="0.9" fill="#D5C4A9" stroke="#6A5D44"/>
          <circle cx="80.52" cy="71.2" r="0.9" fill="#D6C4A8" stroke="#6A5C44"/>
          <circle cx="78.47" cy="71.16" r="0.9" fill="#D6C4A8" stroke="#6B5C44"/>
          <circle cx="73.68" cy="71.86" r="0.9" fill="#D6C4A8" stroke="#6B5C44"/>
          <circle cx="76.4" cy="73.01" r="0.9" fill="#D7C4A8" stroke="#6B5C43"/>
          <circle cx="75.71" cy="76.07" r="0.9" fill="#D7C4A7" stroke="#6C5C43"/>
          <circle cx="77.26" cy="72.49" r="0.9" fill="#D8C4A7" stroke="#6C5C43"/>
          <circle cx="74.17" cy="73.74" r="0.9" fill="#D8C4A7" stroke="#6C5C43"/>
          <circle cx="74.17" cy="73.74" r="0.9" fill="#D8C3A6" stroke="#6C5C42"/>
          <circle cx="71.8" cy="72.51" r="0.9" fill="#D8C2A5" stroke="#6C5B41"/>
          <circle cx="73.47" cy="67.32" r="0.9" fill="#D7C2A5" stroke="#6C5A41"/>
          <circle cx="72.15" cy="68.78" r="0.9" fill="#D7C1A4" stroke="#6B5940"/>
          <circle cx="71.61" cy="67.59" r="0.9" fill="#D7C0A3" stroke="#6B593F"/>
          <circle cx="73.09" cy="66.81" r="0.9" fill="#D6BFA2" stroke="#6B583E"/>
          <circle cx="78.78" cy="62.75" r="0.9" fill="#D6BEA1" stroke="#6A573D"/>
          <circle cx="76.49" cy="63.42" r="0.9" fill="#D5BDA0" stroke="#6A563C"/>
          <circle cx="76.47" cy="66.05" r="0.9" fill="#D5BC9F" stroke="#69553C"/>
          <circle cx="79.65" cy="62.35" r="0.9" fill="#D5BB9E" stroke="#69553B"/>
          <circle cx="80.76" cy="61.49" r="0.9" fill="#D4BA9D" stroke="#69543A"/>
          <circle cx="80.61" cy="60.41" r="0.9" fill="#D4B99C" stroke="#685339"/>
          <circle cx="80.92" cy="59.45" r="0.9" fill="#D3B89B" stroke="#685238"/>
          <circle cx="76.95" cy="61.67" r="0.9" fill="#D3B79A" stroke="#675137"/>
          <circle cx="76.75" cy="67.32" r="0.9" fill="#D3B799" stroke="#675137"/>
          <circle cx="75.36" cy="65.71" r="0.9" fill="#D2B698" stroke="#665036"/>
          <circle cx="71.62" cy="67.25" r="0.9" fill="#D2B597" stroke="#664F35"/>
          <circle cx="73.54" cy="70.71" r="0.9" fill="#D1B496" stroke="#664E34"/>
          <circle cx="73.21" cy="69.79" r="0.9" fill="#D1B395" stroke="#654D33"/>
          <circle cx="72.22" cy="68.28" r="0.9" fill="#D0B294" stroke="#654C32"/>
          <circle cx="66.51" cy="68.53" r="0.9" fill="#D0B193" stroke="#644C32"/>
          <circle cx="70.76" cy="66.11" r="0.9" fill="#D0B092" stroke="#644B31"/>
          <circle cx="66.31" cy="68.38" r="0.9" fill="#CFAF91" stroke="#644A30"/>
          <circle cx="67.43" cy="70.11" r="0.9" fill="#CFAE90" stroke="#63492F"/>
          <circle cx="67.18" cy="72.21" r="0.9" fill="#CEAD8F" stroke="#63482E"/>
          <circle cx="68.47" cy="70.92" r="0.9" fill="#CEAC8E" stroke="#62472E"/>
          <circle cx="67.2" cy="64.99" r="0.9" fill="#CDAB8D" stroke="#62472D"/>
          <circle cx="65.72" cy="63.12" r="0.9" fill="#CDAA8C" stroke="#61462C"/>
          <circle cx="66.02" cy="66.78" r="0.9" fill="#CCA98C" stroke="#61452B"/>
          <circle cx="67.33" cy="63.4" r="0.9" fill="#CCA88B" stroke="#60442B"/>
          <circle cx="67.56" cy="66.48" r="0.9" fill="#CCA78A" stroke="#60432A"/>
          <circle cx="64.52" cy="61.89" r="0.9" fill="#CBA689" stroke="#5F4229"/>
          <circle cx="60.83" cy="59.11" r="0.9" fill="#CBA588" stroke="#5F4128"/>
          <circle cx="63.45" cy="62.22" r="0.9" fill="#CAA487" stroke="#5F4027"/>
          <circle cx="69.06" cy="56.81" r="0.9" fill="#CAA386" stroke="#5E4027"/>
          <circle cx="70.2" cy="58.4" r="0.9" fill="#C9A285" stroke="#5E3F26"/>
          <circle cx="70.61" cy="61.11" r="0.9" fill="#C9A184" stroke="#5D3E25"/>
          <circle cx="68.75" cy="63.91" r="0.9" fill="#C8A083" stroke="#5D3D24"/>
          <circle cx="71.82" cy="62.61" r="0.9" fill="#C89F82" stroke="#5C3C24"/>
          <circle cx="69.71" cy="58.61" r="0.9" fill="#C79E82" stroke="#5C3B23"/>
          <circle cx="70.88" cy="59.32" r="0.9" fill="#C79D81" stroke="#5B3A22"/>
          <circle cx="71.86" cy="61.73" r="0.9" fill="#C69C80" stroke="#5B3921"/>
          <circle cx="70.41" cy="59.61" r="0.9" fill="#C69B7F" stroke="#5A3821"/>
          <circle cx="72.03" cy="60.29" r="0.9" fill="#C59A7E" stroke="#5A3820"/>
          <circle cx="72.03" cy="60.29" r="0.9" fill="#C5997D" stroke="#59371F"/>
          <circle cx="76.58" cy="60.69" r="0.9" fill="#C4987C" stroke="#59361F"/>
          <circle cx="72.91" cy="63.8" r="0.9" fill="#C4977B" stroke="#58351E"/>
          <circle cx="70.8" cy="64.59" r="0.9" fill="#C3967B" stroke="#58341D"/>
          <circle cx="69.68" cy="63.82" r="0.9" fill="#C3957A" stroke="#57331C"/>
          <circle cx="66.81" cy="65.37" r="0.9" fill="#C29379" stroke="#57321C"/>
          <circle cx="65.19" cy="71.65" r="0.9" fill="#C29278" stroke="#56311B"/>
          <circle cx="62.37" cy="71.21" r="0.9" fill="#C19177" stroke="#56301A"/>
          <circle cx="64.13" cy="71.71" r="0.9" fill="#C19076" stroke="#552F1A"/>
          <circle cx="64.93" cy="70.83" r="0.9" fill="#C08F75" stroke="#542E19"/>
          <circle cx="61.94" cy="67.5" r="0.9" fill="#C08E75" stroke="#542D18"/>
          <circle cx="63.02" cy="67.51" r="0.9" fill="#BF8D74" stroke="#532D18"/>
          <circle cx="62.66" cy="64.23" r="0.9" fill="#BF8C73" stroke="#532C17"/>
          <circle cx="69.19" cy="60.7" r="0.9" fill="#BE8B72" stroke="#522B16"/>
          <circle cx="71.43" cy="62.96" r="0.9" fill="#BE8A71" stroke="#522A16"/>
          <circle cx="71.7" cy="62.06" r="0.9" fill="#BD8970" stroke="#512915"/>
          <circle cx="71.7" cy="62.06" r="0.9" fill="#BC8870" stroke="#512814"/>
          <circle cx="73.79" cy="60.63" r="0.9" fill="#BC876F" stroke="#502714"/>
          <circle cx="78.67" cy="61.86" r="0.9" fill="#BB856E" stroke="#4F2613"/>
          <circle cx="76.65" cy="62.91" r="0.9" fill="#BB846D" stroke="#4F2513"/>
          <circle cx="72.93" cy="58.75" r="0.9" fill="#BA836C" stroke="#4E2412"/>
          <circle cx="70.28" cy="64.61" r="0.9" fill="#BA826C" stroke="#4E2311"/>
          <circle cx="69.92" cy="63.81" r="0.9" fill="#B9816B" stroke="#4D2211"/>
          <circle cx="70.16" cy="63.04" r="0.9" fill="#B8806A" stroke="#4C2110"/>
          <circle cx="73.31" cy="65.85" r="0.9" fill="#B87F69" stroke="#4C200F"/>
          <circle cx="73.18" cy="66.5" r="0.9" fill="#B77E69" stroke="#4B1F0F"/>
          <circle cx="75.17" cy="63.74" r="0.9" fill="#B77D68" stroke="#4B1E0E"/>
          <circle cx="73.92" cy="63.42" r="0.9" fill="#B67B67" stroke="#4A1D0D"/>
          <circle cx="68.39" cy="67" r="0.9" fill="#B57A66" stroke="#4A1C0C"/>
          <circle cx="68.5" cy="68.83" r="0.9" fill="#B57966" stroke="#491B0B"/>
          <circle cx="64.33" cy="65.56" r="0.9" fill="#B47865" stroke="#481A0A"/>
          <circle cx="61.62" cy="67.56" r="0.9" fill="#B47764" stroke="#481909"/>
          <circle cx="61.1" cy="69.61" r="0.9" fill="#B37663" stroke="#471808"/>
          <circle cx="60.65" cy="72.07" r="0.9" fill="#B27563" stroke="#471707"/>
          <circle cx="56.61" cy="73.39" r="0.9" fill="#B27462" stroke="#461506"/>
          <circle cx="57.58" cy="73.91" r="0.9" fill="#B17261" stroke="#451405"/>
          <circle cx="60.46" cy="71.31" r="0.9" fill="#B07161" stroke="#451304"/>
          <circle cx="59.06" cy="69.56" r="0.9" fill="#B07060" stroke="#441203"/>
          <circle cx="59.5" cy="71.7" r="0.9" fill="#AF6F5F" stroke="#431102"/>
          <circle cx="64.71" cy="70.3" r="0.9" fill="#AE6E5E" stroke="#431001"/>
          <circle cx="67.78" cy="69.77" r="0.9" fill="#AE6D5E" stroke="#420E00"/>
          <circle cx="62.32" cy="63.29" r="0.9" fill="#AD6C5D" stroke="#420D00"/>
          <circle cx="57.1" cy="60.32" r="0.9" fill="#AC6A5C" stroke="#410C00"/>
          <circle cx="56.06" cy="61.97" r="0.9" fill="#AC695C" stroke="#400A00"/>
          <circle cx="54.79" cy="63.6" r="0.9" fill="#AB685B" stroke="#400900"/>
          <circle cx="54.79" cy="63.6" r="0.9" fill="#AA675A" stroke="#3F0800"/>
          <circle cx="52.53" cy="63.22" r="0.9" fill="#AA665A" stroke="#3F0600"/>
          <circle cx="50.69" cy="64.68" r="0.9" fill="#A96559" stroke="#3E0500"/>
          <circle cx="55.55" cy="59.6" r="0.9" fill="#A86358" stroke="#3D0400"/>
          <circle cx="54.1" cy="59.73" r="0.9" fill="#A76258" stroke="#3D0300"/>
          <circle cx="56.67" cy="58.1" r="0.9" fill="#A76157" stroke="#3C0200"/>
          <circle cx="56.67" cy="58.1" r="0.9" fill="#A66056" stroke="#3B0100"/>
          <circle cx="56.15" cy="57.22" r="0.9" fill="#A55F56" stroke="#3B0000"/>
          <circle cx="58.24" cy="55.48" r="0.9" fill="#A45E55" stroke="#3A0000"/>
          <circle cx="59.27" cy="53.36" r="0.9" fill="#A45C54" stroke="#3A0000"/>
          <circle cx="62.1" cy="57.91" r="0.9" fill="#A35B54" stroke="#390000"/>
          <circle cx="60.87" cy="61.82" r="0.9" fill="#A25A53" stroke="#380000"/>
          <circle cx="58.87" cy="60.61" r="0.9" fill="#A15953" stroke="#380000"/>
          <circle cx="58.89" cy="59.57" r="0.9" fill="#A15852" stroke="#370000"/>
          <circle cx="58.52" cy="59.24" r="0.9" fill="#A05751" stroke="#370000"/>
          <circle cx="58" cy="60.03" r="0.9" fill="#9F5551" stroke="#360000"/>
          <circle cx="55.55" cy="57.47" r="0.9" fill="#9E5450" stroke="#360000"/>
          <circle cx="60.18" cy="59.4" r="0.9" fill="#9E5350" stroke="#350000"/>
          <circle cx="56.38" cy="61.93" r="0.9" fill="#9D524F" stroke="#350000"/>
          <circle cx="57.53" cy="68.39" r="0.9" fill="#9C514E" stroke="#340000"/>
          <circle cx="58.36" cy="71.32" r="0.9" fill="#9B4F4E" stroke="#340000"/>
          <circle cx="60.18" cy="73.19" r="0.9" fill="#9A4E4D" stroke="#340000"/>
          <circle cx="60.18" cy="73.19" r="0.9" fill="#9A4D4D" stroke="#330000"/>
          <circle cx="60.22" cy="73.32" r="0.9" fill="#994C4C" stroke="#330000"/>
          <circle cx="60.43" cy="71.14" r="0.9" fill="#984A4C" stroke="#320000"/>
          <circle cx="59.94" cy="67.72" r="0.9" fill="#97494B" stroke="#320000"/>
          <circle cx="64.47" cy="62.86" r="0.9" fill="#96484B" stroke="#320000"/>
          <circle cx="66.4" cy="57.59" r="0.9" fill="#95474A" stroke="#320000"/>
          <circle cx="64.76" cy="58.51" r="0.9" fill="#944649" stroke="#310000"/>
          <circle cx="64.03" cy="55.83" r="0.9" fill="#944449" stroke="#320000"/>
          <circle cx="64.57" cy="55.93" r="0.9" fill="#934348" stroke="#320000"/>
          <circle cx="62.77" cy="53.99" r="0.9" fill="#924248" stroke="#320000"/>
          <circle cx="58.58" cy="53.5" r="0.9" fill="#914147" stroke="#320000"/>
          <circle cx="57.9" cy="53.14" r="0.9" fill="#903F47" stroke="#320000"/>
          <circle cx="56.54" cy="48.23" r="0.9" fill="#8F3E46" stroke="#320000"/>
          <circle cx="55.05" cy="50.85" r="0.9" fill="#8E3D46" stroke="#320000"/>
          <circle cx="58.66" cy="51.17" r="0.9" fill="#8D3C45" stroke="#320000"/>
          <circle cx="61.39" cy="55.78" r="0.9" fill="#8D3A45" stroke="#320000"/>
          <circle cx="53.44" cy="55.4" r="0.9" fill="#8C3944" stroke="#320000"/>
          <circle cx="53.47" cy="57.71" r="0.9" fill="#8B3844" stroke="#330000"/>
          <circle cx="48.39" cy="60.11" r="0.9" fill="#8A3743" stroke="#330000"/>
          <circle cx="46.91" cy="67.74" r="0.9" fill="#893543" stroke="#330000"/>
          <circle cx="49.37" cy="69.29" r="0.9" fill="#883442" stroke="#330000"/>
          <circle cx="49.37" cy="69.29" r="0.9" fill="#873342" stroke="#330000"/>
          <circle cx="51.74" cy="71.35" r="0.9" fill="#863241" stroke="#330000"/>
          <circle cx="51.74" cy="71.35" r="0.9" fill="#853041" stroke="#330000"/>
          <circle cx="46.62" cy="70.65" r="0.9" fill="#842F40" stroke="#330000"/>
          <circle cx="47.15" cy="69.73" r="0.9" fill="#832E40" stroke="#330000"/>
          <circle cx="47.15" cy="69.73" r="0.9" fill="#822C3F" stroke="#330000"/>
          <circle cx="47.15" cy="75.59" r="0.9" fill="#812B3F" stroke="#330000"/>
          <circle cx="48.76" cy="73.72" r="0.9" fill="#802A3E" stroke="#330000"/>
          <circle cx="46.1" cy="79.86" r="0.9" fill="#7F283E" stroke="#330000"/>
          <circle cx="50.85" cy="78.33" r="0.9" fill="#7E273E" stroke="#340000"/>
        </g>
      </g>
    </g>
  </g>
  <g class="guide ylabels" font-size="2.82" font-family="'PT Sans Caption','Helvetica Neue','Helvetica',sans-serif" fill="#6C606B" id="fig-e2b3033a11bb41389f48edadab3a145e-element-17">
    <text x="16.94" y="82.32" text-anchor="end" dy="0.35em">-2.0</text>
    <text x="16.94" y="68.77" text-anchor="end" dy="0.35em">-1.5</text>
    <text x="16.94" y="55.23" text-anchor="end" dy="0.35em">-1.0</text>
    <text x="16.94" y="41.69" text-anchor="end" dy="0.35em">-0.5</text>
    <text x="16.94" y="28.15" text-anchor="end" dy="0.35em">0.0</text>
    <text x="16.94" y="14.61" text-anchor="end" dy="0.35em">0.5</text>
  </g>
  <g font-size="3.88" font-family="'PT Sans','Helvetica Neue','Helvetica',sans-serif" fill="#564A55" stroke="none" id="fig-e2b3033a11bb41389f48edadab3a145e-element-18">
    <text x="8.81" y="48.46" text-anchor="end" dy="0.35em">y</text>
  </g>
  <g font-size="3.88" font-family="'PT Sans','Helvetica Neue','Helvetica',sans-serif" fill="#564A55" stroke="none" id="fig-e2b3033a11bb41389f48edadab3a145e-element-19">
    <text x="75.56" y="10.61" text-anchor="middle">Metropolis (ϵ = 0.1)</text>
  </g>
</g>
<defs>
<clipPath id="fig-e2b3033a11bb41389f48edadab3a145e-element-10">
  <path d="M17.94,12.61 L 133.18 12.61 133.18 84.32 17.94 84.32" />
</clipPath
></defs>
</svg>
