<?xml version="1.0" encoding="UTF-8"?>
<svg xmlns="http://www.w3.org/2000/svg"
     xmlns:xlink="http://www.w3.org/1999/xlink"
     xmlns:gadfly="http://www.gadflyjl.org/ns"
     version="1.2"
     width="152.4mm" height="101.6mm" viewBox="0 0 152.4 101.6"
     stroke="none"
     fill="#000000"
     stroke-width="0.3"
     font-size="3.88"
>
<g class="plotroot xscalable yscalable" id="fig-633594df46ba40bd9495312ac18d8d91-element-1">
  <g font-size="3.88" font-family="'PT Sans','Helvetica Neue','Helvetica',sans-serif" fill="#564A55" stroke="none" id="fig-633594df46ba40bd9495312ac18d8d91-element-2">
    <text x="74.39" y="93.6" text-anchor="middle">x</text>
  </g>
  <g class="guide xlabels" font-size="2.82" font-family="'PT Sans Caption','Helvetica Neue','Helvetica',sans-serif" fill="#6C606B" id="fig-633594df46ba40bd9495312ac18d8d91-element-3">
    <text x="17.59" y="87.99" text-anchor="middle">-3</text>
    <text x="36.52" y="87.99" text-anchor="middle">-2</text>
    <text x="55.46" y="87.99" text-anchor="middle">-1</text>
    <text x="74.39" y="87.99" text-anchor="middle">0</text>
    <text x="93.32" y="87.99" text-anchor="middle">1</text>
    <text x="112.25" y="87.99" text-anchor="middle">2</text>
    <text x="131.18" y="87.99" text-anchor="middle">3</text>
  </g>
  <g class="guide colorkey" id="fig-633594df46ba40bd9495312ac18d8d91-element-4">
    <g font-size="2.82" font-family="'PT Sans','Helvetica Neue','Helvetica',sans-serif" fill="#4C404B" id="fig-633594df46ba40bd9495312ac18d8d91-element-5">
      <text x="137.5" y="65.5" dy="0.35em">100</text>
      <text x="137.5" y="46.71" dy="0.35em">400</text>
      <text x="137.5" y="59.24" dy="0.35em">200</text>
      <text x="137.5" y="71.7" dy="0.35em">1</text>
      <text x="137.5" y="52.97" dy="0.35em">300</text>
      <text x="137.5" y="40.45" dy="0.35em">500</text>
    </g>
    <g shape-rendering="crispEdges" stroke="none" id="fig-633594df46ba40bd9495312ac18d8d91-element-6">
      <rect x="135.18" y="70.92" width="1.31" height="0.78" fill="#004D84"/>
      <rect x="135.18" y="70.14" width="1.31" height="0.78" fill="#005B8D"/>
      <rect x="135.18" y="69.36" width="1.31" height="0.78" fill="#006995"/>
      <rect x="135.18" y="68.58" width="1.31" height="0.78" fill="#00769D"/>
      <rect x="135.18" y="67.79" width="1.31" height="0.78" fill="#0083A3"/>
      <rect x="135.18" y="67.01" width="1.31" height="0.78" fill="#278FA9"/>
      <rect x="135.18" y="66.23" width="1.31" height="0.78" fill="#409BAF"/>
      <rect x="135.18" y="65.45" width="1.31" height="0.78" fill="#55A7B5"/>
      <rect x="135.18" y="64.67" width="1.31" height="0.78" fill="#69B2BA"/>
      <rect x="135.18" y="63.89" width="1.31" height="0.78" fill="#7BBCC0"/>
      <rect x="135.18" y="63.11" width="1.31" height="0.78" fill="#8DC6C5"/>
      <rect x="135.18" y="62.33" width="1.31" height="0.78" fill="#9ED0CB"/>
      <rect x="135.18" y="61.54" width="1.31" height="0.78" fill="#A5CFC7"/>
      <rect x="135.18" y="60.76" width="1.31" height="0.78" fill="#ABCEC4"/>
      <rect x="135.18" y="59.98" width="1.31" height="0.78" fill="#B1CCC2"/>
      <rect x="135.18" y="59.2" width="1.31" height="0.78" fill="#B5CCC1"/>
      <rect x="135.18" y="58.42" width="1.31" height="0.78" fill="#B7CBBF"/>
      <rect x="135.18" y="57.64" width="1.31" height="0.78" fill="#B9CBBD"/>
      <rect x="135.18" y="56.86" width="1.31" height="0.78" fill="#BBCBBB"/>
      <rect x="135.18" y="56.07" width="1.31" height="0.78" fill="#BDCABA"/>
      <rect x="135.18" y="55.29" width="1.31" height="0.78" fill="#BFCAB8"/>
      <rect x="135.18" y="54.51" width="1.31" height="0.78" fill="#C2C9B7"/>
      <rect x="135.18" y="53.73" width="1.31" height="0.78" fill="#C4C9B6"/>
      <rect x="135.18" y="52.95" width="1.31" height="0.78" fill="#C6C8B5"/>
      <rect x="135.18" y="52.17" width="1.31" height="0.78" fill="#C9C7B4"/>
      <rect x="135.18" y="51.39" width="1.31" height="0.78" fill="#CCC7B2"/>
      <rect x="135.18" y="50.61" width="1.31" height="0.78" fill="#CFC6AE"/>
      <rect x="135.18" y="49.82" width="1.31" height="0.78" fill="#D4C5AA"/>
      <rect x="135.18" y="49.04" width="1.31" height="0.78" fill="#D8C3A6"/>
      <rect x="135.18" y="48.26" width="1.31" height="0.78" fill="#D3B79A"/>
      <rect x="135.18" y="47.48" width="1.31" height="0.78" fill="#CDAB8E"/>
      <rect x="135.18" y="46.7" width="1.31" height="0.78" fill="#C89E82"/>
      <rect x="135.18" y="45.92" width="1.31" height="0.78" fill="#C19177"/>
      <rect x="135.18" y="45.14" width="1.31" height="0.78" fill="#BA836C"/>
      <rect x="135.18" y="44.36" width="1.31" height="0.78" fill="#B27563"/>
      <rect x="135.18" y="43.57" width="1.31" height="0.78" fill="#AA665A"/>
      <rect x="135.18" y="42.79" width="1.31" height="0.78" fill="#A05752"/>
      <rect x="135.18" y="42.01" width="1.31" height="0.78" fill="#96484A"/>
      <rect x="135.18" y="41.23" width="1.31" height="0.78" fill="#8B3844"/>
      <rect x="135.18" y="40.45" width="1.31" height="0.78" fill="#7E273E"/>
      <g stroke="#FFFFFF" stroke-width="0.2" id="fig-633594df46ba40bd9495312ac18d8d91-element-7">
        <path d="M135.18,65.5 L 136.5 65.5" fill="#004D84"/>
        <path d="M135.18,46.71 L 136.5 46.71" fill="#005B8D"/>
        <path d="M135.18,59.24 L 136.5 59.24" fill="#006995"/>
        <path d="M135.18,71.7 L 136.5 71.7" fill="#00769D"/>
        <path d="M135.18,52.97 L 136.5 52.97" fill="#0083A3"/>
        <path d="M135.18,40.45 L 136.5 40.45" fill="#278FA9"/>
      </g>
    </g>
    <g fill="#362A35" font-size="3.88" font-family="'PT Sans','Helvetica Neue','Helvetica',sans-serif" stroke="none" id="fig-633594df46ba40bd9495312ac18d8d91-element-8">
      <text x="135.18" y="36.45">Iteration</text>
    </g>
  </g>
  <g clip-path="url(#fig-633594df46ba40bd9495312ac18d8d91-element-10)" id="fig-633594df46ba40bd9495312ac18d8d91-element-9">
    <g pointer-events="visible" opacity="1" fill="none" stroke="none" class="guide background" id="fig-633594df46ba40bd9495312ac18d8d91-element-11">
      <rect x="15.59" y="12.61" width="117.59" height="71.7"/>
    </g>
    <g class="guide ygridlines xfixed" stroke-dasharray="0.5,0.5" stroke-width="0.2" stroke="#D0D0E0" id="fig-633594df46ba40bd9495312ac18d8d91-element-12">
      <path d="M15.59,82.32 L 133.18 82.32"/>
      <path d="M15.59,71.03 L 133.18 71.03"/>
      <path d="M15.59,59.75 L 133.18 59.75"/>
      <path d="M15.59,48.46 L 133.18 48.46"/>
      <path d="M15.59,37.18 L 133.18 37.18"/>
      <path d="M15.59,25.9 L 133.18 25.9"/>
      <path d="M15.59,14.61 L 133.18 14.61"/>
    </g>
    <g class="guide xgridlines yfixed" stroke-dasharray="0.5,0.5" stroke-width="0.2" stroke="#D0D0E0" id="fig-633594df46ba40bd9495312ac18d8d91-element-13">
      <path d="M17.59,12.61 L 17.59 84.32"/>
      <path d="M36.52,12.61 L 36.52 84.32"/>
      <path d="M55.46,12.61 L 55.46 84.32"/>
      <path d="M74.39,12.61 L 74.39 84.32"/>
      <path d="M93.32,12.61 L 93.32 84.32"/>
      <path d="M112.25,12.61 L 112.25 84.32"/>
      <path d="M131.18,12.61 L 131.18 84.32"/>
    </g>
    <g class="plotpanel" id="fig-633594df46ba40bd9495312ac18d8d91-element-14">
      <g class="geometry" id="fig-633594df46ba40bd9495312ac18d8d91-element-15">
        <g stroke-width="0.3" id="fig-633594df46ba40bd9495312ac18d8d91-element-16">
          <circle cx="67.96" cy="53.14" r="0.9" fill="#004D84" stroke="#000337"/>
          <circle cx="67.96" cy="53.14" r="0.9" fill="#004E85" stroke="#000436"/>
          <circle cx="64.73" cy="53.64" r="0.9" fill="#004F86" stroke="#000436"/>
          <circle cx="64.57" cy="56.83" r="0.9" fill="#005186" stroke="#000436"/>
          <circle cx="64.57" cy="56.83" r="0.9" fill="#005287" stroke="#000536"/>
          <circle cx="64.57" cy="56.83" r="0.9" fill="#005388" stroke="#000535"/>
          <circle cx="91.14" cy="37.49" r="0.9" fill="#005488" stroke="#000535"/>
          <circle cx="91.14" cy="37.49" r="0.9" fill="#005589" stroke="#000535"/>
          <circle cx="91.14" cy="37.49" r="0.9" fill="#00568A" stroke="#000635"/>
          <circle cx="97.62" cy="34.19" r="0.9" fill="#00578A" stroke="#000634"/>
          <circle cx="105.78" cy="32.99" r="0.9" fill="#00588B" stroke="#000634"/>
          <circle cx="108.2" cy="24.03" r="0.9" fill="#00598C" stroke="#000734"/>
          <circle cx="121.52" cy="29.41" r="0.9" fill="#005A8D" stroke="#000734"/>
          <circle cx="121.52" cy="29.41" r="0.9" fill="#005B8D" stroke="#000733"/>
          <circle cx="88.34" cy="33.26" r="0.9" fill="#005C8E" stroke="#000733"/>
          <circle cx="88.34" cy="33.26" r="0.9" fill="#005D8E" stroke="#000833"/>
          <circle cx="88.34" cy="33.26" r="0.9" fill="#005E8F" stroke="#000833"/>
          <circle cx="88.34" cy="33.26" r="0.9" fill="#006090" stroke="#000832"/>
          <circle cx="99.91" cy="42.94" r="0.9" fill="#006190" stroke="#000832"/>
          <circle cx="101.6" cy="37.85" r="0.9" fill="#006291" stroke="#000932"/>
          <circle cx="77.57" cy="41.31" r="0.9" fill="#006392" stroke="#000931"/>
          <circle cx="93.31" cy="39.14" r="0.9" fill="#006492" stroke="#000931"/>
          <circle cx="89.37" cy="50.88" r="0.9" fill="#006593" stroke="#000A31"/>
          <circle cx="61.09" cy="45.39" r="0.9" fill="#006694" stroke="#000C32"/>
          <circle cx="61.09" cy="45.39" r="0.9" fill="#006794" stroke="#000D32"/>
          <circle cx="54.71" cy="40.54" r="0.9" fill="#006895" stroke="#000F33"/>
          <circle cx="69.03" cy="45.28" r="0.9" fill="#006995" stroke="#001033"/>
          <circle cx="62.49" cy="56.75" r="0.9" fill="#006A96" stroke="#001134"/>
          <circle cx="47.83" cy="58.02" r="0.9" fill="#006B97" stroke="#001234"/>
          <circle cx="41.98" cy="58.43" r="0.9" fill="#006C97" stroke="#001335"/>
          <circle cx="46.07" cy="59.44" r="0.9" fill="#006D98" stroke="#001435"/>
          <circle cx="56.55" cy="50.2" r="0.9" fill="#006E98" stroke="#001536"/>
          <circle cx="52.44" cy="55.39" r="0.9" fill="#006F99" stroke="#001636"/>
          <circle cx="59.08" cy="50.79" r="0.9" fill="#007099" stroke="#001737"/>
          <circle cx="59.08" cy="50.79" r="0.9" fill="#00719A" stroke="#001837"/>
          <circle cx="55.55" cy="51.56" r="0.9" fill="#00729B" stroke="#001938"/>
          <circle cx="51.19" cy="59.79" r="0.9" fill="#00739B" stroke="#001A38"/>
          <circle cx="64.15" cy="58.01" r="0.9" fill="#00749C" stroke="#001A39"/>
          <circle cx="64.15" cy="58.01" r="0.9" fill="#00759C" stroke="#001B39"/>
          <circle cx="66.48" cy="53.29" r="0.9" fill="#00769D" stroke="#001C3A"/>
          <circle cx="61.55" cy="52.24" r="0.9" fill="#00779D" stroke="#001D3A"/>
          <circle cx="88.16" cy="50.74" r="0.9" fill="#00799E" stroke="#001D3B"/>
          <circle cx="86.71" cy="26.17" r="0.9" fill="#007A9E" stroke="#001E3B"/>
          <circle cx="86.71" cy="26.17" r="0.9" fill="#007B9F" stroke="#001F3C"/>
          <circle cx="86.71" cy="26.17" r="0.9" fill="#007CA0" stroke="#001F3C"/>
          <circle cx="86.19" cy="26.95" r="0.9" fill="#007DA0" stroke="#00203D"/>
          <circle cx="86.19" cy="26.95" r="0.9" fill="#007EA1" stroke="#00213D"/>
          <circle cx="86.19" cy="26.95" r="0.9" fill="#007FA1" stroke="#00213D"/>
          <circle cx="86.19" cy="26.95" r="0.9" fill="#0080A2" stroke="#00223E"/>
          <circle cx="98.34" cy="29.58" r="0.9" fill="#0081A2" stroke="#00233E"/>
          <circle cx="105.4" cy="34.38" r="0.9" fill="#0082A3" stroke="#00243F"/>
          <circle cx="95.36" cy="32.84" r="0.9" fill="#0083A3" stroke="#00243F"/>
          <circle cx="108.93" cy="31.94" r="0.9" fill="#0084A4" stroke="#002540"/>
          <circle cx="108.93" cy="31.94" r="0.9" fill="#0085A4" stroke="#002640"/>
          <circle cx="99.26" cy="26.32" r="0.9" fill="#0486A5" stroke="#002641"/>
          <circle cx="99.26" cy="26.32" r="0.9" fill="#0A87A5" stroke="#002741"/>
          <circle cx="99.38" cy="40.21" r="0.9" fill="#0F88A6" stroke="#002841"/>
          <circle cx="97.03" cy="43" r="0.9" fill="#1389A6" stroke="#002942"/>
          <circle cx="94.22" cy="43.89" r="0.9" fill="#1789A7" stroke="#002A42"/>
          <circle cx="94.22" cy="43.89" r="0.9" fill="#1A8AA7" stroke="#002A43"/>
          <circle cx="86.7" cy="33.15" r="0.9" fill="#1D8BA8" stroke="#002B43"/>
          <circle cx="86.7" cy="33.15" r="0.9" fill="#208CA8" stroke="#002C44"/>
          <circle cx="86.08" cy="33.41" r="0.9" fill="#228DA8" stroke="#002D44"/>
          <circle cx="86.08" cy="33.41" r="0.9" fill="#258EA9" stroke="#002E44"/>
          <circle cx="86.08" cy="33.41" r="0.9" fill="#278FA9" stroke="#002E45"/>
          <circle cx="59.41" cy="61.49" r="0.9" fill="#2990AA" stroke="#002F45"/>
          <circle cx="60.48" cy="72.66" r="0.9" fill="#2C91AA" stroke="#003046"/>
          <circle cx="53.57" cy="65.76" r="0.9" fill="#2E92AB" stroke="#003146"/>
          <circle cx="55.09" cy="64.29" r="0.9" fill="#3093AB" stroke="#003246"/>
          <circle cx="77.45" cy="45.13" r="0.9" fill="#3294AC" stroke="#003247"/>
          <circle cx="71.3" cy="47.62" r="0.9" fill="#3495AC" stroke="#003347"/>
          <circle cx="83.27" cy="37.38" r="0.9" fill="#3696AD" stroke="#003448"/>
          <circle cx="87.43" cy="42.53" r="0.9" fill="#3897AD" stroke="#003548"/>
          <circle cx="87.43" cy="42.53" r="0.9" fill="#3A98AE" stroke="#003548"/>
          <circle cx="100.19" cy="34.42" r="0.9" fill="#3B99AE" stroke="#003649"/>
          <circle cx="99.85" cy="32.69" r="0.9" fill="#3D9AAE" stroke="#003749"/>
          <circle cx="89.19" cy="33.78" r="0.9" fill="#3F9BAF" stroke="#00384A"/>
          <circle cx="87.83" cy="42" r="0.9" fill="#419CAF" stroke="#00394A"/>
          <circle cx="87.83" cy="42" r="0.9" fill="#429DB0" stroke="#00394A"/>
          <circle cx="87.83" cy="42" r="0.9" fill="#449DB0" stroke="#003A4B"/>
          <circle cx="53.9" cy="52.81" r="0.9" fill="#469EB1" stroke="#003B4B"/>
          <circle cx="68.52" cy="56.49" r="0.9" fill="#489FB1" stroke="#003C4C"/>
          <circle cx="68.52" cy="56.49" r="0.9" fill="#49A0B2" stroke="#003C4C"/>
          <circle cx="68.52" cy="56.49" r="0.9" fill="#4BA1B2" stroke="#003D4C"/>
          <circle cx="68.79" cy="57.36" r="0.9" fill="#4DA2B2" stroke="#003E4D"/>
          <circle cx="68.59" cy="46.66" r="0.9" fill="#4EA3B3" stroke="#003F4D"/>
          <circle cx="79.64" cy="38.66" r="0.9" fill="#50A4B3" stroke="#00404E"/>
          <circle cx="74.85" cy="54.12" r="0.9" fill="#51A5B4" stroke="#00404E"/>
          <circle cx="74.85" cy="54.12" r="0.9" fill="#53A6B4" stroke="#00414E"/>
          <circle cx="74.85" cy="54.12" r="0.9" fill="#54A6B5" stroke="#00424F"/>
          <circle cx="88.89" cy="40.48" r="0.9" fill="#56A7B5" stroke="#00434F"/>
          <circle cx="76.29" cy="50.67" r="0.9" fill="#58A8B5" stroke="#00434F"/>
          <circle cx="87.83" cy="39.24" r="0.9" fill="#59A9B6" stroke="#004450"/>
          <circle cx="78.75" cy="48.1" r="0.9" fill="#5BAAB6" stroke="#004550"/>
          <circle cx="78.75" cy="48.1" r="0.9" fill="#5CABB7" stroke="#004651"/>
          <circle cx="78.75" cy="48.1" r="0.9" fill="#5EACB7" stroke="#004651"/>
          <circle cx="84.73" cy="52.95" r="0.9" fill="#5FADB8" stroke="#004751"/>
          <circle cx="81.13" cy="59.96" r="0.9" fill="#61ADB8" stroke="#004852"/>
          <circle cx="81.13" cy="59.96" r="0.9" fill="#62AEB8" stroke="#004952"/>
          <circle cx="63.46" cy="45.3" r="0.9" fill="#64AFB9" stroke="#004952"/>
          <circle cx="69.58" cy="61.31" r="0.9" fill="#65B0B9" stroke="#004A53"/>
          <circle cx="66.22" cy="59.41" r="0.9" fill="#67B1BA" stroke="#004B53"/>
          <circle cx="76.94" cy="37.33" r="0.9" fill="#68B2BA" stroke="#004C53"/>
          <circle cx="92.67" cy="38.14" r="0.9" fill="#6AB3BA" stroke="#004C54"/>
          <circle cx="92.67" cy="38.14" r="0.9" fill="#6BB3BB" stroke="#004D54"/>
          <circle cx="55.55" cy="57.49" r="0.9" fill="#6DB4BB" stroke="#004E55"/>
          <circle cx="102.57" cy="29.94" r="0.9" fill="#6EB5BC" stroke="#004E55"/>
          <circle cx="103.25" cy="39.23" r="0.9" fill="#6FB6BC" stroke="#004F55"/>
          <circle cx="103.25" cy="39.23" r="0.9" fill="#71B7BD" stroke="#005056"/>
          <circle cx="113.02" cy="26.45" r="0.9" fill="#72B8BD" stroke="#005156"/>
          <circle cx="66.53" cy="48.31" r="0.9" fill="#74B8BD" stroke="#005156"/>
          <circle cx="84.88" cy="39.87" r="0.9" fill="#75B9BE" stroke="#005257"/>
          <circle cx="71.07" cy="57.31" r="0.9" fill="#77BABE" stroke="#005357"/>
          <circle cx="71.07" cy="57.31" r="0.9" fill="#78BBBF" stroke="#005358"/>
          <circle cx="71.07" cy="57.31" r="0.9" fill="#79BCBF" stroke="#015458"/>
          <circle cx="73.01" cy="42.42" r="0.9" fill="#7BBCC0" stroke="#055558"/>
          <circle cx="86.72" cy="34.41" r="0.9" fill="#7CBDC0" stroke="#085659"/>
          <circle cx="86.72" cy="34.41" r="0.9" fill="#7EBEC0" stroke="#0C5659"/>
          <circle cx="86.72" cy="34.41" r="0.9" fill="#7FBFC1" stroke="#0F5759"/>
          <circle cx="86.26" cy="35.95" r="0.9" fill="#80BFC1" stroke="#12585A"/>
          <circle cx="86.26" cy="35.95" r="0.9" fill="#82C0C2" stroke="#14585A"/>
          <circle cx="86.26" cy="35.95" r="0.9" fill="#83C1C2" stroke="#16595B"/>
          <circle cx="54.71" cy="60.94" r="0.9" fill="#85C2C2" stroke="#195A5B"/>
          <circle cx="54.71" cy="60.94" r="0.9" fill="#86C3C3" stroke="#1B5A5B"/>
          <circle cx="50.64" cy="51.08" r="0.9" fill="#87C3C3" stroke="#1D5B5C"/>
          <circle cx="52.44" cy="54.51" r="0.9" fill="#89C4C4" stroke="#1E5C5C"/>
          <circle cx="52.44" cy="54.51" r="0.9" fill="#8AC5C4" stroke="#205C5C"/>
          <circle cx="85.3" cy="45.04" r="0.9" fill="#8BC6C5" stroke="#225D5D"/>
          <circle cx="72.68" cy="45.74" r="0.9" fill="#8DC6C5" stroke="#245E5D"/>
          <circle cx="59.1" cy="45.29" r="0.9" fill="#8EC7C6" stroke="#255E5E"/>
          <circle cx="60.34" cy="58.42" r="0.9" fill="#8FC8C6" stroke="#275F5E"/>
          <circle cx="72.59" cy="44.3" r="0.9" fill="#91C9C6" stroke="#29605E"/>
          <circle cx="72.59" cy="44.3" r="0.9" fill="#92C9C7" stroke="#2A605F"/>
          <circle cx="72.59" cy="44.3" r="0.9" fill="#93CAC7" stroke="#2C615F"/>
          <circle cx="94.01" cy="40.94" r="0.9" fill="#95CBC8" stroke="#2D625F"/>
          <circle cx="94.01" cy="40.94" r="0.9" fill="#96CCC8" stroke="#2F6260"/>
          <circle cx="94.01" cy="40.94" r="0.9" fill="#97CCC9" stroke="#306360"/>
          <circle cx="92.95" cy="36.36" r="0.9" fill="#99CDC9" stroke="#316461"/>
          <circle cx="60.24" cy="54.47" r="0.9" fill="#9ACEC9" stroke="#336461"/>
          <circle cx="65.13" cy="60.45" r="0.9" fill="#9BCECA" stroke="#346561"/>
          <circle cx="65.13" cy="60.45" r="0.9" fill="#9DCFCA" stroke="#356562"/>
          <circle cx="102.1" cy="42.3" r="0.9" fill="#9ED0CB" stroke="#376662"/>
          <circle cx="75.48" cy="40.89" r="0.9" fill="#9FD0CB" stroke="#386662"/>
          <circle cx="107.27" cy="32.76" r="0.9" fill="#9FD0CA" stroke="#386662"/>
          <circle cx="85.45" cy="39.66" r="0.9" fill="#A0D0CA" stroke="#396662"/>
          <circle cx="79.44" cy="39.28" r="0.9" fill="#A0D0CA" stroke="#396661"/>
          <circle cx="81.14" cy="38.48" r="0.9" fill="#A1D0C9" stroke="#3A6661"/>
          <circle cx="81.14" cy="38.48" r="0.9" fill="#A1CFC9" stroke="#3B6661"/>
          <circle cx="81.14" cy="38.48" r="0.9" fill="#A2CFC9" stroke="#3B6660"/>
          <circle cx="81.14" cy="38.48" r="0.9" fill="#A2CFC9" stroke="#3C6660"/>
          <circle cx="54.56" cy="61.95" r="0.9" fill="#A3CFC8" stroke="#3C6660"/>
          <circle cx="53.6" cy="61.62" r="0.9" fill="#A3CFC8" stroke="#3D6660"/>
          <circle cx="78.15" cy="44.92" r="0.9" fill="#A4CFC8" stroke="#3E665F"/>
          <circle cx="62.64" cy="54.15" r="0.9" fill="#A4CFC7" stroke="#3E655F"/>
          <circle cx="62.64" cy="54.15" r="0.9" fill="#A5CFC7" stroke="#3F655F"/>
          <circle cx="62.64" cy="54.15" r="0.9" fill="#A5CFC7" stroke="#3F655F"/>
          <circle cx="72.5" cy="53.08" r="0.9" fill="#A6CFC7" stroke="#40655F"/>
          <circle cx="76.7" cy="52.11" r="0.9" fill="#A6CFC6" stroke="#40655E"/>
          <circle cx="49.89" cy="57.19" r="0.9" fill="#A7CEC6" stroke="#41655E"/>
          <circle cx="58.44" cy="63.39" r="0.9" fill="#A8CEC6" stroke="#41655E"/>
          <circle cx="57.21" cy="61.73" r="0.9" fill="#A8CEC6" stroke="#42655E"/>
          <circle cx="63.05" cy="63.9" r="0.9" fill="#A9CEC6" stroke="#42655E"/>
          <circle cx="63.05" cy="63.9" r="0.9" fill="#A9CEC5" stroke="#43655D"/>
          <circle cx="63.05" cy="63.9" r="0.9" fill="#AACEC5" stroke="#43655D"/>
          <circle cx="78.56" cy="37.07" r="0.9" fill="#AACEC5" stroke="#44655D"/>
          <circle cx="78.86" cy="35.66" r="0.9" fill="#AACEC5" stroke="#44655D"/>
          <circle cx="60.35" cy="53.12" r="0.9" fill="#ABCEC5" stroke="#45645D"/>
          <circle cx="50.06" cy="74.52" r="0.9" fill="#ABCEC4" stroke="#45645C"/>
          <circle cx="50.06" cy="74.52" r="0.9" fill="#ACCEC4" stroke="#46645C"/>
          <circle cx="54.42" cy="72.06" r="0.9" fill="#ACCDC4" stroke="#46645C"/>
          <circle cx="45.27" cy="70.3" r="0.9" fill="#ADCDC4" stroke="#47645C"/>
          <circle cx="45.27" cy="70.3" r="0.9" fill="#ADCDC4" stroke="#47645C"/>
          <circle cx="110.47" cy="32.56" r="0.9" fill="#AECDC3" stroke="#48645C"/>
          <circle cx="115.87" cy="34.37" r="0.9" fill="#AECDC3" stroke="#48645C"/>
          <circle cx="115.87" cy="34.37" r="0.9" fill="#AFCDC3" stroke="#49645B"/>
          <circle cx="81.7" cy="33.58" r="0.9" fill="#AFCDC3" stroke="#49645B"/>
          <circle cx="81.7" cy="33.58" r="0.9" fill="#B0CDC3" stroke="#4A645B"/>
          <circle cx="81.7" cy="33.58" r="0.9" fill="#B0CDC3" stroke="#4A645B"/>
          <circle cx="81.7" cy="33.58" r="0.9" fill="#B1CDC3" stroke="#4B645B"/>
          <circle cx="105.7" cy="28.92" r="0.9" fill="#B1CCC2" stroke="#4B635B"/>
          <circle cx="96.78" cy="31.34" r="0.9" fill="#B2CCC2" stroke="#4B635B"/>
          <circle cx="103.65" cy="33.7" r="0.9" fill="#B2CCC2" stroke="#4C635B"/>
          <circle cx="103.65" cy="33.7" r="0.9" fill="#B2CCC2" stroke="#4C635B"/>
          <circle cx="88.57" cy="29.87" r="0.9" fill="#B3CCC2" stroke="#4D635A"/>
          <circle cx="76.26" cy="39.77" r="0.9" fill="#B3CCC2" stroke="#4D635A"/>
          <circle cx="68.38" cy="42.56" r="0.9" fill="#B4CCC2" stroke="#4D635A"/>
          <circle cx="62.92" cy="60.85" r="0.9" fill="#B4CCC2" stroke="#4E635A"/>
          <circle cx="62.92" cy="60.85" r="0.9" fill="#B5CCC2" stroke="#4E635A"/>
          <circle cx="64.46" cy="63.47" r="0.9" fill="#B5CCC1" stroke="#4E635A"/>
          <circle cx="50.16" cy="52.82" r="0.9" fill="#B5CCC1" stroke="#4F635A"/>
          <circle cx="50.16" cy="52.82" r="0.9" fill="#B5CCC1" stroke="#4F635A"/>
          <circle cx="83.3" cy="32.7" r="0.9" fill="#B5CCC1" stroke="#4F635A"/>
          <circle cx="83.3" cy="32.7" r="0.9" fill="#B5CCC1" stroke="#4F6359"/>
          <circle cx="89.99" cy="41.61" r="0.9" fill="#B5CCC1" stroke="#4F6359"/>
          <circle cx="89.99" cy="41.61" r="0.9" fill="#B5CCC1" stroke="#4F6359"/>
          <circle cx="86.56" cy="34.57" r="0.9" fill="#B6CCC0" stroke="#4F6359"/>
          <circle cx="96.91" cy="46.75" r="0.9" fill="#B6CCC0" stroke="#4F6359"/>
          <circle cx="72.75" cy="42.34" r="0.9" fill="#B6CBC0" stroke="#4F6359"/>
          <circle cx="80.46" cy="46.29" r="0.9" fill="#B6CBC0" stroke="#506359"/>
          <circle cx="80.46" cy="46.29" r="0.9" fill="#B6CBC0" stroke="#506359"/>
          <circle cx="82.16" cy="47.34" r="0.9" fill="#B6CBC0" stroke="#506358"/>
          <circle cx="67.27" cy="41.01" r="0.9" fill="#B6CBBF" stroke="#506358"/>
          <circle cx="67.27" cy="41.01" r="0.9" fill="#B7CBBF" stroke="#506358"/>
          <circle cx="67.27" cy="41.01" r="0.9" fill="#B7CBBF" stroke="#506358"/>
          <circle cx="76.33" cy="61.6" r="0.9" fill="#B7CBBF" stroke="#506258"/>
          <circle cx="67.61" cy="37.8" r="0.9" fill="#B7CBBF" stroke="#516258"/>
          <circle cx="79.54" cy="44.79" r="0.9" fill="#B7CBBF" stroke="#516258"/>
          <circle cx="70.37" cy="44.52" r="0.9" fill="#B7CBBF" stroke="#516257"/>
          <circle cx="111.09" cy="35.58" r="0.9" fill="#B7CBBE" stroke="#516257"/>
          <circle cx="111.09" cy="35.58" r="0.9" fill="#B8CBBE" stroke="#516257"/>
          <circle cx="98.12" cy="26.86" r="0.9" fill="#B8CBBE" stroke="#516257"/>
          <circle cx="96.2" cy="32.86" r="0.9" fill="#B8CBBE" stroke="#516257"/>
          <circle cx="89.64" cy="37.7" r="0.9" fill="#B8CBBE" stroke="#516257"/>
          <circle cx="89.64" cy="37.7" r="0.9" fill="#B8CBBE" stroke="#526257"/>
          <circle cx="53.44" cy="61.36" r="0.9" fill="#B8CBBE" stroke="#526257"/>
          <circle cx="53.44" cy="61.36" r="0.9" fill="#B9CBBD" stroke="#526256"/>
          <circle cx="66.14" cy="64.4" r="0.9" fill="#B9CBBD" stroke="#526256"/>
          <circle cx="66.14" cy="64.4" r="0.9" fill="#B9CBBD" stroke="#526256"/>
          <circle cx="64.35" cy="61.07" r="0.9" fill="#B9CBBD" stroke="#526256"/>
          <circle cx="68.7" cy="62.07" r="0.9" fill="#B9CBBD" stroke="#526256"/>
          <circle cx="68.7" cy="62.07" r="0.9" fill="#B9CBBD" stroke="#536256"/>
          <circle cx="56.49" cy="58.13" r="0.9" fill="#B9CBBD" stroke="#536256"/>
          <circle cx="68.31" cy="53.33" r="0.9" fill="#BACBBC" stroke="#536256"/>
          <circle cx="66.48" cy="45.5" r="0.9" fill="#BACBBC" stroke="#536255"/>
          <circle cx="66.48" cy="45.5" r="0.9" fill="#BACBBC" stroke="#536255"/>
          <circle cx="56.59" cy="48.93" r="0.9" fill="#BACBBC" stroke="#536255"/>
          <circle cx="56.59" cy="48.93" r="0.9" fill="#BACBBC" stroke="#536255"/>
          <circle cx="70.22" cy="67.98" r="0.9" fill="#BACBBC" stroke="#546255"/>
          <circle cx="74.86" cy="62.56" r="0.9" fill="#BBCBBC" stroke="#546255"/>
          <circle cx="95.18" cy="58.38" r="0.9" fill="#BBCBBC" stroke="#546255"/>
          <circle cx="91.72" cy="55.63" r="0.9" fill="#BBCBBB" stroke="#546255"/>
          <circle cx="73.71" cy="42.45" r="0.9" fill="#BBCBBB" stroke="#546255"/>
          <circle cx="73.71" cy="42.45" r="0.9" fill="#BBCBBB" stroke="#546254"/>
          <circle cx="70.71" cy="60.47" r="0.9" fill="#BBCABB" stroke="#556254"/>
          <circle cx="78.17" cy="56.92" r="0.9" fill="#BCCABB" stroke="#556254"/>
          <circle cx="81.97" cy="40.57" r="0.9" fill="#BCCABB" stroke="#556254"/>
          <circle cx="86.92" cy="33.48" r="0.9" fill="#BCCABB" stroke="#556254"/>
          <circle cx="69.91" cy="49.21" r="0.9" fill="#BCCABA" stroke="#556254"/>
          <circle cx="83.61" cy="41.68" r="0.9" fill="#BCCABA" stroke="#556254"/>
          <circle cx="83.61" cy="41.68" r="0.9" fill="#BCCABA" stroke="#556254"/>
          <circle cx="83.61" cy="41.68" r="0.9" fill="#BDCABA" stroke="#566254"/>
          <circle cx="74.14" cy="37.21" r="0.9" fill="#BDCABA" stroke="#566253"/>
          <circle cx="74.14" cy="37.21" r="0.9" fill="#BDCABA" stroke="#566253"/>
          <circle cx="81.91" cy="49.89" r="0.9" fill="#BDCABA" stroke="#566253"/>
          <circle cx="78.85" cy="43.71" r="0.9" fill="#BDCABA" stroke="#566153"/>
          <circle cx="78.85" cy="43.71" r="0.9" fill="#BDCABA" stroke="#566153"/>
          <circle cx="78.85" cy="43.71" r="0.9" fill="#BECAB9" stroke="#566153"/>
          <circle cx="80.2" cy="43.66" r="0.9" fill="#BECAB9" stroke="#576153"/>
          <circle cx="80.2" cy="43.66" r="0.9" fill="#BECAB9" stroke="#576153"/>
          <circle cx="75.44" cy="46.83" r="0.9" fill="#BECAB9" stroke="#576153"/>
          <circle cx="75.44" cy="46.83" r="0.9" fill="#BECAB9" stroke="#576153"/>
          <circle cx="73.31" cy="50.22" r="0.9" fill="#BFCAB9" stroke="#576152"/>
          <circle cx="71.96" cy="54.93" r="0.9" fill="#BFCAB9" stroke="#576152"/>
          <circle cx="36.37" cy="65.93" r="0.9" fill="#BFCAB9" stroke="#586152"/>
          <circle cx="37.04" cy="65.29" r="0.9" fill="#BFCAB9" stroke="#586152"/>
          <circle cx="40.46" cy="66.86" r="0.9" fill="#BFCAB8" stroke="#586152"/>
          <circle cx="40.46" cy="66.86" r="0.9" fill="#BFCAB8" stroke="#586152"/>
          <circle cx="51.47" cy="63.56" r="0.9" fill="#C0CAB8" stroke="#586152"/>
          <circle cx="51.47" cy="63.56" r="0.9" fill="#C0CAB8" stroke="#586152"/>
          <circle cx="51.47" cy="63.56" r="0.9" fill="#C0CAB8" stroke="#596152"/>
          <circle cx="55.61" cy="60.87" r="0.9" fill="#C0C9B8" stroke="#596152"/>
          <circle cx="45.61" cy="75.26" r="0.9" fill="#C0C9B8" stroke="#596151"/>
          <circle cx="40.53" cy="70.3" r="0.9" fill="#C1C9B8" stroke="#596151"/>
          <circle cx="40.53" cy="70.3" r="0.9" fill="#C1C9B8" stroke="#596151"/>
          <circle cx="40.53" cy="70.3" r="0.9" fill="#C1C9B7" stroke="#596151"/>
          <circle cx="40.53" cy="70.3" r="0.9" fill="#C1C9B7" stroke="#596151"/>
          <circle cx="41.57" cy="66.59" r="0.9" fill="#C1C9B7" stroke="#5A6151"/>
          <circle cx="71.35" cy="46.44" r="0.9" fill="#C1C9B7" stroke="#5A6151"/>
          <circle cx="66.62" cy="51.5" r="0.9" fill="#C2C9B7" stroke="#5A6151"/>
          <circle cx="51.34" cy="45.14" r="0.9" fill="#C2C9B7" stroke="#5A6151"/>
          <circle cx="94.02" cy="45.26" r="0.9" fill="#C2C9B7" stroke="#5A6151"/>
          <circle cx="88.07" cy="43.05" r="0.9" fill="#C2C9B7" stroke="#5A6151"/>
          <circle cx="88.07" cy="43.05" r="0.9" fill="#C2C9B7" stroke="#5B6151"/>
          <circle cx="78.53" cy="43.54" r="0.9" fill="#C3C9B7" stroke="#5B6051"/>
          <circle cx="78.53" cy="43.54" r="0.9" fill="#C3C9B7" stroke="#5B6050"/>
          <circle cx="78.53" cy="43.54" r="0.9" fill="#C3C9B6" stroke="#5B6050"/>
          <circle cx="88.86" cy="37.56" r="0.9" fill="#C3C9B6" stroke="#5B6050"/>
          <circle cx="94.66" cy="37.93" r="0.9" fill="#C3C9B6" stroke="#5B6050"/>
          <circle cx="94.18" cy="39.48" r="0.9" fill="#C3C9B6" stroke="#5C6050"/>
          <circle cx="72.2" cy="42.06" r="0.9" fill="#C4C9B6" stroke="#5C6050"/>
          <circle cx="72.2" cy="42.06" r="0.9" fill="#C4C9B6" stroke="#5C6050"/>
          <circle cx="75.44" cy="40.57" r="0.9" fill="#C4C9B6" stroke="#5C6050"/>
          <circle cx="75.44" cy="40.57" r="0.9" fill="#C4C9B6" stroke="#5C6050"/>
          <circle cx="87.55" cy="45.33" r="0.9" fill="#C4C8B6" stroke="#5C6050"/>
          <circle cx="87.55" cy="45.33" r="0.9" fill="#C5C8B6" stroke="#5C6050"/>
          <circle cx="81.72" cy="52.85" r="0.9" fill="#C5C8B6" stroke="#5D6050"/>
          <circle cx="64.16" cy="56.04" r="0.9" fill="#C5C8B6" stroke="#5D6050"/>
          <circle cx="70.82" cy="57.9" r="0.9" fill="#C5C8B6" stroke="#5D6050"/>
          <circle cx="70.82" cy="57.9" r="0.9" fill="#C5C8B6" stroke="#5D6050"/>
          <circle cx="43.45" cy="53.88" r="0.9" fill="#C5C8B5" stroke="#5D604F"/>
          <circle cx="43.45" cy="53.88" r="0.9" fill="#C6C8B5" stroke="#5D604F"/>
          <circle cx="55.19" cy="57.77" r="0.9" fill="#C6C8B5" stroke="#5E604F"/>
          <circle cx="72.23" cy="44.81" r="0.9" fill="#C6C8B5" stroke="#5E604F"/>
          <circle cx="72.23" cy="44.81" r="0.9" fill="#C6C8B5" stroke="#5E604F"/>
          <circle cx="73.76" cy="53.25" r="0.9" fill="#C6C8B5" stroke="#5E604F"/>
          <circle cx="79.85" cy="58.94" r="0.9" fill="#C7C8B5" stroke="#5E604F"/>
          <circle cx="70.1" cy="51.65" r="0.9" fill="#C7C8B5" stroke="#5E604F"/>
          <circle cx="70.1" cy="51.65" r="0.9" fill="#C7C8B5" stroke="#5F604F"/>
          <circle cx="70.1" cy="51.65" r="0.9" fill="#C7C8B5" stroke="#5F5F4F"/>
          <circle cx="70.53" cy="50.18" r="0.9" fill="#C7C8B5" stroke="#5F5F4F"/>
          <circle cx="78.48" cy="50.04" r="0.9" fill="#C7C8B5" stroke="#5F5F4F"/>
          <circle cx="78.48" cy="50.04" r="0.9" fill="#C8C8B5" stroke="#5F5F4F"/>
          <circle cx="78.48" cy="50.04" r="0.9" fill="#C8C8B5" stroke="#5F5F4F"/>
          <circle cx="75.41" cy="37.66" r="0.9" fill="#C8C8B5" stroke="#5F5F4F"/>
          <circle cx="69.86" cy="60.33" r="0.9" fill="#C8C7B5" stroke="#605F4F"/>
          <circle cx="69.86" cy="60.33" r="0.9" fill="#C8C7B5" stroke="#605F4F"/>
          <circle cx="78.02" cy="60.02" r="0.9" fill="#C9C7B5" stroke="#605F4F"/>
          <circle cx="74.56" cy="52.35" r="0.9" fill="#C9C7B4" stroke="#605F4F"/>
          <circle cx="66.61" cy="52.05" r="0.9" fill="#C9C7B4" stroke="#605F4F"/>
          <circle cx="92.23" cy="41.38" r="0.9" fill="#C9C7B4" stroke="#605F4F"/>
          <circle cx="81.17" cy="40.68" r="0.9" fill="#C9C7B4" stroke="#615F4E"/>
          <circle cx="65.9" cy="52.8" r="0.9" fill="#C9C7B4" stroke="#615F4E"/>
          <circle cx="85.65" cy="36.63" r="0.9" fill="#CAC7B4" stroke="#615F4E"/>
          <circle cx="70.85" cy="54.22" r="0.9" fill="#CAC7B4" stroke="#615F4E"/>
          <circle cx="73.17" cy="54.42" r="0.9" fill="#CAC7B4" stroke="#615F4E"/>
          <circle cx="73.01" cy="54.48" r="0.9" fill="#CAC7B3" stroke="#615F4E"/>
          <circle cx="53.73" cy="59.05" r="0.9" fill="#CBC7B3" stroke="#625F4D"/>
          <circle cx="111.25" cy="38.85" r="0.9" fill="#CBC7B3" stroke="#625F4D"/>
          <circle cx="111.25" cy="38.85" r="0.9" fill="#CBC7B2" stroke="#625F4D"/>
          <circle cx="111.25" cy="38.85" r="0.9" fill="#CBC7B2" stroke="#625F4C"/>
          <circle cx="71.61" cy="40.03" r="0.9" fill="#CCC7B2" stroke="#625F4C"/>
          <circle cx="71.61" cy="40.03" r="0.9" fill="#CCC7B1" stroke="#635F4C"/>
          <circle cx="73.51" cy="40.75" r="0.9" fill="#CCC7B1" stroke="#635E4C"/>
          <circle cx="87.1" cy="50.2" r="0.9" fill="#CCC7B1" stroke="#635E4B"/>
          <circle cx="87.1" cy="50.2" r="0.9" fill="#CDC6B0" stroke="#635E4B"/>
          <circle cx="87.1" cy="50.2" r="0.9" fill="#CDC6B0" stroke="#645E4B"/>
          <circle cx="72.15" cy="43.18" r="0.9" fill="#CDC6B0" stroke="#645E4A"/>
          <circle cx="72.45" cy="48.5" r="0.9" fill="#CDC6AF" stroke="#645E4A"/>
          <circle cx="64.14" cy="43.16" r="0.9" fill="#CEC6AF" stroke="#645E4A"/>
          <circle cx="72.22" cy="44.07" r="0.9" fill="#CEC6AF" stroke="#645E4A"/>
          <circle cx="74.4" cy="53.28" r="0.9" fill="#CEC6AF" stroke="#655E49"/>
          <circle cx="74.4" cy="53.28" r="0.9" fill="#CFC6AE" stroke="#655E49"/>
          <circle cx="98" cy="37.7" r="0.9" fill="#CFC6AE" stroke="#655E49"/>
          <circle cx="70.55" cy="50.33" r="0.9" fill="#CFC6AE" stroke="#655E49"/>
          <circle cx="72.14" cy="49.93" r="0.9" fill="#D0C6AD" stroke="#665E48"/>
          <circle cx="84.36" cy="39.37" r="0.9" fill="#D0C6AD" stroke="#665E48"/>
          <circle cx="84.36" cy="39.37" r="0.9" fill="#D0C6AD" stroke="#665E48"/>
          <circle cx="84.36" cy="39.37" r="0.9" fill="#D1C6AC" stroke="#665E47"/>
          <circle cx="84.36" cy="39.37" r="0.9" fill="#D1C5AC" stroke="#675E47"/>
          <circle cx="84.36" cy="39.37" r="0.9" fill="#D1C5AC" stroke="#675D47"/>
          <circle cx="94.66" cy="36.94" r="0.9" fill="#D2C5AB" stroke="#675D47"/>
          <circle cx="65.67" cy="52.59" r="0.9" fill="#D2C5AB" stroke="#685D46"/>
          <circle cx="67.2" cy="54.24" r="0.9" fill="#D2C5AB" stroke="#685D46"/>
          <circle cx="67.2" cy="54.24" r="0.9" fill="#D3C5AB" stroke="#685D46"/>
          <circle cx="71.11" cy="40.38" r="0.9" fill="#D3C5AA" stroke="#685D46"/>
          <circle cx="64.75" cy="61.16" r="0.9" fill="#D3C5AA" stroke="#695D45"/>
          <circle cx="64.75" cy="61.16" r="0.9" fill="#D4C5AA" stroke="#695D45"/>
          <circle cx="76.19" cy="56.6" r="0.9" fill="#D4C5AA" stroke="#695D45"/>
          <circle cx="76.19" cy="56.6" r="0.9" fill="#D4C5A9" stroke="#6A5D45"/>
          <circle cx="55.39" cy="54.21" r="0.9" fill="#D5C4A9" stroke="#6A5D44"/>
          <circle cx="55.39" cy="54.21" r="0.9" fill="#D5C4A9" stroke="#6A5D44"/>
          <circle cx="83.64" cy="43.08" r="0.9" fill="#D6C4A8" stroke="#6A5C44"/>
          <circle cx="86.57" cy="36.26" r="0.9" fill="#D6C4A8" stroke="#6B5C44"/>
          <circle cx="46.44" cy="65.86" r="0.9" fill="#D6C4A8" stroke="#6B5C44"/>
          <circle cx="46.44" cy="65.86" r="0.9" fill="#D7C4A8" stroke="#6B5C43"/>
          <circle cx="46.44" cy="65.86" r="0.9" fill="#D7C4A7" stroke="#6C5C43"/>
          <circle cx="41.03" cy="68.03" r="0.9" fill="#D8C4A7" stroke="#6C5C43"/>
          <circle cx="44.57" cy="68.95" r="0.9" fill="#D8C4A7" stroke="#6C5C43"/>
          <circle cx="44.57" cy="68.95" r="0.9" fill="#D8C3A6" stroke="#6C5C42"/>
          <circle cx="44.57" cy="68.95" r="0.9" fill="#D8C2A5" stroke="#6C5B41"/>
          <circle cx="37.2" cy="64.04" r="0.9" fill="#D7C2A5" stroke="#6C5A41"/>
          <circle cx="37.2" cy="64.04" r="0.9" fill="#D7C1A4" stroke="#6B5940"/>
          <circle cx="61.52" cy="59.49" r="0.9" fill="#D7C0A3" stroke="#6B593F"/>
          <circle cx="61.09" cy="54.44" r="0.9" fill="#D6BFA2" stroke="#6B583E"/>
          <circle cx="48.29" cy="62.54" r="0.9" fill="#D6BEA1" stroke="#6A573D"/>
          <circle cx="47.43" cy="62.87" r="0.9" fill="#D5BDA0" stroke="#6A563C"/>
          <circle cx="48.02" cy="51.52" r="0.9" fill="#D5BC9F" stroke="#69553C"/>
          <circle cx="48.02" cy="51.52" r="0.9" fill="#D5BB9E" stroke="#69553B"/>
          <circle cx="56.24" cy="64.19" r="0.9" fill="#D4BA9D" stroke="#69543A"/>
          <circle cx="56.17" cy="57.68" r="0.9" fill="#D4B99C" stroke="#685339"/>
          <circle cx="41.18" cy="58.36" r="0.9" fill="#D3B89B" stroke="#685238"/>
          <circle cx="89.14" cy="46.52" r="0.9" fill="#D3B79A" stroke="#675137"/>
          <circle cx="48.46" cy="55.28" r="0.9" fill="#D3B799" stroke="#675137"/>
          <circle cx="53.49" cy="59.2" r="0.9" fill="#D2B698" stroke="#665036"/>
          <circle cx="74.88" cy="46.75" r="0.9" fill="#D2B597" stroke="#664F35"/>
          <circle cx="74.88" cy="46.75" r="0.9" fill="#D1B496" stroke="#664E34"/>
          <circle cx="74.89" cy="49.05" r="0.9" fill="#D1B395" stroke="#654D33"/>
          <circle cx="55.42" cy="53.83" r="0.9" fill="#D0B294" stroke="#654C32"/>
          <circle cx="55.42" cy="53.83" r="0.9" fill="#D0B193" stroke="#644C32"/>
          <circle cx="55.42" cy="53.83" r="0.9" fill="#D0B092" stroke="#644B31"/>
          <circle cx="60.46" cy="62.56" r="0.9" fill="#CFAF91" stroke="#644A30"/>
          <circle cx="50.52" cy="57.24" r="0.9" fill="#CFAE90" stroke="#63492F"/>
          <circle cx="57.04" cy="67.96" r="0.9" fill="#CEAD8F" stroke="#63482E"/>
          <circle cx="62.3" cy="49.84" r="0.9" fill="#CEAC8E" stroke="#62472E"/>
          <circle cx="62.3" cy="49.84" r="0.9" fill="#CDAB8D" stroke="#62472D"/>
          <circle cx="62.3" cy="49.84" r="0.9" fill="#CDAA8C" stroke="#61462C"/>
          <circle cx="58.39" cy="49.93" r="0.9" fill="#CCA98C" stroke="#61452B"/>
          <circle cx="58.05" cy="56.2" r="0.9" fill="#CCA88B" stroke="#60442B"/>
          <circle cx="58.05" cy="56.2" r="0.9" fill="#CCA78A" stroke="#60432A"/>
          <circle cx="84.65" cy="52.32" r="0.9" fill="#CBA689" stroke="#5F4229"/>
          <circle cx="84.65" cy="52.32" r="0.9" fill="#CBA588" stroke="#5F4128"/>
          <circle cx="80.54" cy="51.99" r="0.9" fill="#CAA487" stroke="#5F4027"/>
          <circle cx="60.25" cy="64.54" r="0.9" fill="#CAA386" stroke="#5E4027"/>
          <circle cx="60.25" cy="64.54" r="0.9" fill="#C9A285" stroke="#5E3F26"/>
          <circle cx="62.12" cy="52.15" r="0.9" fill="#C9A184" stroke="#5D3E25"/>
          <circle cx="62.47" cy="54.14" r="0.9" fill="#C8A083" stroke="#5D3D24"/>
          <circle cx="65.33" cy="58.13" r="0.9" fill="#C89F82" stroke="#5C3C24"/>
          <circle cx="68.02" cy="49.32" r="0.9" fill="#C79E82" stroke="#5C3B23"/>
          <circle cx="88.1" cy="40.81" r="0.9" fill="#C79D81" stroke="#5B3A22"/>
          <circle cx="88.1" cy="40.81" r="0.9" fill="#C69C80" stroke="#5B3921"/>
          <circle cx="88.1" cy="40.81" r="0.9" fill="#C69B7F" stroke="#5A3821"/>
          <circle cx="78.37" cy="43.93" r="0.9" fill="#C59A7E" stroke="#5A3820"/>
          <circle cx="74.18" cy="47.34" r="0.9" fill="#C5997D" stroke="#59371F"/>
          <circle cx="101.69" cy="39.09" r="0.9" fill="#C4987C" stroke="#59361F"/>
          <circle cx="101.82" cy="36.93" r="0.9" fill="#C4977B" stroke="#58351E"/>
          <circle cx="92.15" cy="35.62" r="0.9" fill="#C3967B" stroke="#58341D"/>
          <circle cx="88.09" cy="35.11" r="0.9" fill="#C3957A" stroke="#57331C"/>
          <circle cx="97.52" cy="37.94" r="0.9" fill="#C29379" stroke="#57321C"/>
          <circle cx="97.52" cy="37.94" r="0.9" fill="#C29278" stroke="#56311B"/>
          <circle cx="62.74" cy="53.79" r="0.9" fill="#C19177" stroke="#56301A"/>
          <circle cx="75.98" cy="43.63" r="0.9" fill="#C19076" stroke="#552F1A"/>
          <circle cx="75.98" cy="43.63" r="0.9" fill="#C08F75" stroke="#542E19"/>
          <circle cx="75.98" cy="43.63" r="0.9" fill="#C08E75" stroke="#542D18"/>
          <circle cx="86.69" cy="38.94" r="0.9" fill="#BF8D74" stroke="#532D18"/>
          <circle cx="86.69" cy="38.94" r="0.9" fill="#BF8C73" stroke="#532C17"/>
          <circle cx="86.6" cy="46.61" r="0.9" fill="#BE8B72" stroke="#522B16"/>
          <circle cx="74.64" cy="45.61" r="0.9" fill="#BE8A71" stroke="#522A16"/>
          <circle cx="74.64" cy="45.61" r="0.9" fill="#BD8970" stroke="#512915"/>
          <circle cx="54.88" cy="60.68" r="0.9" fill="#BC8870" stroke="#512814"/>
          <circle cx="61.98" cy="53.99" r="0.9" fill="#BC876F" stroke="#502714"/>
          <circle cx="51.79" cy="61.35" r="0.9" fill="#BB856E" stroke="#4F2613"/>
          <circle cx="53.81" cy="62.36" r="0.9" fill="#BB846D" stroke="#4F2513"/>
          <circle cx="55.7" cy="57.71" r="0.9" fill="#BA836C" stroke="#4E2412"/>
          <circle cx="55.7" cy="57.71" r="0.9" fill="#BA826C" stroke="#4E2311"/>
          <circle cx="56.61" cy="51.63" r="0.9" fill="#B9816B" stroke="#4D2211"/>
          <circle cx="52.37" cy="71.48" r="0.9" fill="#B8806A" stroke="#4C2110"/>
          <circle cx="51.45" cy="60.28" r="0.9" fill="#B87F69" stroke="#4C200F"/>
          <circle cx="83.15" cy="46.29" r="0.9" fill="#B77E69" stroke="#4B1F0F"/>
          <circle cx="72.24" cy="53.22" r="0.9" fill="#B77D68" stroke="#4B1E0E"/>
          <circle cx="82.27" cy="48.63" r="0.9" fill="#B67B67" stroke="#4A1D0D"/>
          <circle cx="82.27" cy="48.63" r="0.9" fill="#B57A66" stroke="#4A1C0C"/>
          <circle cx="79.76" cy="48.35" r="0.9" fill="#B57966" stroke="#491B0B"/>
          <circle cx="72.07" cy="47.17" r="0.9" fill="#B47865" stroke="#481A0A"/>
          <circle cx="89.69" cy="41.17" r="0.9" fill="#B47764" stroke="#481909"/>
          <circle cx="99.63" cy="34.76" r="0.9" fill="#B37663" stroke="#471808"/>
          <circle cx="99.63" cy="34.76" r="0.9" fill="#B27563" stroke="#471707"/>
          <circle cx="96.07" cy="37.51" r="0.9" fill="#B27462" stroke="#461506"/>
          <circle cx="92.37" cy="40.24" r="0.9" fill="#B17261" stroke="#451405"/>
          <circle cx="92.37" cy="40.24" r="0.9" fill="#B07161" stroke="#451304"/>
          <circle cx="92.37" cy="40.24" r="0.9" fill="#B07060" stroke="#441203"/>
          <circle cx="92.37" cy="40.24" r="0.9" fill="#AF6F5F" stroke="#431102"/>
          <circle cx="92.37" cy="40.24" r="0.9" fill="#AE6E5E" stroke="#431001"/>
          <circle cx="92.37" cy="40.24" r="0.9" fill="#AE6D5E" stroke="#420E00"/>
          <circle cx="90.56" cy="40.05" r="0.9" fill="#AD6C5D" stroke="#420D00"/>
          <circle cx="90.56" cy="40.05" r="0.9" fill="#AC6A5C" stroke="#410C00"/>
          <circle cx="107.52" cy="22.69" r="0.9" fill="#AC695C" stroke="#400A00"/>
          <circle cx="97.61" cy="44.53" r="0.9" fill="#AB685B" stroke="#400900"/>
          <circle cx="92.98" cy="48.62" r="0.9" fill="#AA675A" stroke="#3F0800"/>
          <circle cx="92.43" cy="47.46" r="0.9" fill="#AA665A" stroke="#3F0600"/>
          <circle cx="91.18" cy="56.05" r="0.9" fill="#A96559" stroke="#3E0500"/>
          <circle cx="71.97" cy="50.78" r="0.9" fill="#A86358" stroke="#3D0400"/>
          <circle cx="71.97" cy="50.78" r="0.9" fill="#A76258" stroke="#3D0300"/>
          <circle cx="71.97" cy="50.78" r="0.9" fill="#A76157" stroke="#3C0200"/>
          <circle cx="71.97" cy="50.78" r="0.9" fill="#A66056" stroke="#3B0100"/>
          <circle cx="69.95" cy="56.48" r="0.9" fill="#A55F56" stroke="#3B0000"/>
          <circle cx="69.47" cy="56.14" r="0.9" fill="#A45E55" stroke="#3A0000"/>
          <circle cx="53.11" cy="50.89" r="0.9" fill="#A45C54" stroke="#3A0000"/>
          <circle cx="53.11" cy="50.89" r="0.9" fill="#A35B54" stroke="#390000"/>
          <circle cx="55.56" cy="53.4" r="0.9" fill="#A25A53" stroke="#380000"/>
          <circle cx="55.56" cy="53.4" r="0.9" fill="#A15953" stroke="#380000"/>
          <circle cx="66.57" cy="55.73" r="0.9" fill="#A15852" stroke="#370000"/>
          <circle cx="64.39" cy="52.16" r="0.9" fill="#A05751" stroke="#370000"/>
          <circle cx="74.54" cy="45.04" r="0.9" fill="#9F5551" stroke="#360000"/>
          <circle cx="62.91" cy="53" r="0.9" fill="#9E5450" stroke="#360000"/>
          <circle cx="47.44" cy="63.8" r="0.9" fill="#9E5350" stroke="#350000"/>
          <circle cx="46.77" cy="66.96" r="0.9" fill="#9D524F" stroke="#350000"/>
          <circle cx="68.53" cy="47.62" r="0.9" fill="#9C514E" stroke="#340000"/>
          <circle cx="84.41" cy="41.41" r="0.9" fill="#9B4F4E" stroke="#340000"/>
          <circle cx="84.41" cy="41.41" r="0.9" fill="#9A4E4D" stroke="#340000"/>
          <circle cx="72.14" cy="49.6" r="0.9" fill="#9A4D4D" stroke="#330000"/>
          <circle cx="62.93" cy="53.79" r="0.9" fill="#994C4C" stroke="#330000"/>
          <circle cx="62.93" cy="53.79" r="0.9" fill="#984A4C" stroke="#320000"/>
          <circle cx="65.68" cy="60.97" r="0.9" fill="#97494B" stroke="#320000"/>
          <circle cx="65.68" cy="60.97" r="0.9" fill="#96484B" stroke="#320000"/>
          <circle cx="63.25" cy="53.63" r="0.9" fill="#95474A" stroke="#320000"/>
          <circle cx="77.98" cy="54.87" r="0.9" fill="#944649" stroke="#310000"/>
          <circle cx="66.12" cy="56.11" r="0.9" fill="#944449" stroke="#320000"/>
          <circle cx="60.06" cy="50.26" r="0.9" fill="#934348" stroke="#320000"/>
          <circle cx="62.45" cy="49.12" r="0.9" fill="#924248" stroke="#320000"/>
          <circle cx="62.45" cy="49.12" r="0.9" fill="#914147" stroke="#320000"/>
          <circle cx="86.29" cy="48.58" r="0.9" fill="#903F47" stroke="#320000"/>
          <circle cx="76.96" cy="39.53" r="0.9" fill="#8F3E46" stroke="#320000"/>
          <circle cx="72.3" cy="38.57" r="0.9" fill="#8E3D46" stroke="#320000"/>
          <circle cx="96.39" cy="46.48" r="0.9" fill="#8D3C45" stroke="#320000"/>
          <circle cx="91.42" cy="34.41" r="0.9" fill="#8D3A45" stroke="#320000"/>
          <circle cx="78.88" cy="31.88" r="0.9" fill="#8C3944" stroke="#320000"/>
          <circle cx="106.04" cy="40.99" r="0.9" fill="#8B3844" stroke="#330000"/>
          <circle cx="106.04" cy="40.99" r="0.9" fill="#8A3743" stroke="#330000"/>
          <circle cx="106.04" cy="40.99" r="0.9" fill="#893543" stroke="#330000"/>
          <circle cx="87.59" cy="40.65" r="0.9" fill="#883442" stroke="#330000"/>
          <circle cx="87.59" cy="40.65" r="0.9" fill="#873342" stroke="#330000"/>
          <circle cx="76.54" cy="50.89" r="0.9" fill="#863241" stroke="#330000"/>
          <circle cx="76.54" cy="50.89" r="0.9" fill="#853041" stroke="#330000"/>
          <circle cx="85.04" cy="53.25" r="0.9" fill="#842F40" stroke="#330000"/>
          <circle cx="70.28" cy="55.5" r="0.9" fill="#832E40" stroke="#330000"/>
          <circle cx="68.72" cy="43.93" r="0.9" fill="#822C3F" stroke="#330000"/>
          <circle cx="77.51" cy="43.73" r="0.9" fill="#812B3F" stroke="#330000"/>
          <circle cx="77.51" cy="43.73" r="0.9" fill="#802A3E" stroke="#330000"/>
          <circle cx="60.4" cy="49.1" r="0.9" fill="#7F283E" stroke="#330000"/>
          <circle cx="66.71" cy="54.19" r="0.9" fill="#7E273E" stroke="#340000"/>
        </g>
      </g>
    </g>
  </g>
  <g class="guide ylabels" font-size="2.82" font-family="'PT Sans Caption','Helvetica Neue','Helvetica',sans-serif" fill="#6C606B" id="fig-633594df46ba40bd9495312ac18d8d91-element-17">
    <text x="14.59" y="82.32" text-anchor="end" dy="0.35em">-3</text>
    <text x="14.59" y="71.03" text-anchor="end" dy="0.35em">-2</text>
    <text x="14.59" y="59.75" text-anchor="end" dy="0.35em">-1</text>
    <text x="14.59" y="48.46" text-anchor="end" dy="0.35em">0</text>
    <text x="14.59" y="37.18" text-anchor="end" dy="0.35em">1</text>
    <text x="14.59" y="25.9" text-anchor="end" dy="0.35em">2</text>
    <text x="14.59" y="14.61" text-anchor="end" dy="0.35em">3</text>
  </g>
  <g font-size="3.88" font-family="'PT Sans','Helvetica Neue','Helvetica',sans-serif" fill="#564A55" stroke="none" id="fig-633594df46ba40bd9495312ac18d8d91-element-18">
    <text x="8.81" y="48.46" text-anchor="end" dy="0.35em">y</text>
  </g>
  <g font-size="3.88" font-family="'PT Sans','Helvetica Neue','Helvetica',sans-serif" fill="#564A55" stroke="none" id="fig-633594df46ba40bd9495312ac18d8d91-element-19">
    <text x="74.39" y="10.61" text-anchor="middle">NUTS (ϵ = 0.5)</text>
  </g>
</g>
<defs>
<clipPath id="fig-633594df46ba40bd9495312ac18d8d91-element-10">
  <path d="M15.59,12.61 L 133.18 12.61 133.18 84.32 15.59 84.32" />
</clipPath
></defs>
</svg>
