<?xml version="1.0" encoding="UTF-8"?>
<svg xmlns="http://www.w3.org/2000/svg"
     xmlns:xlink="http://www.w3.org/1999/xlink"
     xmlns:gadfly="http://www.gadflyjl.org/ns"
     version="1.2"
     width="152.4mm" height="101.6mm" viewBox="0 0 152.4 101.6"
     stroke="none"
     fill="#000000"
     stroke-width="0.3"
     font-size="3.88"
>
<g class="plotroot xscalable yscalable" id="fig-918eb7e628aa4de29d7359e12d17eba9-element-1">
  <g font-size="3.88" font-family="'PT Sans','Helvetica Neue','Helvetica',sans-serif" fill="#564A55" stroke="none" id="fig-918eb7e628aa4de29d7359e12d17eba9-element-2">
    <text x="74.39" y="93.6" text-anchor="middle">x</text>
  </g>
  <g class="guide xlabels" font-size="2.82" font-family="'PT Sans Caption','Helvetica Neue','Helvetica',sans-serif" fill="#6C606B" id="fig-918eb7e628aa4de29d7359e12d17eba9-element-3">
    <text x="17.59" y="87.99" text-anchor="middle">-3</text>
    <text x="36.52" y="87.99" text-anchor="middle">-2</text>
    <text x="55.46" y="87.99" text-anchor="middle">-1</text>
    <text x="74.39" y="87.99" text-anchor="middle">0</text>
    <text x="93.32" y="87.99" text-anchor="middle">1</text>
    <text x="112.25" y="87.99" text-anchor="middle">2</text>
    <text x="131.18" y="87.99" text-anchor="middle">3</text>
  </g>
  <g class="guide colorkey" id="fig-918eb7e628aa4de29d7359e12d17eba9-element-4">
    <g font-size="2.82" font-family="'PT Sans','Helvetica Neue','Helvetica',sans-serif" fill="#4C404B" id="fig-918eb7e628aa4de29d7359e12d17eba9-element-5">
      <text x="137.5" y="65.5" dy="0.35em">100</text>
      <text x="137.5" y="46.71" dy="0.35em">400</text>
      <text x="137.5" y="59.24" dy="0.35em">200</text>
      <text x="137.5" y="71.7" dy="0.35em">1</text>
      <text x="137.5" y="52.97" dy="0.35em">300</text>
      <text x="137.5" y="40.45" dy="0.35em">500</text>
    </g>
    <g shape-rendering="crispEdges" stroke="none" id="fig-918eb7e628aa4de29d7359e12d17eba9-element-6">
      <rect x="135.18" y="70.92" width="1.31" height="0.78" fill="#004D84"/>
      <rect x="135.18" y="70.14" width="1.31" height="0.78" fill="#005B8D"/>
      <rect x="135.18" y="69.36" width="1.31" height="0.78" fill="#006995"/>
      <rect x="135.18" y="68.58" width="1.31" height="0.78" fill="#00769D"/>
      <rect x="135.18" y="67.79" width="1.31" height="0.78" fill="#0083A3"/>
      <rect x="135.18" y="67.01" width="1.31" height="0.78" fill="#278FA9"/>
      <rect x="135.18" y="66.23" width="1.31" height="0.78" fill="#409BAF"/>
      <rect x="135.18" y="65.45" width="1.31" height="0.78" fill="#55A7B5"/>
      <rect x="135.18" y="64.67" width="1.31" height="0.78" fill="#69B2BA"/>
      <rect x="135.18" y="63.89" width="1.31" height="0.78" fill="#7BBCC0"/>
      <rect x="135.18" y="63.11" width="1.31" height="0.78" fill="#8DC6C5"/>
      <rect x="135.18" y="62.33" width="1.31" height="0.78" fill="#9ED0CB"/>
      <rect x="135.18" y="61.54" width="1.31" height="0.78" fill="#A5CFC7"/>
      <rect x="135.18" y="60.76" width="1.31" height="0.78" fill="#ABCEC4"/>
      <rect x="135.18" y="59.98" width="1.31" height="0.78" fill="#B1CCC2"/>
      <rect x="135.18" y="59.2" width="1.31" height="0.78" fill="#B5CCC1"/>
      <rect x="135.18" y="58.42" width="1.31" height="0.78" fill="#B7CBBF"/>
      <rect x="135.18" y="57.64" width="1.31" height="0.78" fill="#B9CBBD"/>
      <rect x="135.18" y="56.86" width="1.31" height="0.78" fill="#BBCBBB"/>
      <rect x="135.18" y="56.07" width="1.31" height="0.78" fill="#BDCABA"/>
      <rect x="135.18" y="55.29" width="1.31" height="0.78" fill="#BFCAB8"/>
      <rect x="135.18" y="54.51" width="1.31" height="0.78" fill="#C2C9B7"/>
      <rect x="135.18" y="53.73" width="1.31" height="0.78" fill="#C4C9B6"/>
      <rect x="135.18" y="52.95" width="1.31" height="0.78" fill="#C6C8B5"/>
      <rect x="135.18" y="52.17" width="1.31" height="0.78" fill="#C9C7B4"/>
      <rect x="135.18" y="51.39" width="1.31" height="0.78" fill="#CCC7B2"/>
      <rect x="135.18" y="50.61" width="1.31" height="0.78" fill="#CFC6AE"/>
      <rect x="135.18" y="49.82" width="1.31" height="0.78" fill="#D4C5AA"/>
      <rect x="135.18" y="49.04" width="1.31" height="0.78" fill="#D8C3A6"/>
      <rect x="135.18" y="48.26" width="1.31" height="0.78" fill="#D3B79A"/>
      <rect x="135.18" y="47.48" width="1.31" height="0.78" fill="#CDAB8E"/>
      <rect x="135.18" y="46.7" width="1.31" height="0.78" fill="#C89E82"/>
      <rect x="135.18" y="45.92" width="1.31" height="0.78" fill="#C19177"/>
      <rect x="135.18" y="45.14" width="1.31" height="0.78" fill="#BA836C"/>
      <rect x="135.18" y="44.36" width="1.31" height="0.78" fill="#B27563"/>
      <rect x="135.18" y="43.57" width="1.31" height="0.78" fill="#AA665A"/>
      <rect x="135.18" y="42.79" width="1.31" height="0.78" fill="#A05752"/>
      <rect x="135.18" y="42.01" width="1.31" height="0.78" fill="#96484A"/>
      <rect x="135.18" y="41.23" width="1.31" height="0.78" fill="#8B3844"/>
      <rect x="135.18" y="40.45" width="1.31" height="0.78" fill="#7E273E"/>
      <g stroke="#FFFFFF" stroke-width="0.2" id="fig-918eb7e628aa4de29d7359e12d17eba9-element-7">
        <path d="M135.18,65.5 L 136.5 65.5" fill="#004D84"/>
        <path d="M135.18,46.71 L 136.5 46.71" fill="#005B8D"/>
        <path d="M135.18,59.24 L 136.5 59.24" fill="#006995"/>
        <path d="M135.18,71.7 L 136.5 71.7" fill="#00769D"/>
        <path d="M135.18,52.97 L 136.5 52.97" fill="#0083A3"/>
        <path d="M135.18,40.45 L 136.5 40.45" fill="#278FA9"/>
      </g>
    </g>
    <g fill="#362A35" font-size="3.88" font-family="'PT Sans','Helvetica Neue','Helvetica',sans-serif" stroke="none" id="fig-918eb7e628aa4de29d7359e12d17eba9-element-8">
      <text x="135.18" y="36.45">Iteration</text>
    </g>
  </g>
  <g clip-path="url(#fig-918eb7e628aa4de29d7359e12d17eba9-element-10)" id="fig-918eb7e628aa4de29d7359e12d17eba9-element-9">
    <g pointer-events="visible" opacity="1" fill="none" stroke="none" class="guide background" id="fig-918eb7e628aa4de29d7359e12d17eba9-element-11">
      <rect x="15.59" y="12.61" width="117.59" height="71.7"/>
    </g>
    <g class="guide ygridlines xfixed" stroke-dasharray="0.5,0.5" stroke-width="0.2" stroke="#D0D0E0" id="fig-918eb7e628aa4de29d7359e12d17eba9-element-12">
      <path d="M15.59,82.32 L 133.18 82.32"/>
      <path d="M15.59,71.03 L 133.18 71.03"/>
      <path d="M15.59,59.75 L 133.18 59.75"/>
      <path d="M15.59,48.46 L 133.18 48.46"/>
      <path d="M15.59,37.18 L 133.18 37.18"/>
      <path d="M15.59,25.9 L 133.18 25.9"/>
      <path d="M15.59,14.61 L 133.18 14.61"/>
    </g>
    <g class="guide xgridlines yfixed" stroke-dasharray="0.5,0.5" stroke-width="0.2" stroke="#D0D0E0" id="fig-918eb7e628aa4de29d7359e12d17eba9-element-13">
      <path d="M17.59,12.61 L 17.59 84.32"/>
      <path d="M36.52,12.61 L 36.52 84.32"/>
      <path d="M55.46,12.61 L 55.46 84.32"/>
      <path d="M74.39,12.61 L 74.39 84.32"/>
      <path d="M93.32,12.61 L 93.32 84.32"/>
      <path d="M112.25,12.61 L 112.25 84.32"/>
      <path d="M131.18,12.61 L 131.18 84.32"/>
    </g>
    <g class="plotpanel" id="fig-918eb7e628aa4de29d7359e12d17eba9-element-14">
      <g class="geometry" id="fig-918eb7e628aa4de29d7359e12d17eba9-element-15">
        <g stroke-width="0.3" id="fig-918eb7e628aa4de29d7359e12d17eba9-element-16">
          <circle cx="69.26" cy="52.11" r="0.9" fill="#004D84" stroke="#000337"/>
          <circle cx="57.69" cy="58.35" r="0.9" fill="#004E85" stroke="#000436"/>
          <circle cx="57.38" cy="59.84" r="0.9" fill="#004F86" stroke="#000436"/>
          <circle cx="54.72" cy="56.52" r="0.9" fill="#005186" stroke="#000436"/>
          <circle cx="75.94" cy="47.66" r="0.9" fill="#005287" stroke="#000536"/>
          <circle cx="73.14" cy="49.9" r="0.9" fill="#005388" stroke="#000535"/>
          <circle cx="75.39" cy="41.47" r="0.9" fill="#005488" stroke="#000535"/>
          <circle cx="68.12" cy="45.78" r="0.9" fill="#005589" stroke="#000535"/>
          <circle cx="67.72" cy="41.96" r="0.9" fill="#00568A" stroke="#000635"/>
          <circle cx="75.64" cy="59.21" r="0.9" fill="#00578A" stroke="#000634"/>
          <circle cx="71.55" cy="47.47" r="0.9" fill="#00588B" stroke="#000634"/>
          <circle cx="76.52" cy="50.78" r="0.9" fill="#00598C" stroke="#000734"/>
          <circle cx="81.03" cy="48.12" r="0.9" fill="#005A8D" stroke="#000734"/>
          <circle cx="100.52" cy="26.35" r="0.9" fill="#005B8D" stroke="#000733"/>
          <circle cx="73.62" cy="56.23" r="0.9" fill="#005C8E" stroke="#000733"/>
          <circle cx="71.34" cy="54.78" r="0.9" fill="#005D8E" stroke="#000833"/>
          <circle cx="86.02" cy="36.73" r="0.9" fill="#005E8F" stroke="#000833"/>
          <circle cx="84.59" cy="36.28" r="0.9" fill="#006090" stroke="#000832"/>
          <circle cx="91.09" cy="34.73" r="0.9" fill="#006190" stroke="#000832"/>
          <circle cx="110.41" cy="29.9" r="0.9" fill="#006291" stroke="#000932"/>
          <circle cx="112.16" cy="25.98" r="0.9" fill="#006392" stroke="#000931"/>
          <circle cx="106.56" cy="33.44" r="0.9" fill="#006492" stroke="#000931"/>
          <circle cx="47.05" cy="63.61" r="0.9" fill="#006593" stroke="#000A31"/>
          <circle cx="45.95" cy="62.46" r="0.9" fill="#006694" stroke="#000C32"/>
          <circle cx="56.06" cy="61.31" r="0.9" fill="#006794" stroke="#000D32"/>
          <circle cx="58.33" cy="61.64" r="0.9" fill="#006895" stroke="#000F33"/>
          <circle cx="54.27" cy="61.49" r="0.9" fill="#006995" stroke="#001033"/>
          <circle cx="57.31" cy="61.69" r="0.9" fill="#006A96" stroke="#001134"/>
          <circle cx="58.76" cy="49.01" r="0.9" fill="#006B97" stroke="#001234"/>
          <circle cx="87.23" cy="47.78" r="0.9" fill="#006C97" stroke="#001335"/>
          <circle cx="87.03" cy="48.75" r="0.9" fill="#006D98" stroke="#001435"/>
          <circle cx="75.44" cy="41.53" r="0.9" fill="#006E98" stroke="#001536"/>
          <circle cx="78.19" cy="45.34" r="0.9" fill="#006F99" stroke="#001636"/>
          <circle cx="77.61" cy="47.87" r="0.9" fill="#007099" stroke="#001737"/>
          <circle cx="77.13" cy="39.09" r="0.9" fill="#00719A" stroke="#001837"/>
          <circle cx="75.4" cy="36.87" r="0.9" fill="#00729B" stroke="#001938"/>
          <circle cx="71.66" cy="45.33" r="0.9" fill="#00739B" stroke="#001A38"/>
          <circle cx="87.95" cy="36.78" r="0.9" fill="#00749C" stroke="#001A39"/>
          <circle cx="87.78" cy="36.04" r="0.9" fill="#00759C" stroke="#001B39"/>
          <circle cx="87.34" cy="35.3" r="0.9" fill="#00769D" stroke="#001C3A"/>
          <circle cx="100.91" cy="39.27" r="0.9" fill="#00779D" stroke="#001D3A"/>
          <circle cx="67.95" cy="45.65" r="0.9" fill="#00799E" stroke="#001D3B"/>
          <circle cx="67.95" cy="45.65" r="0.9" fill="#007A9E" stroke="#001E3B"/>
          <circle cx="53.41" cy="54.92" r="0.9" fill="#007B9F" stroke="#001F3C"/>
          <circle cx="70.13" cy="50.13" r="0.9" fill="#007CA0" stroke="#001F3C"/>
          <circle cx="39.96" cy="69.91" r="0.9" fill="#007DA0" stroke="#00203D"/>
          <circle cx="34.38" cy="64" r="0.9" fill="#007EA1" stroke="#00213D"/>
          <circle cx="34.2" cy="64.03" r="0.9" fill="#007FA1" stroke="#00213D"/>
          <circle cx="36.29" cy="62.35" r="0.9" fill="#0080A2" stroke="#00223E"/>
          <circle cx="88.71" cy="47.87" r="0.9" fill="#0081A2" stroke="#00233E"/>
          <circle cx="82.31" cy="47.8" r="0.9" fill="#0082A3" stroke="#00243F"/>
          <circle cx="81.86" cy="48.6" r="0.9" fill="#0083A3" stroke="#00243F"/>
          <circle cx="63.59" cy="52.54" r="0.9" fill="#0084A4" stroke="#002540"/>
          <circle cx="86.86" cy="51.48" r="0.9" fill="#0085A4" stroke="#002640"/>
          <circle cx="102.06" cy="36.8" r="0.9" fill="#0486A5" stroke="#002641"/>
          <circle cx="102.43" cy="37.68" r="0.9" fill="#0A87A5" stroke="#002741"/>
          <circle cx="88.96" cy="36.98" r="0.9" fill="#0F88A6" stroke="#002841"/>
          <circle cx="77.11" cy="47.1" r="0.9" fill="#1389A6" stroke="#002942"/>
          <circle cx="70.45" cy="47.33" r="0.9" fill="#1789A7" stroke="#002A42"/>
          <circle cx="61.41" cy="52.04" r="0.9" fill="#1A8AA7" stroke="#002A43"/>
          <circle cx="84.45" cy="45.45" r="0.9" fill="#1D8BA8" stroke="#002B43"/>
          <circle cx="78.67" cy="45.8" r="0.9" fill="#208CA8" stroke="#002C44"/>
          <circle cx="76.51" cy="48.05" r="0.9" fill="#228DA8" stroke="#002D44"/>
          <circle cx="78.85" cy="47.01" r="0.9" fill="#258EA9" stroke="#002E44"/>
          <circle cx="54.05" cy="53.92" r="0.9" fill="#278FA9" stroke="#002E45"/>
          <circle cx="71.4" cy="51.11" r="0.9" fill="#2990AA" stroke="#002F45"/>
          <circle cx="74.97" cy="54.3" r="0.9" fill="#2C91AA" stroke="#003046"/>
          <circle cx="76.49" cy="55.55" r="0.9" fill="#2E92AB" stroke="#003146"/>
          <circle cx="61.4" cy="46.86" r="0.9" fill="#3093AB" stroke="#003246"/>
          <circle cx="103.38" cy="40" r="0.9" fill="#3294AC" stroke="#003247"/>
          <circle cx="100.82" cy="40.38" r="0.9" fill="#3495AC" stroke="#003347"/>
          <circle cx="100.82" cy="40.38" r="0.9" fill="#3696AD" stroke="#003448"/>
          <circle cx="103.1" cy="34.31" r="0.9" fill="#3897AD" stroke="#003548"/>
          <circle cx="96.1" cy="34.63" r="0.9" fill="#3A98AE" stroke="#003548"/>
          <circle cx="99.35" cy="39.65" r="0.9" fill="#3B99AE" stroke="#003649"/>
          <circle cx="98.09" cy="39.37" r="0.9" fill="#3D9AAE" stroke="#003749"/>
          <circle cx="105.8" cy="29.36" r="0.9" fill="#3F9BAF" stroke="#00384A"/>
          <circle cx="104.81" cy="31.5" r="0.9" fill="#419CAF" stroke="#00394A"/>
          <circle cx="77.68" cy="46.2" r="0.9" fill="#429DB0" stroke="#00394A"/>
          <circle cx="80.51" cy="49.65" r="0.9" fill="#449DB0" stroke="#003A4B"/>
          <circle cx="84.86" cy="39.7" r="0.9" fill="#469EB1" stroke="#003B4B"/>
          <circle cx="79.25" cy="49.59" r="0.9" fill="#489FB1" stroke="#003C4C"/>
          <circle cx="69.15" cy="47.99" r="0.9" fill="#49A0B2" stroke="#003C4C"/>
          <circle cx="73.99" cy="56.56" r="0.9" fill="#4BA1B2" stroke="#003D4C"/>
          <circle cx="65.04" cy="55.2" r="0.9" fill="#4DA2B2" stroke="#003E4D"/>
          <circle cx="54.56" cy="63.57" r="0.9" fill="#4EA3B3" stroke="#003F4D"/>
          <circle cx="51.85" cy="61.96" r="0.9" fill="#50A4B3" stroke="#00404E"/>
          <circle cx="60.46" cy="62.21" r="0.9" fill="#51A5B4" stroke="#00404E"/>
          <circle cx="94.83" cy="41.03" r="0.9" fill="#53A6B4" stroke="#00414E"/>
          <circle cx="98.05" cy="35.18" r="0.9" fill="#54A6B5" stroke="#00424F"/>
          <circle cx="97.11" cy="36" r="0.9" fill="#56A7B5" stroke="#00434F"/>
          <circle cx="89.02" cy="28.86" r="0.9" fill="#58A8B5" stroke="#00434F"/>
          <circle cx="89.05" cy="29.33" r="0.9" fill="#59A9B6" stroke="#004450"/>
          <circle cx="85.73" cy="30.12" r="0.9" fill="#5BAAB6" stroke="#004550"/>
          <circle cx="102.18" cy="31.79" r="0.9" fill="#5CABB7" stroke="#004651"/>
          <circle cx="102.33" cy="31.83" r="0.9" fill="#5EACB7" stroke="#004651"/>
          <circle cx="92.61" cy="29.74" r="0.9" fill="#5FADB8" stroke="#004751"/>
          <circle cx="93.26" cy="31.65" r="0.9" fill="#61ADB8" stroke="#004852"/>
          <circle cx="94.56" cy="32.07" r="0.9" fill="#62AEB8" stroke="#004952"/>
          <circle cx="83.69" cy="34.11" r="0.9" fill="#64AFB9" stroke="#004952"/>
          <circle cx="96.97" cy="55.25" r="0.9" fill="#65B0B9" stroke="#004A53"/>
          <circle cx="72.31" cy="31.62" r="0.9" fill="#67B1BA" stroke="#004B53"/>
          <circle cx="72.31" cy="31.62" r="0.9" fill="#68B2BA" stroke="#004C53"/>
          <circle cx="72.52" cy="32.59" r="0.9" fill="#6AB3BA" stroke="#004C54"/>
          <circle cx="113.96" cy="41.77" r="0.9" fill="#6BB3BB" stroke="#004D54"/>
          <circle cx="96.88" cy="35.04" r="0.9" fill="#6DB4BB" stroke="#004E55"/>
          <circle cx="69.47" cy="49.01" r="0.9" fill="#6EB5BC" stroke="#004E55"/>
          <circle cx="65.77" cy="46.26" r="0.9" fill="#6FB6BC" stroke="#004F55"/>
          <circle cx="65.53" cy="46.9" r="0.9" fill="#71B7BD" stroke="#005056"/>
          <circle cx="65.53" cy="46.9" r="0.9" fill="#72B8BD" stroke="#005156"/>
          <circle cx="84.33" cy="50.11" r="0.9" fill="#74B8BD" stroke="#005156"/>
          <circle cx="66.74" cy="57.25" r="0.9" fill="#75B9BE" stroke="#005257"/>
          <circle cx="67.08" cy="57.7" r="0.9" fill="#77BABE" stroke="#005357"/>
          <circle cx="61.46" cy="50.46" r="0.9" fill="#78BBBF" stroke="#005358"/>
          <circle cx="61.46" cy="50.46" r="0.9" fill="#79BCBF" stroke="#015458"/>
          <circle cx="73.54" cy="54.1" r="0.9" fill="#7BBCC0" stroke="#055558"/>
          <circle cx="73.33" cy="53.83" r="0.9" fill="#7CBDC0" stroke="#085659"/>
          <circle cx="77.12" cy="52.36" r="0.9" fill="#7EBEC0" stroke="#0C5659"/>
          <circle cx="80.08" cy="52.27" r="0.9" fill="#7FBFC1" stroke="#0F5759"/>
          <circle cx="80.46" cy="52.19" r="0.9" fill="#80BFC1" stroke="#12585A"/>
          <circle cx="81.42" cy="53.22" r="0.9" fill="#82C0C2" stroke="#14585A"/>
          <circle cx="73.68" cy="50.09" r="0.9" fill="#83C1C2" stroke="#16595B"/>
          <circle cx="64.44" cy="53.16" r="0.9" fill="#85C2C2" stroke="#195A5B"/>
          <circle cx="79.34" cy="50.19" r="0.9" fill="#86C3C3" stroke="#1B5A5B"/>
          <circle cx="77.08" cy="39.03" r="0.9" fill="#87C3C3" stroke="#1D5B5C"/>
          <circle cx="51.97" cy="70.27" r="0.9" fill="#89C4C4" stroke="#1E5C5C"/>
          <circle cx="51.97" cy="70.27" r="0.9" fill="#8AC5C4" stroke="#205C5C"/>
          <circle cx="50.97" cy="69.84" r="0.9" fill="#8BC6C5" stroke="#225D5D"/>
          <circle cx="52.05" cy="71.32" r="0.9" fill="#8DC6C5" stroke="#245E5D"/>
          <circle cx="71.68" cy="43.36" r="0.9" fill="#8EC7C6" stroke="#255E5E"/>
          <circle cx="74.41" cy="44.32" r="0.9" fill="#8FC8C6" stroke="#275F5E"/>
          <circle cx="59.14" cy="46.48" r="0.9" fill="#91C9C6" stroke="#29605E"/>
          <circle cx="65.49" cy="50.58" r="0.9" fill="#92C9C7" stroke="#2A605F"/>
          <circle cx="98.39" cy="39.74" r="0.9" fill="#93CAC7" stroke="#2C615F"/>
          <circle cx="74.04" cy="47.89" r="0.9" fill="#95CBC8" stroke="#2D625F"/>
          <circle cx="69.51" cy="45.01" r="0.9" fill="#96CCC8" stroke="#2F6260"/>
          <circle cx="69.16" cy="45.04" r="0.9" fill="#97CCC9" stroke="#306360"/>
          <circle cx="71.12" cy="45.09" r="0.9" fill="#99CDC9" stroke="#316461"/>
          <circle cx="71.41" cy="46.23" r="0.9" fill="#9ACEC9" stroke="#336461"/>
          <circle cx="64.24" cy="46.25" r="0.9" fill="#9BCECA" stroke="#346561"/>
          <circle cx="72.35" cy="43.49" r="0.9" fill="#9DCFCA" stroke="#356562"/>
          <circle cx="75.53" cy="54.19" r="0.9" fill="#9ED0CB" stroke="#376662"/>
          <circle cx="81.94" cy="51.26" r="0.9" fill="#9FD0CB" stroke="#386662"/>
          <circle cx="70.66" cy="47.89" r="0.9" fill="#9FD0CA" stroke="#386662"/>
          <circle cx="78.6" cy="49.42" r="0.9" fill="#A0D0CA" stroke="#396662"/>
          <circle cx="64.29" cy="52.8" r="0.9" fill="#A0D0CA" stroke="#396661"/>
          <circle cx="90.47" cy="39.33" r="0.9" fill="#A1D0C9" stroke="#3A6661"/>
          <circle cx="96.46" cy="41.71" r="0.9" fill="#A1CFC9" stroke="#3B6661"/>
          <circle cx="96.46" cy="41.71" r="0.9" fill="#A2CFC9" stroke="#3B6660"/>
          <circle cx="90.36" cy="47.55" r="0.9" fill="#A2CFC9" stroke="#3C6660"/>
          <circle cx="87.81" cy="45.75" r="0.9" fill="#A3CFC8" stroke="#3C6660"/>
          <circle cx="87.83" cy="45.78" r="0.9" fill="#A3CFC8" stroke="#3D6660"/>
          <circle cx="94.11" cy="51.92" r="0.9" fill="#A4CFC8" stroke="#3E665F"/>
          <circle cx="92.77" cy="50.63" r="0.9" fill="#A4CFC7" stroke="#3E655F"/>
          <circle cx="92.77" cy="50.63" r="0.9" fill="#A5CFC7" stroke="#3F655F"/>
          <circle cx="92.82" cy="50.16" r="0.9" fill="#A5CFC7" stroke="#3F655F"/>
          <circle cx="95.83" cy="50.01" r="0.9" fill="#A6CFC7" stroke="#40655F"/>
          <circle cx="97.12" cy="48.38" r="0.9" fill="#A6CFC6" stroke="#40655E"/>
          <circle cx="97.06" cy="46.01" r="0.9" fill="#A7CEC6" stroke="#41655E"/>
          <circle cx="96.38" cy="45.32" r="0.9" fill="#A8CEC6" stroke="#41655E"/>
          <circle cx="95.02" cy="46" r="0.9" fill="#A8CEC6" stroke="#42655E"/>
          <circle cx="99.3" cy="44.8" r="0.9" fill="#A9CEC6" stroke="#42655E"/>
          <circle cx="97.79" cy="41.52" r="0.9" fill="#A9CEC5" stroke="#43655D"/>
          <circle cx="47.79" cy="64.71" r="0.9" fill="#AACEC5" stroke="#43655D"/>
          <circle cx="48.4" cy="64.89" r="0.9" fill="#AACEC5" stroke="#44655D"/>
          <circle cx="58.73" cy="67.53" r="0.9" fill="#AACEC5" stroke="#44655D"/>
          <circle cx="52.34" cy="66.33" r="0.9" fill="#ABCEC5" stroke="#45645D"/>
          <circle cx="56.25" cy="54.45" r="0.9" fill="#ABCEC4" stroke="#45645C"/>
          <circle cx="57.4" cy="54.09" r="0.9" fill="#ACCEC4" stroke="#46645C"/>
          <circle cx="67.14" cy="53.43" r="0.9" fill="#ACCDC4" stroke="#46645C"/>
          <circle cx="76.79" cy="44.55" r="0.9" fill="#ADCDC4" stroke="#47645C"/>
          <circle cx="84.13" cy="43.74" r="0.9" fill="#ADCDC4" stroke="#47645C"/>
          <circle cx="87.9" cy="42.96" r="0.9" fill="#AECDC3" stroke="#48645C"/>
          <circle cx="53.42" cy="55.31" r="0.9" fill="#AECDC3" stroke="#48645C"/>
          <circle cx="50.41" cy="62.58" r="0.9" fill="#AFCDC3" stroke="#49645B"/>
          <circle cx="51.05" cy="62.47" r="0.9" fill="#AFCDC3" stroke="#49645B"/>
          <circle cx="61.83" cy="57.81" r="0.9" fill="#B0CDC3" stroke="#4A645B"/>
          <circle cx="63" cy="58.3" r="0.9" fill="#B0CDC3" stroke="#4A645B"/>
          <circle cx="63.03" cy="58.33" r="0.9" fill="#B1CDC3" stroke="#4B645B"/>
          <circle cx="72.75" cy="52.83" r="0.9" fill="#B1CCC2" stroke="#4B635B"/>
          <circle cx="61.04" cy="58.58" r="0.9" fill="#B2CCC2" stroke="#4B635B"/>
          <circle cx="59.25" cy="54.43" r="0.9" fill="#B2CCC2" stroke="#4C635B"/>
          <circle cx="59.39" cy="54.13" r="0.9" fill="#B2CCC2" stroke="#4C635B"/>
          <circle cx="81.94" cy="54.97" r="0.9" fill="#B3CCC2" stroke="#4D635A"/>
          <circle cx="79.73" cy="55.72" r="0.9" fill="#B3CCC2" stroke="#4D635A"/>
          <circle cx="79.42" cy="53.18" r="0.9" fill="#B4CCC2" stroke="#4D635A"/>
          <circle cx="64.29" cy="56.49" r="0.9" fill="#B4CCC2" stroke="#4E635A"/>
          <circle cx="64.58" cy="56.06" r="0.9" fill="#B5CCC2" stroke="#4E635A"/>
          <circle cx="50.49" cy="46.84" r="0.9" fill="#B5CCC1" stroke="#4E635A"/>
          <circle cx="50.29" cy="46.32" r="0.9" fill="#B5CCC1" stroke="#4F635A"/>
          <circle cx="49.97" cy="47.65" r="0.9" fill="#B5CCC1" stroke="#4F635A"/>
          <circle cx="86.95" cy="41.98" r="0.9" fill="#B5CCC1" stroke="#4F635A"/>
          <circle cx="82.73" cy="42.24" r="0.9" fill="#B5CCC1" stroke="#4F6359"/>
          <circle cx="101.4" cy="41.85" r="0.9" fill="#B5CCC1" stroke="#4F6359"/>
          <circle cx="86.51" cy="38.13" r="0.9" fill="#B5CCC1" stroke="#4F6359"/>
          <circle cx="92.07" cy="42.12" r="0.9" fill="#B6CCC0" stroke="#4F6359"/>
          <circle cx="86.24" cy="50.71" r="0.9" fill="#B6CCC0" stroke="#4F6359"/>
          <circle cx="91.97" cy="47.49" r="0.9" fill="#B6CBC0" stroke="#4F6359"/>
          <circle cx="89.6" cy="39.59" r="0.9" fill="#B6CBC0" stroke="#506359"/>
          <circle cx="87.37" cy="39.28" r="0.9" fill="#B6CBC0" stroke="#506359"/>
          <circle cx="99.51" cy="34.98" r="0.9" fill="#B6CBC0" stroke="#506358"/>
          <circle cx="100.01" cy="36.17" r="0.9" fill="#B6CBBF" stroke="#506358"/>
          <circle cx="81.72" cy="43.68" r="0.9" fill="#B7CBBF" stroke="#506358"/>
          <circle cx="79.3" cy="38.31" r="0.9" fill="#B7CBBF" stroke="#506358"/>
          <circle cx="80.14" cy="46.12" r="0.9" fill="#B7CBBF" stroke="#506258"/>
          <circle cx="77.77" cy="48.26" r="0.9" fill="#B7CBBF" stroke="#516258"/>
          <circle cx="83.28" cy="48.07" r="0.9" fill="#B7CBBF" stroke="#516258"/>
          <circle cx="84.1" cy="48.13" r="0.9" fill="#B7CBBF" stroke="#516257"/>
          <circle cx="74.92" cy="50.81" r="0.9" fill="#B7CBBE" stroke="#516257"/>
          <circle cx="73.47" cy="50.47" r="0.9" fill="#B8CBBE" stroke="#516257"/>
          <circle cx="85.54" cy="34.35" r="0.9" fill="#B8CBBE" stroke="#516257"/>
          <circle cx="85.54" cy="34.35" r="0.9" fill="#B8CBBE" stroke="#516257"/>
          <circle cx="80.95" cy="50.04" r="0.9" fill="#B8CBBE" stroke="#516257"/>
          <circle cx="75.73" cy="49.51" r="0.9" fill="#B8CBBE" stroke="#526257"/>
          <circle cx="79.31" cy="44.73" r="0.9" fill="#B8CBBE" stroke="#526257"/>
          <circle cx="112.06" cy="24.76" r="0.9" fill="#B9CBBD" stroke="#526256"/>
          <circle cx="115.03" cy="30.23" r="0.9" fill="#B9CBBD" stroke="#526256"/>
          <circle cx="79.85" cy="37.18" r="0.9" fill="#B9CBBD" stroke="#526256"/>
          <circle cx="87.53" cy="39.77" r="0.9" fill="#B9CBBD" stroke="#526256"/>
          <circle cx="84.25" cy="40.69" r="0.9" fill="#B9CBBD" stroke="#526256"/>
          <circle cx="71.38" cy="41.41" r="0.9" fill="#B9CBBD" stroke="#536256"/>
          <circle cx="71.93" cy="51.78" r="0.9" fill="#B9CBBD" stroke="#536256"/>
          <circle cx="71.84" cy="51.78" r="0.9" fill="#BACBBC" stroke="#536256"/>
          <circle cx="78.71" cy="46.48" r="0.9" fill="#BACBBC" stroke="#536255"/>
          <circle cx="70.54" cy="41.67" r="0.9" fill="#BACBBC" stroke="#536255"/>
          <circle cx="69.28" cy="47.12" r="0.9" fill="#BACBBC" stroke="#536255"/>
          <circle cx="68.2" cy="47.67" r="0.9" fill="#BACBBC" stroke="#536255"/>
          <circle cx="56.76" cy="48.84" r="0.9" fill="#BACBBC" stroke="#546255"/>
          <circle cx="55.34" cy="51.56" r="0.9" fill="#BBCBBC" stroke="#546255"/>
          <circle cx="52.43" cy="54.79" r="0.9" fill="#BBCBBC" stroke="#546255"/>
          <circle cx="53.88" cy="52.3" r="0.9" fill="#BBCBBB" stroke="#546255"/>
          <circle cx="53.69" cy="52.3" r="0.9" fill="#BBCBBB" stroke="#546255"/>
          <circle cx="58.12" cy="56.81" r="0.9" fill="#BBCBBB" stroke="#546254"/>
          <circle cx="69.95" cy="53.45" r="0.9" fill="#BBCABB" stroke="#556254"/>
          <circle cx="66.14" cy="53.17" r="0.9" fill="#BCCABB" stroke="#556254"/>
          <circle cx="69.84" cy="46.78" r="0.9" fill="#BCCABB" stroke="#556254"/>
          <circle cx="58.64" cy="58.5" r="0.9" fill="#BCCABB" stroke="#556254"/>
          <circle cx="58.64" cy="58.5" r="0.9" fill="#BCCABA" stroke="#556254"/>
          <circle cx="64.19" cy="59.97" r="0.9" fill="#BCCABA" stroke="#556254"/>
          <circle cx="84.17" cy="36.01" r="0.9" fill="#BCCABA" stroke="#556254"/>
          <circle cx="99.38" cy="36.29" r="0.9" fill="#BDCABA" stroke="#566254"/>
          <circle cx="62.05" cy="53.24" r="0.9" fill="#BDCABA" stroke="#566253"/>
          <circle cx="78.82" cy="47.33" r="0.9" fill="#BDCABA" stroke="#566253"/>
          <circle cx="90.43" cy="49.74" r="0.9" fill="#BDCABA" stroke="#566253"/>
          <circle cx="78.58" cy="37.53" r="0.9" fill="#BDCABA" stroke="#566153"/>
          <circle cx="85.91" cy="44.67" r="0.9" fill="#BDCABA" stroke="#566153"/>
          <circle cx="70.81" cy="44.75" r="0.9" fill="#BECAB9" stroke="#566153"/>
          <circle cx="70.99" cy="49.31" r="0.9" fill="#BECAB9" stroke="#576153"/>
          <circle cx="72.72" cy="46.3" r="0.9" fill="#BECAB9" stroke="#576153"/>
          <circle cx="72.72" cy="46.3" r="0.9" fill="#BECAB9" stroke="#576153"/>
          <circle cx="72.96" cy="47.15" r="0.9" fill="#BECAB9" stroke="#576153"/>
          <circle cx="112.33" cy="33.16" r="0.9" fill="#BFCAB9" stroke="#576152"/>
          <circle cx="87.97" cy="34.56" r="0.9" fill="#BFCAB9" stroke="#576152"/>
          <circle cx="86.28" cy="34.67" r="0.9" fill="#BFCAB9" stroke="#586152"/>
          <circle cx="96.24" cy="39.7" r="0.9" fill="#BFCAB9" stroke="#586152"/>
          <circle cx="94.45" cy="39.65" r="0.9" fill="#BFCAB8" stroke="#586152"/>
          <circle cx="99.15" cy="33.15" r="0.9" fill="#BFCAB8" stroke="#586152"/>
          <circle cx="84.77" cy="41.6" r="0.9" fill="#C0CAB8" stroke="#586152"/>
          <circle cx="84.43" cy="39.3" r="0.9" fill="#C0CAB8" stroke="#586152"/>
          <circle cx="84.23" cy="39.17" r="0.9" fill="#C0CAB8" stroke="#596152"/>
          <circle cx="82.03" cy="37.16" r="0.9" fill="#C0C9B8" stroke="#596152"/>
          <circle cx="85.47" cy="36.68" r="0.9" fill="#C0C9B8" stroke="#596151"/>
          <circle cx="102.31" cy="40.8" r="0.9" fill="#C1C9B8" stroke="#596151"/>
          <circle cx="91.56" cy="33.56" r="0.9" fill="#C1C9B8" stroke="#596151"/>
          <circle cx="89.84" cy="31.84" r="0.9" fill="#C1C9B7" stroke="#596151"/>
          <circle cx="89.12" cy="31.73" r="0.9" fill="#C1C9B7" stroke="#596151"/>
          <circle cx="84.86" cy="48.08" r="0.9" fill="#C1C9B7" stroke="#5A6151"/>
          <circle cx="89.41" cy="45.6" r="0.9" fill="#C1C9B7" stroke="#5A6151"/>
          <circle cx="67.37" cy="52.03" r="0.9" fill="#C2C9B7" stroke="#5A6151"/>
          <circle cx="71.06" cy="54.97" r="0.9" fill="#C2C9B7" stroke="#5A6151"/>
          <circle cx="74.76" cy="48.61" r="0.9" fill="#C2C9B7" stroke="#5A6151"/>
          <circle cx="74.54" cy="49.21" r="0.9" fill="#C2C9B7" stroke="#5A6151"/>
          <circle cx="79.59" cy="47.19" r="0.9" fill="#C2C9B7" stroke="#5B6151"/>
          <circle cx="79.49" cy="47.28" r="0.9" fill="#C3C9B7" stroke="#5B6051"/>
          <circle cx="65.05" cy="54.86" r="0.9" fill="#C3C9B7" stroke="#5B6050"/>
          <circle cx="61.48" cy="55.37" r="0.9" fill="#C3C9B6" stroke="#5B6050"/>
          <circle cx="66.15" cy="55.28" r="0.9" fill="#C3C9B6" stroke="#5B6050"/>
          <circle cx="63.93" cy="50.77" r="0.9" fill="#C3C9B6" stroke="#5B6050"/>
          <circle cx="61.8" cy="49.38" r="0.9" fill="#C3C9B6" stroke="#5C6050"/>
          <circle cx="83.5" cy="49.53" r="0.9" fill="#C4C9B6" stroke="#5C6050"/>
          <circle cx="82.72" cy="48.99" r="0.9" fill="#C4C9B6" stroke="#5C6050"/>
          <circle cx="69.46" cy="49.21" r="0.9" fill="#C4C9B6" stroke="#5C6050"/>
          <circle cx="55.65" cy="61.63" r="0.9" fill="#C4C9B6" stroke="#5C6050"/>
          <circle cx="53.3" cy="57.25" r="0.9" fill="#C4C8B6" stroke="#5C6050"/>
          <circle cx="51.72" cy="57.35" r="0.9" fill="#C5C8B6" stroke="#5C6050"/>
          <circle cx="71.1" cy="54.84" r="0.9" fill="#C5C8B6" stroke="#5D6050"/>
          <circle cx="66.54" cy="54.47" r="0.9" fill="#C5C8B6" stroke="#5D6050"/>
          <circle cx="56.8" cy="50.51" r="0.9" fill="#C5C8B6" stroke="#5D6050"/>
          <circle cx="60.38" cy="47.23" r="0.9" fill="#C5C8B6" stroke="#5D6050"/>
          <circle cx="59.54" cy="46.74" r="0.9" fill="#C5C8B5" stroke="#5D604F"/>
          <circle cx="60.66" cy="44.51" r="0.9" fill="#C6C8B5" stroke="#5D604F"/>
          <circle cx="98.01" cy="39.03" r="0.9" fill="#C6C8B5" stroke="#5E604F"/>
          <circle cx="98.01" cy="39.03" r="0.9" fill="#C6C8B5" stroke="#5E604F"/>
          <circle cx="99.25" cy="38.73" r="0.9" fill="#C6C8B5" stroke="#5E604F"/>
          <circle cx="107.65" cy="33.91" r="0.9" fill="#C6C8B5" stroke="#5E604F"/>
          <circle cx="106.89" cy="33.92" r="0.9" fill="#C7C8B5" stroke="#5E604F"/>
          <circle cx="107.74" cy="38.24" r="0.9" fill="#C7C8B5" stroke="#5E604F"/>
          <circle cx="98.89" cy="34.09" r="0.9" fill="#C7C8B5" stroke="#5F604F"/>
          <circle cx="111.68" cy="36.3" r="0.9" fill="#C7C8B5" stroke="#5F5F4F"/>
          <circle cx="111.8" cy="36.64" r="0.9" fill="#C7C8B5" stroke="#5F5F4F"/>
          <circle cx="101.46" cy="35.02" r="0.9" fill="#C7C8B5" stroke="#5F5F4F"/>
          <circle cx="106.53" cy="33.02" r="0.9" fill="#C8C8B5" stroke="#5F5F4F"/>
          <circle cx="102.2" cy="34.78" r="0.9" fill="#C8C8B5" stroke="#5F5F4F"/>
          <circle cx="56.5" cy="63.74" r="0.9" fill="#C8C8B5" stroke="#5F5F4F"/>
          <circle cx="63.54" cy="55.19" r="0.9" fill="#C8C7B5" stroke="#605F4F"/>
          <circle cx="53.64" cy="61.94" r="0.9" fill="#C8C7B5" stroke="#605F4F"/>
          <circle cx="53.01" cy="61.34" r="0.9" fill="#C9C7B5" stroke="#605F4F"/>
          <circle cx="51.37" cy="52.53" r="0.9" fill="#C9C7B4" stroke="#605F4F"/>
          <circle cx="53.2" cy="52.6" r="0.9" fill="#C9C7B4" stroke="#605F4F"/>
          <circle cx="48.63" cy="59.33" r="0.9" fill="#C9C7B4" stroke="#605F4F"/>
          <circle cx="48.63" cy="59.33" r="0.9" fill="#C9C7B4" stroke="#615F4E"/>
          <circle cx="49.86" cy="58.36" r="0.9" fill="#C9C7B4" stroke="#615F4E"/>
          <circle cx="47.8" cy="58.37" r="0.9" fill="#CAC7B4" stroke="#615F4E"/>
          <circle cx="43.73" cy="57.57" r="0.9" fill="#CAC7B4" stroke="#615F4E"/>
          <circle cx="46.23" cy="66.22" r="0.9" fill="#CAC7B4" stroke="#615F4E"/>
          <circle cx="52.97" cy="61.85" r="0.9" fill="#CAC7B3" stroke="#615F4E"/>
          <circle cx="89.01" cy="45.09" r="0.9" fill="#CBC7B3" stroke="#625F4D"/>
          <circle cx="89.18" cy="45.8" r="0.9" fill="#CBC7B3" stroke="#625F4D"/>
          <circle cx="89.17" cy="42.74" r="0.9" fill="#CBC7B2" stroke="#625F4D"/>
          <circle cx="68.66" cy="47.25" r="0.9" fill="#CBC7B2" stroke="#625F4C"/>
          <circle cx="70.49" cy="48.96" r="0.9" fill="#CCC7B2" stroke="#625F4C"/>
          <circle cx="65.34" cy="52" r="0.9" fill="#CCC7B1" stroke="#635F4C"/>
          <circle cx="63.68" cy="54.72" r="0.9" fill="#CCC7B1" stroke="#635E4C"/>
          <circle cx="63.17" cy="53.84" r="0.9" fill="#CCC7B1" stroke="#635E4B"/>
          <circle cx="71.59" cy="49.73" r="0.9" fill="#CDC6B0" stroke="#635E4B"/>
          <circle cx="71.77" cy="53.29" r="0.9" fill="#CDC6B0" stroke="#645E4B"/>
          <circle cx="70.36" cy="53.57" r="0.9" fill="#CDC6B0" stroke="#645E4A"/>
          <circle cx="55.26" cy="50.62" r="0.9" fill="#CDC6AF" stroke="#645E4A"/>
          <circle cx="54.12" cy="51.66" r="0.9" fill="#CEC6AF" stroke="#645E4A"/>
          <circle cx="58.13" cy="50.68" r="0.9" fill="#CEC6AF" stroke="#645E4A"/>
          <circle cx="62.26" cy="54.83" r="0.9" fill="#CEC6AF" stroke="#655E49"/>
          <circle cx="55.15" cy="55.57" r="0.9" fill="#CFC6AE" stroke="#655E49"/>
          <circle cx="58.27" cy="54.91" r="0.9" fill="#CFC6AE" stroke="#655E49"/>
          <circle cx="61.01" cy="54.51" r="0.9" fill="#CFC6AE" stroke="#655E49"/>
          <circle cx="58.98" cy="55.97" r="0.9" fill="#D0C6AD" stroke="#665E48"/>
          <circle cx="64.42" cy="58.14" r="0.9" fill="#D0C6AD" stroke="#665E48"/>
          <circle cx="56.94" cy="60" r="0.9" fill="#D0C6AD" stroke="#665E48"/>
          <circle cx="62.5" cy="48.8" r="0.9" fill="#D1C6AC" stroke="#665E47"/>
          <circle cx="70.3" cy="46.14" r="0.9" fill="#D1C5AC" stroke="#675E47"/>
          <circle cx="89.29" cy="36.88" r="0.9" fill="#D1C5AC" stroke="#675D47"/>
          <circle cx="71.81" cy="38.09" r="0.9" fill="#D2C5AB" stroke="#675D47"/>
          <circle cx="75.55" cy="44.1" r="0.9" fill="#D2C5AB" stroke="#685D46"/>
          <circle cx="74.52" cy="42.4" r="0.9" fill="#D2C5AB" stroke="#685D46"/>
          <circle cx="62.52" cy="63.69" r="0.9" fill="#D3C5AB" stroke="#685D46"/>
          <circle cx="63.59" cy="63.06" r="0.9" fill="#D3C5AA" stroke="#685D46"/>
          <circle cx="52.24" cy="53.48" r="0.9" fill="#D3C5AA" stroke="#695D45"/>
          <circle cx="53.72" cy="54.55" r="0.9" fill="#D4C5AA" stroke="#695D45"/>
          <circle cx="53.07" cy="54.66" r="0.9" fill="#D4C5AA" stroke="#695D45"/>
          <circle cx="54.34" cy="54.65" r="0.9" fill="#D4C5A9" stroke="#6A5D45"/>
          <circle cx="54.34" cy="54.65" r="0.9" fill="#D5C4A9" stroke="#6A5D44"/>
          <circle cx="81.89" cy="48.89" r="0.9" fill="#D5C4A9" stroke="#6A5D44"/>
          <circle cx="82.25" cy="47.83" r="0.9" fill="#D6C4A8" stroke="#6A5C44"/>
          <circle cx="87" cy="45.73" r="0.9" fill="#D6C4A8" stroke="#6B5C44"/>
          <circle cx="88.57" cy="43.44" r="0.9" fill="#D6C4A8" stroke="#6B5C44"/>
          <circle cx="82.53" cy="43.99" r="0.9" fill="#D7C4A8" stroke="#6B5C43"/>
          <circle cx="96.07" cy="33.68" r="0.9" fill="#D7C4A7" stroke="#6C5C43"/>
          <circle cx="91.05" cy="29.42" r="0.9" fill="#D8C4A7" stroke="#6C5C43"/>
          <circle cx="91.05" cy="29.42" r="0.9" fill="#D8C4A7" stroke="#6C5C43"/>
          <circle cx="88.14" cy="28.91" r="0.9" fill="#D8C3A6" stroke="#6C5C42"/>
          <circle cx="89.81" cy="29.84" r="0.9" fill="#D8C2A5" stroke="#6C5B41"/>
          <circle cx="89.81" cy="29.84" r="0.9" fill="#D7C2A5" stroke="#6C5A41"/>
          <circle cx="89.81" cy="31.29" r="0.9" fill="#D7C1A4" stroke="#6B5940"/>
          <circle cx="77.31" cy="26.69" r="0.9" fill="#D7C0A3" stroke="#6B593F"/>
          <circle cx="80.37" cy="32.04" r="0.9" fill="#D6BFA2" stroke="#6B583E"/>
          <circle cx="81.4" cy="33.27" r="0.9" fill="#D6BEA1" stroke="#6A573D"/>
          <circle cx="81.4" cy="33.27" r="0.9" fill="#D5BDA0" stroke="#6A563C"/>
          <circle cx="73.21" cy="37.6" r="0.9" fill="#D5BC9F" stroke="#69553C"/>
          <circle cx="87.2" cy="37.63" r="0.9" fill="#D5BB9E" stroke="#69553B"/>
          <circle cx="88.72" cy="38.41" r="0.9" fill="#D4BA9D" stroke="#69543A"/>
          <circle cx="83.64" cy="37.36" r="0.9" fill="#D4B99C" stroke="#685339"/>
          <circle cx="88.83" cy="33.01" r="0.9" fill="#D3B89B" stroke="#685238"/>
          <circle cx="74.52" cy="45.71" r="0.9" fill="#D3B79A" stroke="#675137"/>
          <circle cx="118.04" cy="25.14" r="0.9" fill="#D3B799" stroke="#675137"/>
          <circle cx="96.79" cy="37.92" r="0.9" fill="#D2B698" stroke="#665036"/>
          <circle cx="89.54" cy="42.71" r="0.9" fill="#D2B597" stroke="#664F35"/>
          <circle cx="58.5" cy="60.63" r="0.9" fill="#D1B496" stroke="#664E34"/>
          <circle cx="58.81" cy="58.7" r="0.9" fill="#D1B395" stroke="#654D33"/>
          <circle cx="70.79" cy="42.78" r="0.9" fill="#D0B294" stroke="#654C32"/>
          <circle cx="76.83" cy="47.67" r="0.9" fill="#D0B193" stroke="#644C32"/>
          <circle cx="78.02" cy="44.59" r="0.9" fill="#D0B092" stroke="#644B31"/>
          <circle cx="75.69" cy="45.2" r="0.9" fill="#CFAF91" stroke="#644A30"/>
          <circle cx="102.18" cy="34.79" r="0.9" fill="#CFAE90" stroke="#63492F"/>
          <circle cx="110.49" cy="34.4" r="0.9" fill="#CEAD8F" stroke="#63482E"/>
          <circle cx="104.61" cy="36.07" r="0.9" fill="#CEAC8E" stroke="#62472E"/>
          <circle cx="105.52" cy="37.35" r="0.9" fill="#CDAB8D" stroke="#62472D"/>
          <circle cx="105.2" cy="38.73" r="0.9" fill="#CDAA8C" stroke="#61462C"/>
          <circle cx="105.97" cy="39.88" r="0.9" fill="#CCA98C" stroke="#61452B"/>
          <circle cx="72.51" cy="44.48" r="0.9" fill="#CCA88B" stroke="#60442B"/>
          <circle cx="73.42" cy="45" r="0.9" fill="#CCA78A" stroke="#60432A"/>
          <circle cx="67.2" cy="44.05" r="0.9" fill="#CBA689" stroke="#5F4229"/>
          <circle cx="73.51" cy="43.84" r="0.9" fill="#CBA588" stroke="#5F4128"/>
          <circle cx="79.18" cy="40.89" r="0.9" fill="#CAA487" stroke="#5F4027"/>
          <circle cx="74.19" cy="40.9" r="0.9" fill="#CAA386" stroke="#5E4027"/>
          <circle cx="74.76" cy="40.43" r="0.9" fill="#C9A285" stroke="#5E3F26"/>
          <circle cx="71.93" cy="38.95" r="0.9" fill="#C9A184" stroke="#5D3E25"/>
          <circle cx="66.56" cy="41.17" r="0.9" fill="#C8A083" stroke="#5D3D24"/>
          <circle cx="65.32" cy="58.13" r="0.9" fill="#C89F82" stroke="#5C3C24"/>
          <circle cx="66.42" cy="57.44" r="0.9" fill="#C79E82" stroke="#5C3B23"/>
          <circle cx="61.14" cy="58.44" r="0.9" fill="#C79D81" stroke="#5B3A22"/>
          <circle cx="51.58" cy="58.94" r="0.9" fill="#C69C80" stroke="#5B3921"/>
          <circle cx="56.49" cy="65.28" r="0.9" fill="#C69B7F" stroke="#5A3821"/>
          <circle cx="56.49" cy="65.28" r="0.9" fill="#C59A7E" stroke="#5A3820"/>
          <circle cx="59.68" cy="65.83" r="0.9" fill="#C5997D" stroke="#59371F"/>
          <circle cx="60.82" cy="70.86" r="0.9" fill="#C4987C" stroke="#59361F"/>
          <circle cx="63.56" cy="59.27" r="0.9" fill="#C4977B" stroke="#58351E"/>
          <circle cx="77.95" cy="41.48" r="0.9" fill="#C3967B" stroke="#58341D"/>
          <circle cx="70.22" cy="58.91" r="0.9" fill="#C3957A" stroke="#57331C"/>
          <circle cx="67.13" cy="51.28" r="0.9" fill="#C29379" stroke="#57321C"/>
          <circle cx="76.47" cy="52.11" r="0.9" fill="#C29278" stroke="#56311B"/>
          <circle cx="88.48" cy="41.12" r="0.9" fill="#C19177" stroke="#56301A"/>
          <circle cx="92.21" cy="41.51" r="0.9" fill="#C19076" stroke="#552F1A"/>
          <circle cx="91.79" cy="44.89" r="0.9" fill="#C08F75" stroke="#542E19"/>
          <circle cx="92.29" cy="43.67" r="0.9" fill="#C08E75" stroke="#542D18"/>
          <circle cx="89.62" cy="44.09" r="0.9" fill="#BF8D74" stroke="#532D18"/>
          <circle cx="58.34" cy="51.29" r="0.9" fill="#BF8C73" stroke="#532C17"/>
          <circle cx="61.65" cy="55.61" r="0.9" fill="#BE8B72" stroke="#522B16"/>
          <circle cx="76.43" cy="56.49" r="0.9" fill="#BE8A71" stroke="#522A16"/>
          <circle cx="75.2" cy="56.05" r="0.9" fill="#BD8970" stroke="#512915"/>
          <circle cx="80.75" cy="50.06" r="0.9" fill="#BC8870" stroke="#512814"/>
          <circle cx="76.67" cy="41" r="0.9" fill="#BC876F" stroke="#502714"/>
          <circle cx="76.87" cy="40.55" r="0.9" fill="#BB856E" stroke="#4F2613"/>
          <circle cx="77.06" cy="39.17" r="0.9" fill="#BB846D" stroke="#4F2513"/>
          <circle cx="76.42" cy="39.79" r="0.9" fill="#BA836C" stroke="#4E2412"/>
          <circle cx="83.96" cy="39.11" r="0.9" fill="#BA826C" stroke="#4E2311"/>
          <circle cx="86.07" cy="42.13" r="0.9" fill="#B9816B" stroke="#4D2211"/>
          <circle cx="86.17" cy="41.93" r="0.9" fill="#B8806A" stroke="#4C2110"/>
          <circle cx="95.2" cy="41.65" r="0.9" fill="#B87F69" stroke="#4C200F"/>
          <circle cx="98.34" cy="40.21" r="0.9" fill="#B77E69" stroke="#4B1F0F"/>
          <circle cx="95.87" cy="39.25" r="0.9" fill="#B77D68" stroke="#4B1E0E"/>
          <circle cx="97" cy="39.54" r="0.9" fill="#B67B67" stroke="#4A1D0D"/>
          <circle cx="66.69" cy="44.01" r="0.9" fill="#B57A66" stroke="#4A1C0C"/>
          <circle cx="80.17" cy="42.33" r="0.9" fill="#B57966" stroke="#491B0B"/>
          <circle cx="80.75" cy="42.58" r="0.9" fill="#B47865" stroke="#481A0A"/>
          <circle cx="81.46" cy="56.69" r="0.9" fill="#B47764" stroke="#481909"/>
          <circle cx="69.09" cy="34.52" r="0.9" fill="#B37663" stroke="#471808"/>
          <circle cx="78.67" cy="36.58" r="0.9" fill="#B27563" stroke="#471707"/>
          <circle cx="78.97" cy="36.73" r="0.9" fill="#B27462" stroke="#461506"/>
          <circle cx="88.36" cy="38.95" r="0.9" fill="#B17261" stroke="#451405"/>
          <circle cx="87.32" cy="38.89" r="0.9" fill="#B07161" stroke="#451304"/>
          <circle cx="83.51" cy="37.55" r="0.9" fill="#B07060" stroke="#441203"/>
          <circle cx="82.27" cy="46.27" r="0.9" fill="#AF6F5F" stroke="#431102"/>
          <circle cx="71.19" cy="53.86" r="0.9" fill="#AE6E5E" stroke="#431001"/>
          <circle cx="71.28" cy="47.39" r="0.9" fill="#AE6D5E" stroke="#420E00"/>
          <circle cx="71.8" cy="46.78" r="0.9" fill="#AD6C5D" stroke="#420D00"/>
          <circle cx="71.73" cy="40.33" r="0.9" fill="#AC6A5C" stroke="#410C00"/>
          <circle cx="71.73" cy="40.33" r="0.9" fill="#AC695C" stroke="#400A00"/>
          <circle cx="70.95" cy="40.95" r="0.9" fill="#AB685B" stroke="#400900"/>
          <circle cx="68.05" cy="61.52" r="0.9" fill="#AA675A" stroke="#3F0800"/>
          <circle cx="67.69" cy="65.6" r="0.9" fill="#AA665A" stroke="#3F0600"/>
          <circle cx="63.85" cy="61.29" r="0.9" fill="#A96559" stroke="#3E0500"/>
          <circle cx="71.46" cy="48.87" r="0.9" fill="#A86358" stroke="#3D0400"/>
          <circle cx="65.68" cy="50.77" r="0.9" fill="#A76258" stroke="#3D0300"/>
          <circle cx="86.97" cy="43.39" r="0.9" fill="#A76157" stroke="#3C0200"/>
          <circle cx="88.51" cy="45.82" r="0.9" fill="#A66056" stroke="#3B0100"/>
          <circle cx="95.22" cy="30.47" r="0.9" fill="#A55F56" stroke="#3B0000"/>
          <circle cx="89.69" cy="30.96" r="0.9" fill="#A45E55" stroke="#3A0000"/>
          <circle cx="85.45" cy="49.32" r="0.9" fill="#A45C54" stroke="#3A0000"/>
          <circle cx="84.47" cy="50" r="0.9" fill="#A35B54" stroke="#390000"/>
          <circle cx="86.33" cy="50.52" r="0.9" fill="#A25A53" stroke="#380000"/>
          <circle cx="85.17" cy="49.91" r="0.9" fill="#A15953" stroke="#380000"/>
          <circle cx="85.24" cy="35.11" r="0.9" fill="#A15852" stroke="#370000"/>
          <circle cx="79.83" cy="41.24" r="0.9" fill="#A05751" stroke="#370000"/>
          <circle cx="78.95" cy="40.63" r="0.9" fill="#9F5551" stroke="#360000"/>
          <circle cx="78.95" cy="40.63" r="0.9" fill="#9E5450" stroke="#360000"/>
          <circle cx="62.28" cy="47.69" r="0.9" fill="#9E5350" stroke="#350000"/>
          <circle cx="60.24" cy="53.37" r="0.9" fill="#9D524F" stroke="#350000"/>
          <circle cx="61.59" cy="54.56" r="0.9" fill="#9C514E" stroke="#340000"/>
          <circle cx="77.7" cy="49.57" r="0.9" fill="#9B4F4E" stroke="#340000"/>
          <circle cx="62.51" cy="53.25" r="0.9" fill="#9A4E4D" stroke="#340000"/>
          <circle cx="63.23" cy="52.58" r="0.9" fill="#9A4D4D" stroke="#330000"/>
          <circle cx="65.13" cy="48.73" r="0.9" fill="#994C4C" stroke="#330000"/>
          <circle cx="58.52" cy="47.67" r="0.9" fill="#984A4C" stroke="#320000"/>
          <circle cx="74.92" cy="48.93" r="0.9" fill="#97494B" stroke="#320000"/>
          <circle cx="72.29" cy="47.76" r="0.9" fill="#96484B" stroke="#320000"/>
          <circle cx="72.29" cy="47.76" r="0.9" fill="#95474A" stroke="#320000"/>
          <circle cx="94.86" cy="45.8" r="0.9" fill="#944649" stroke="#310000"/>
          <circle cx="95.79" cy="46.67" r="0.9" fill="#944449" stroke="#320000"/>
          <circle cx="87.92" cy="39.49" r="0.9" fill="#934348" stroke="#320000"/>
          <circle cx="91.99" cy="36.31" r="0.9" fill="#924248" stroke="#320000"/>
          <circle cx="92" cy="35.16" r="0.9" fill="#914147" stroke="#320000"/>
          <circle cx="91.02" cy="34.27" r="0.9" fill="#903F47" stroke="#320000"/>
          <circle cx="66.44" cy="59.73" r="0.9" fill="#8F3E46" stroke="#320000"/>
          <circle cx="82.65" cy="41.54" r="0.9" fill="#8E3D46" stroke="#320000"/>
          <circle cx="72.58" cy="53.29" r="0.9" fill="#8D3C45" stroke="#320000"/>
          <circle cx="68.46" cy="52.19" r="0.9" fill="#8D3A45" stroke="#320000"/>
          <circle cx="76.87" cy="54.22" r="0.9" fill="#8C3944" stroke="#320000"/>
          <circle cx="62.64" cy="50.19" r="0.9" fill="#8B3844" stroke="#330000"/>
          <circle cx="67.81" cy="51.46" r="0.9" fill="#8A3743" stroke="#330000"/>
          <circle cx="85.28" cy="44.9" r="0.9" fill="#893543" stroke="#330000"/>
          <circle cx="83.42" cy="42.84" r="0.9" fill="#883442" stroke="#330000"/>
          <circle cx="81.72" cy="43.74" r="0.9" fill="#873342" stroke="#330000"/>
          <circle cx="82.16" cy="43.51" r="0.9" fill="#863241" stroke="#330000"/>
          <circle cx="89.45" cy="37.03" r="0.9" fill="#853041" stroke="#330000"/>
          <circle cx="77.12" cy="52.99" r="0.9" fill="#842F40" stroke="#330000"/>
          <circle cx="77.06" cy="53.7" r="0.9" fill="#832E40" stroke="#330000"/>
          <circle cx="75.41" cy="40.94" r="0.9" fill="#822C3F" stroke="#330000"/>
          <circle cx="53.12" cy="55.46" r="0.9" fill="#812B3F" stroke="#330000"/>
          <circle cx="57.69" cy="59.99" r="0.9" fill="#802A3E" stroke="#330000"/>
          <circle cx="58.2" cy="61" r="0.9" fill="#7F283E" stroke="#330000"/>
          <circle cx="58.2" cy="61" r="0.9" fill="#7E273E" stroke="#340000"/>
        </g>
      </g>
    </g>
  </g>
  <g class="guide ylabels" font-size="2.82" font-family="'PT Sans Caption','Helvetica Neue','Helvetica',sans-serif" fill="#6C606B" id="fig-918eb7e628aa4de29d7359e12d17eba9-element-17">
    <text x="14.59" y="82.32" text-anchor="end" dy="0.35em">-3</text>
    <text x="14.59" y="71.03" text-anchor="end" dy="0.35em">-2</text>
    <text x="14.59" y="59.75" text-anchor="end" dy="0.35em">-1</text>
    <text x="14.59" y="48.46" text-anchor="end" dy="0.35em">0</text>
    <text x="14.59" y="37.18" text-anchor="end" dy="0.35em">1</text>
    <text x="14.59" y="25.9" text-anchor="end" dy="0.35em">2</text>
    <text x="14.59" y="14.61" text-anchor="end" dy="0.35em">3</text>
  </g>
  <g font-size="3.88" font-family="'PT Sans','Helvetica Neue','Helvetica',sans-serif" fill="#564A55" stroke="none" id="fig-918eb7e628aa4de29d7359e12d17eba9-element-18">
    <text x="8.81" y="48.46" text-anchor="end" dy="0.35em">y</text>
  </g>
  <g font-size="3.88" font-family="'PT Sans','Helvetica Neue','Helvetica',sans-serif" fill="#564A55" stroke="none" id="fig-918eb7e628aa4de29d7359e12d17eba9-element-19">
    <text x="74.39" y="10.61" text-anchor="middle">NUTS (ϵ = 0.05)</text>
  </g>
</g>
<defs>
<clipPath id="fig-918eb7e628aa4de29d7359e12d17eba9-element-10">
  <path d="M15.59,12.61 L 133.18 12.61 133.18 84.32 15.59 84.32" />
</clipPath
></defs>
</svg>
