<?xml version="1.0" encoding="UTF-8"?>
<svg xmlns="http://www.w3.org/2000/svg"
     xmlns:xlink="http://www.w3.org/1999/xlink"
     xmlns:gadfly="http://www.gadflyjl.org/ns"
     version="1.2"
     width="152.4mm" height="50.8mm" viewBox="0 0 152.4 50.8"
     stroke="none"
     fill="#000000"
     stroke-width="0.3"
     font-size="3.88"
>
<g class="plotroot xscalable yscalable" id="fig-028c0d7da4274beaacb3f566a50fb224-element-1">
  <g font-size="3.88" font-family="'PT Sans','Helvetica Neue','Helvetica',sans-serif" fill="#564A55" stroke="none" id="fig-028c0d7da4274beaacb3f566a50fb224-element-2">
    <text x="82.86" y="42.8" text-anchor="middle">m</text>
  </g>
  <g class="guide xlabels" font-size="2.82" font-family="'PT Sans Caption','Helvetica Neue','Helvetica',sans-serif" fill="#6C606B" id="fig-028c0d7da4274beaacb3f566a50fb224-element-3">
    <text x="20.31" y="37.19" text-anchor="middle">0</text>
    <text x="82.86" y="37.19" text-anchor="middle">50</text>
    <text x="145.4" y="37.19" text-anchor="middle">100</text>
  </g>
  <g clip-path="url(#fig-028c0d7da4274beaacb3f566a50fb224-element-5)" id="fig-028c0d7da4274beaacb3f566a50fb224-element-4">
    <g pointer-events="visible" opacity="1" fill="none" stroke="none" class="guide background" id="fig-028c0d7da4274beaacb3f566a50fb224-element-6">
      <rect x="18.31" y="5" width="129.09" height="28.52"/>
    </g>
    <g class="guide ygridlines xfixed" stroke-dasharray="0.5,0.5" stroke-width="0.2" stroke="#D0D0E0" id="fig-028c0d7da4274beaacb3f566a50fb224-element-7">
      <path d="M18.31,31.52 L 147.4 31.52"/>
      <path d="M18.31,25.39 L 147.4 25.39"/>
      <path d="M18.31,19.26 L 147.4 19.26"/>
      <path d="M18.31,13.13 L 147.4 13.13"/>
      <path d="M18.31,7 L 147.4 7"/>
    </g>
    <g class="guide xgridlines yfixed" stroke-dasharray="0.5,0.5" stroke-width="0.2" stroke="#D0D0E0" id="fig-028c0d7da4274beaacb3f566a50fb224-element-8">
      <path d="M20.31,5 L 20.31 33.52"/>
      <path d="M82.86,5 L 82.86 33.52"/>
      <path d="M145.4,5 L 145.4 33.52"/>
    </g>
    <g class="plotpanel" id="fig-028c0d7da4274beaacb3f566a50fb224-element-9">
      <g stroke-width="0.3" fill="none" class="geometry" stroke="#00BFFF" id="fig-028c0d7da4274beaacb3f566a50fb224-element-10">
        <path d="M20.31,19.26 L 21.56 18.43 22.81 17.41 24.06 17.84 25.31 18.01 26.57 17.29 27.82 16.92 29.07 16.84 30.32 16.98 31.57 17.61 32.82 15.68 34.07 16.52 35.32 17.46 36.57 16.97 37.82 15.98 39.07 16.4 40.33 16.63 41.58 18.6 42.83 21.64 44.08 18.85 45.33 18.58 46.58 18.73 47.83 19.46 49.08 18.06 50.33 18.17 51.58 17.83 52.83 17.69 54.08 18.13 55.34 17.55 56.59 17.18 57.84 18.12 59.09 16.37 60.34 15.87 61.59 15.15 62.84 15.51 64.09 14.67 65.34 14.05 66.59 14.11 67.84 16.29 69.1 14.34 70.35 12.62 71.6 12.03 72.85 12.43 74.1 12.13 75.35 12.35 76.6 14.16 77.85 14.38 79.1 12.83 80.35 13.03 81.6 13.11 82.86 12.4 84.11 11.31 85.36 14.12 86.61 15.56 87.86 16.64 89.11 17.24 90.36 16.62 91.61 17.55 92.86 18.49 94.11 18.52 95.36 20.14 96.62 20.73 97.87 22.15 99.12 22.41 100.37 24.1 101.62 25.98 102.87 27.49 104.12 29.89 105.37 30.47 106.62 28.83 107.87 27.84 109.12 29.12 110.38 28.12 111.63 27.94 112.88 28.34 114.13 26.57 115.38 27.11 116.63 25.77 117.88 26.08 119.13 25.72 120.38 29.97 121.63 30.62 122.88 30.47 124.13 27.89 125.39 26.03 126.64 28.61 127.89 27.93 129.14 28.63 130.39 29.21 131.64 29 132.89 30.86 134.14 30.32 135.39 28.26 136.64 27.97 137.89 25.13 139.15 25.23 140.4 23.59 141.65 22.1 142.9 23.6 144.15 23.28"/>
      </g>
    </g>
  </g>
  <g class="guide ylabels" font-size="2.82" font-family="'PT Sans Caption','Helvetica Neue','Helvetica',sans-serif" fill="#6C606B" id="fig-028c0d7da4274beaacb3f566a50fb224-element-11">
    <text x="17.31" y="31.52" text-anchor="end" dy="0.35em">-10</text>
    <text x="17.31" y="25.39" text-anchor="end" dy="0.35em">-5</text>
    <text x="17.31" y="19.26" text-anchor="end" dy="0.35em">0</text>
    <text x="17.31" y="13.13" text-anchor="end" dy="0.35em">5</text>
    <text x="17.31" y="7" text-anchor="end" dy="0.35em">10</text>
  </g>
  <g font-size="3.88" font-family="'PT Sans','Helvetica Neue','Helvetica',sans-serif" fill="#564A55" stroke="none" id="fig-028c0d7da4274beaacb3f566a50fb224-element-12">
    <text x="9.85" y="19.26" text-anchor="end" dy="0.35em">θ</text>
  </g>
</g>
<defs>
<clipPath id="fig-028c0d7da4274beaacb3f566a50fb224-element-5">
  <path d="M18.31,5 L 147.4 5 147.4 33.52 18.31 33.52" />
</clipPath
></defs>
</svg>
