<?xml version="1.0" encoding="UTF-8"?>
<svg xmlns="http://www.w3.org/2000/svg"
     xmlns:xlink="http://www.w3.org/1999/xlink"
     xmlns:gadfly="http://www.gadflyjl.org/ns"
     version="1.2"
     width="152.4mm" height="50.8mm" viewBox="0 0 152.4 50.8"
     stroke="none"
     fill="#000000"
     stroke-width="0.3"
     font-size="3.88"
>
<g class="plotroot xscalable yscalable" id="fig-028c0d7da4274beaacb3f566a50fb224-element-1">
  <g font-size="3.88" font-family="'PT Sans','Helvetica Neue','Helvetica',sans-serif" fill="#564A55" stroke="none" id="fig-028c0d7da4274beaacb3f566a50fb224-element-2">
    <text x="82.43" y="42.8" text-anchor="middle">m</text>
  </g>
  <g class="guide xlabels" font-size="2.82" font-family="'PT Sans Caption','Helvetica Neue','Helvetica',sans-serif" fill="#6C606B" id="fig-028c0d7da4274beaacb3f566a50fb224-element-3">
    <text x="19.46" y="37.19" text-anchor="middle">0</text>
    <text x="82.43" y="37.19" text-anchor="middle">50</text>
    <text x="145.4" y="37.19" text-anchor="middle">100</text>
  </g>
  <g clip-path="url(#fig-028c0d7da4274beaacb3f566a50fb224-element-5)" id="fig-028c0d7da4274beaacb3f566a50fb224-element-4">
    <g pointer-events="visible" opacity="1" fill="none" stroke="none" class="guide background" id="fig-028c0d7da4274beaacb3f566a50fb224-element-6">
      <rect x="17.46" y="5" width="129.94" height="28.52"/>
    </g>
    <g class="guide ygridlines xfixed" stroke-dasharray="0.5,0.5" stroke-width="0.2" stroke="#D0D0E0" id="fig-028c0d7da4274beaacb3f566a50fb224-element-7">
      <path d="M17.46,31.52 L 147.4 31.52"/>
      <path d="M17.46,25.39 L 147.4 25.39"/>
      <path d="M17.46,19.26 L 147.4 19.26"/>
      <path d="M17.46,13.13 L 147.4 13.13"/>
      <path d="M17.46,7 L 147.4 7"/>
    </g>
    <g class="guide xgridlines yfixed" stroke-dasharray="0.5,0.5" stroke-width="0.2" stroke="#D0D0E0" id="fig-028c0d7da4274beaacb3f566a50fb224-element-8">
      <path d="M19.46,5 L 19.46 33.52"/>
      <path d="M82.43,5 L 82.43 33.52"/>
      <path d="M145.4,5 L 145.4 33.52"/>
    </g>
    <g class="plotpanel" id="fig-028c0d7da4274beaacb3f566a50fb224-element-9">
      <g stroke-width="0.3" fill="none" class="geometry" stroke="#00BFFF" id="fig-028c0d7da4274beaacb3f566a50fb224-element-10">
        <path d="M19.46,19.26 L 20.72 18.43 21.98 17.41 23.24 17.84 24.5 18.01 25.76 17.29 27.01 16.92 28.27 16.84 29.53 16.98 30.79 17.61 32.05 15.68 33.31 16.52 34.57 17.46 35.83 16.97 37.09 15.98 38.35 16.4 39.61 16.63 40.87 18.6 42.13 21.64 43.39 18.85 44.65 18.58 45.91 18.73 47.17 19.46 48.42 18.06 49.68 18.17 50.94 17.83 52.2 17.69 53.46 18.13 54.72 17.55 55.98 17.18 57.24 18.12 58.5 16.37 59.76 15.87 61.02 15.15 62.28 15.51 63.54 14.67 64.8 14.05 66.06 14.11 67.32 16.29 68.58 14.34 69.84 12.62 71.09 12.03 72.35 12.43 73.61 12.13 74.87 12.35 76.13 14.16 77.39 14.38 78.65 12.83 79.91 13.03 81.17 13.11 82.43 12.4 83.69 11.31 84.95 14.12 86.21 15.56 87.47 16.64 88.73 17.24 89.99 16.62 91.25 17.55 92.5 18.49 93.76 18.52 95.02 20.14 96.28 20.73 97.54 22.15 98.8 22.41 100.06 24.1 101.32 25.98 102.58 27.49 103.84 29.89 105.1 30.47 106.36 28.83 107.62 27.84 108.88 29.12 110.14 28.12 111.4 27.94 112.66 28.34 113.91 26.57 115.17 27.11 116.43 25.77 117.69 26.08 118.95 25.72 120.21 29.97 121.47 30.62 122.73 30.47 123.99 27.89 125.25 26.03 126.51 28.61 127.77 27.93 129.03 28.63 130.29 29.21 131.55 29 132.81 30.86 134.07 30.32 135.32 28.26 136.58 27.97 137.84 25.13 139.1 25.23 140.36 23.59 141.62 22.1 142.88 23.6 144.14 23.28"/>
      </g>
    </g>
  </g>
  <g class="guide ylabels" font-size="2.82" font-family="'PT Sans Caption','Helvetica Neue','Helvetica',sans-serif" fill="#6C606B" id="fig-028c0d7da4274beaacb3f566a50fb224-element-11">
    <text x="16.46" y="31.52" text-anchor="end" dy="0.35em">-10</text>
    <text x="16.46" y="25.39" text-anchor="end" dy="0.35em">-5</text>
    <text x="16.46" y="19.26" text-anchor="end" dy="0.35em">0</text>
    <text x="16.46" y="13.13" text-anchor="end" dy="0.35em">5</text>
    <text x="16.46" y="7" text-anchor="end" dy="0.35em">10</text>
  </g>
  <g font-size="3.88" font-family="'PT Sans','Helvetica Neue','Helvetica',sans-serif" fill="#564A55" stroke="none" id="fig-028c0d7da4274beaacb3f566a50fb224-element-12">
    <text x="9" y="19.26" text-anchor="end" dy="0.35em">x</text>
  </g>
</g>
<defs>
<clipPath id="fig-028c0d7da4274beaacb3f566a50fb224-element-5">
  <path d="M17.46,5 L 147.4 5 147.4 33.52 17.46 33.52" />
</clipPath
></defs>
</svg>
