<?xml version="1.0" encoding="UTF-8" standalone="no"?>
<!-- Created with Inkscape (http://www.inkscape.org/) -->

<svg
   xmlns:svg="http://www.w3.org/2000/svg"
   xmlns="http://www.w3.org/2000/svg"
   version="1.0"
   width="1225"
   height="549.99994"
   id="svg2">
  <defs
     id="defs4" />
  <g
     transform="translate(274.99991,-627.36212)"
     id="layer1">
    <path
       d="m 296.37182,742.15229 c -29.65888,25.50109 -184.28798,-4.83557 -88.97665,76.50328 35.2026,25.7783 27.16716,166.01024 105.60781,77.33487 l 73.17707,-106.43938 c -68.75183,60.53807 -87.1485,22.04434 -89.80823,-47.39877 z"
       id="path3359"
       style="fill:#2a7fff;fill-opacity:1;fill-rule:evenodd;stroke:none" />
    <path
       d="m -120,632.36218 0,544.00002 m 60,-544.00002 0,544.00002 M 0,632.36218 0,1176.3622 m 60,-544.00002 0,544.00002 m 60,-544.00002 0,544.00002 m 60,-544.00002 0,544.00002 m 60,-544.00002 0,544.00002 m 60,-544.00002 0,544.00002 m 60,-544.00002 0,544.00002 m 60,-544.00002 0,544.00002 m -540,-544.00002 544,0 m -544,60 544,0 m -544,60 544,0 m -544,60 544,0 m -544,60 544,0 m -544,60 544,0 m -544,60 544,0 m -544,60.00002 544,0 m -544,60 544,0 m -544,60 544,0"
       id="path3860"
       style="fill:none;stroke:#2a7fff;stroke-width:8pt;stroke-linecap:butt;stroke-linejoin:miter;stroke-opacity:1" />
    <path
       d="m -120,632.36218 540,0 0,540.00002 -540,0 0,-540.00002 z"
       id="rect3862"
       style="fill:none;stroke:#2a7fff;stroke-width:10;stroke-linejoin:miter;stroke-miterlimit:4;stroke-opacity:1;stroke-dashoffset:17.71000166" />
    <path
       d="m -5,927.36218 130,0 0,130.00002 -130,0 0,-130.00002 z"
       id="rect3361"
       style="fill:#2a7fff;fill-opacity:1;stroke:none" />
    <path
       d="m 684.13416,742.15229 c -61.53524,25.50109 -178.24352,-4.83557 -184.60575,76.50328 2.97972,25.7783 -180.34564,166.01024 8.93922,77.33487 L 714.69393,789.55106 C 570.26951,850.08913 599.99,811.5954 684.13416,742.15229 z"
       id="path4737"
       style="fill:#2ca02c;fill-opacity:0.68627451;fill-rule:evenodd;stroke:none" />
    <path
       d="M 404.99998,632.36218 -275.00005,1176.3622 M 464.99998,632.36218 -215.00005,1176.3622 M 524.99998,632.36218 -155.00005,1176.3622 M 584.99998,632.36218 -95.00005,1176.3622 M 644.99998,632.36218 -35.00005,1176.3622 M 704.99998,632.36218 24.99995,1176.3622 M 764.99998,632.36218 84.99995,1176.3622 M 824.99998,632.36218 144.99995,1176.3622 M 884.99998,632.36218 204.99995,1176.3622 M 944.99998,632.36218 264.99995,1176.3622 m 140.00003,-544.00002 544,0 m -619,60 544,0 m -619,60 544,0 m -619,60 544,0 m -619,60 544,0 m -619.000005,60 544.000005,0 m -619.000005,60 544.000005,0 m -619.00003,60.00002 544,0 m -619,60 544,0 m -619,60 544,0"
       id="path4739"
       style="fill:none;stroke:#2ca02c;stroke-width:8pt;stroke-linecap:butt;stroke-linejoin:miter;stroke-opacity:0.68627451" />
    <path
       d="m 1195.4528,1012.2734 540,0 0,864.4217 -540,0 0,-864.4217 z"
       transform="matrix(1,0,-0.7808688,0.624695,0,0)"
       id="rect4741"
       style="fill:none;stroke:#2ca02c;stroke-width:12.65219784;stroke-linejoin:miter;stroke-miterlimit:4;stroke-opacity:0.68627451;stroke-dashoffset:17.71000166" />
    <path
       d="m 1310.4528,1484.5038 130,0 0,208.1015 -130,0 0,-208.1015 z"
       transform="matrix(1,0,-0.7808688,0.624695,0,0)"
       id="rect4743"
       style="fill:#2ca02c;fill-opacity:0.68627451;stroke:none" />
    <path
       d="m 259.60921,640.72504 c 0,4.18419 -3.39196,7.57614 -7.57614,7.57614 -4.18419,0 -7.57615,-3.39195 -7.57615,-7.57614 0,-4.18419 3.39196,-7.57615 7.57615,-7.57615 4.18418,0 7.57614,3.39196 7.57614,7.57615 z"
       transform="translate(-252.033,411.637)"
       id="path3209"
       style="fill:#000000;fill-opacity:1;stroke:none" />
  </g>
</svg>
